G04 #@! TF.GenerationSoftware,KiCad,Pcbnew,5.1.5-52549c5~84~ubuntu19.10.1*
G04 #@! TF.CreationDate,2020-02-17T22:45:33-08:00*
G04 #@! TF.ProjectId,keycad,6b657963-6164-42e6-9b69-6361645f7063,rev?*
G04 #@! TF.SameCoordinates,Original*
G04 #@! TF.FileFunction,Copper,L1,Top*
G04 #@! TF.FilePolarity,Positive*
%FSLAX46Y46*%
G04 Gerber Fmt 4.6, Leading zero omitted, Abs format (unit mm)*
G04 Created by KiCad (PCBNEW 5.1.5-52549c5~84~ubuntu19.10.1) date 2020-02-17 22:45:33*
%MOMM*%
%LPD*%
G04 APERTURE LIST*
%ADD10C,1.752600*%
%ADD11R,1.752600X1.752600*%
%ADD12C,0.800000*%
%ADD13C,0.250000*%
%ADD14C,0.254000*%
G04 APERTURE END LIST*
D10*
X196850000Y5080000D03*
X181610000Y-22860000D03*
X196850000Y2540000D03*
X196850000Y0D03*
X196850000Y-2540000D03*
X196850000Y-5080000D03*
X196850000Y-7620000D03*
X196850000Y-10160000D03*
X196850000Y-12700000D03*
X196850000Y-15240000D03*
X196850000Y-17780000D03*
X196850000Y-20320000D03*
X196850000Y-22860000D03*
X181610000Y-20320000D03*
X181610000Y-17780000D03*
X181610000Y-15240000D03*
X181610000Y-12700000D03*
X181610000Y-10160000D03*
X181610000Y-7620000D03*
X181610000Y-5080000D03*
X181610000Y-2540000D03*
X181610000Y0D03*
X181610000Y2540000D03*
D11*
X181610000Y5080000D03*
D12*
X193466500Y-18041700D03*
X148016500Y-9008600D03*
X11839600Y-7525700D03*
X-6089800Y-7525700D03*
X105815700Y-5533500D03*
X94991000Y-5533500D03*
X124757500Y-24445600D03*
X114052200Y-24445600D03*
X10798700Y-23679900D03*
X89600Y-23349300D03*
X164521900Y-12636500D03*
X195032500Y-20006900D03*
X113482300Y-45309600D03*
X160910200Y-26288400D03*
X166984500Y-13794500D03*
X150683000Y-11878000D03*
X166831200Y-11878000D03*
X9480500Y-5972400D03*
X175003000Y5841900D03*
X14332900Y-15496400D03*
X2500000Y-11279500D03*
X167036000Y-15908000D03*
X155818800Y-12617600D03*
X2588700Y-35105900D03*
X165416300Y-17477400D03*
X126420900Y-31133700D03*
X116850500Y-31133700D03*
X6865600Y3383700D03*
X13474300Y4513400D03*
X139257600Y-33246800D03*
X153258100Y-22201100D03*
X7556300Y4810800D03*
X155573700Y2966200D03*
X160525600Y-33297800D03*
X173748300Y-25194600D03*
X77810200Y-6175900D03*
X9692400Y-26519800D03*
X44255900Y4762500D03*
X25482200Y-14796100D03*
X57575200Y-5603900D03*
X26278900Y-33476000D03*
X45751600Y-14231000D03*
X96134600Y-9420700D03*
X44253400Y-33237500D03*
X62222900Y-13239300D03*
X95692200Y-11179300D03*
X63122700Y-32109500D03*
X82536000Y-14737100D03*
X99985800Y-13239300D03*
X82536000Y-33232100D03*
X101949200Y-33462900D03*
X122018900Y-14658200D03*
X139439300Y4296000D03*
X143090300Y2198100D03*
X149249200Y-12224500D03*
X160673800Y-18331400D03*
D13*
X-6089800Y-7525700D02*
X11839600Y-7525700D01*
X148016500Y-9008600D02*
X178555500Y-9008600D01*
X178555500Y-9008600D02*
X180976900Y-11430000D01*
X180976900Y-11430000D02*
X186854800Y-11430000D01*
X186854800Y-11430000D02*
X193466500Y-18041700D01*
X94991000Y-5533500D02*
X105815700Y-5533500D01*
X196850000Y-20320000D02*
X195555200Y-19025200D01*
X195555200Y-19025200D02*
X180952100Y-19025200D01*
X180952100Y-19025200D02*
X177989700Y-16062800D01*
X177989700Y-16062800D02*
X168220600Y-16062800D01*
X168220600Y-16062800D02*
X164794300Y-12636500D01*
X164794300Y-12636500D02*
X164521900Y-12636500D01*
X114052200Y-24445600D02*
X124757500Y-24445600D01*
X89600Y-23349300D02*
X420200Y-23679900D01*
X420200Y-23679900D02*
X10798700Y-23679900D01*
X160910200Y-26288400D02*
X171268800Y-26288400D01*
X171268800Y-26288400D02*
X173443000Y-24114200D01*
X173443000Y-24114200D02*
X190925200Y-24114200D01*
X190925200Y-24114200D02*
X195032500Y-20006900D01*
X113482300Y-45309600D02*
X116658100Y-45309600D01*
X116658100Y-45309600D02*
X120713100Y-41254600D01*
X120713100Y-41254600D02*
X133044400Y-41254600D01*
X133044400Y-41254600D02*
X137980800Y-36318200D01*
X137980800Y-36318200D02*
X143081700Y-36318200D01*
X143081700Y-36318200D02*
X153111500Y-26288400D01*
X153111500Y-26288400D02*
X160910200Y-26288400D01*
X166831200Y-11878000D02*
X166831200Y-13641200D01*
X166831200Y-13641200D02*
X166984500Y-13794500D01*
X150683000Y-11878000D02*
X166831200Y-11878000D01*
X175003000Y5841900D02*
X173309900Y7535000D01*
X173309900Y7535000D02*
X9246900Y7535000D01*
X9246900Y7535000D02*
X6115700Y4403800D01*
X6115700Y4403800D02*
X6115700Y2798900D01*
X6115700Y2798900D02*
X9480500Y-565900D01*
X9480500Y-565900D02*
X9480500Y-5972400D01*
X14332900Y-15496400D02*
X10116000Y-11279500D01*
X10116000Y-11279500D02*
X2500000Y-11279500D01*
X167036000Y-15908000D02*
X159109200Y-15908000D01*
X159109200Y-15908000D02*
X155818800Y-12617600D01*
X165416300Y-17477400D02*
X160500500Y-17477400D01*
X160500500Y-17477400D02*
X159557300Y-18420600D01*
X159557300Y-18420600D02*
X159557300Y-20429500D01*
X159557300Y-20429500D02*
X154210900Y-25775900D01*
X154210900Y-25775900D02*
X152569200Y-25775900D01*
X152569200Y-25775900D02*
X143239200Y-35105900D01*
X143239200Y-35105900D02*
X2588700Y-35105900D01*
X116850500Y-31133700D02*
X126420900Y-31133700D01*
X13474300Y4513400D02*
X15573300Y6612400D01*
X15573300Y6612400D02*
X141326000Y6612400D01*
X141326000Y6612400D02*
X145472300Y2466100D01*
X145472300Y2466100D02*
X154877300Y2466100D01*
X154877300Y2466100D02*
X155610000Y1733400D01*
X155610000Y1733400D02*
X165970200Y1733400D01*
X165970200Y1733400D02*
X172783600Y-5080000D01*
X172783600Y-5080000D02*
X181610000Y-5080000D01*
X6865600Y3383700D02*
X12344600Y3383700D01*
X12344600Y3383700D02*
X13474300Y4513400D01*
X7556300Y4810800D02*
X9808300Y7062800D01*
X9808300Y7062800D02*
X144548600Y7062800D01*
X144548600Y7062800D02*
X148674300Y2937100D01*
X148674300Y2937100D02*
X155544600Y2937100D01*
X155544600Y2937100D02*
X155573700Y2966200D01*
X153258100Y-22201100D02*
X148740300Y-22201100D01*
X148740300Y-22201100D02*
X139257600Y-31683800D01*
X139257600Y-31683800D02*
X139257600Y-33246800D01*
X180408400Y5080000D02*
X178224900Y2896500D01*
X178224900Y2896500D02*
X155643400Y2896500D01*
X155643400Y2896500D02*
X155573700Y2966200D01*
X181610000Y5080000D02*
X180408400Y5080000D01*
X160525600Y-33297800D02*
X165645100Y-33297800D01*
X165645100Y-33297800D02*
X173748300Y-25194600D01*
X77810200Y-6175900D02*
X78602600Y-6968300D01*
X78602600Y-6968300D02*
X174164200Y-6968300D01*
X174164200Y-6968300D02*
X174850800Y-6281700D01*
X174850800Y-6281700D02*
X182181000Y-6281700D01*
X182181000Y-6281700D02*
X182852400Y-5610300D01*
X182852400Y-5610300D02*
X182852400Y1297600D01*
X182852400Y1297600D02*
X181610000Y2540000D01*
X25482200Y-14796100D02*
X24065800Y-16212500D01*
X24065800Y-16212500D02*
X18484800Y-16212500D01*
X18484800Y-16212500D02*
X14634600Y-20062700D01*
X14634600Y-20062700D02*
X14634600Y-21577600D01*
X14634600Y-21577600D02*
X9692400Y-26519800D01*
X44255900Y2929800D02*
X39221500Y-2104600D01*
X39221500Y-2104600D02*
X39221500Y-3901900D01*
X39221500Y-3901900D02*
X28327300Y-14796100D01*
X28327300Y-14796100D02*
X25482200Y-14796100D01*
X44255900Y2929800D02*
X44255900Y4762500D01*
X44255900Y2929800D02*
X49798100Y-2612400D01*
X49798100Y-2612400D02*
X57799800Y-2612400D01*
X57799800Y-2612400D02*
X62807400Y-7620000D01*
X62807400Y-7620000D02*
X181610000Y-7620000D01*
X57575200Y-5603900D02*
X60254000Y-8282700D01*
X60254000Y-8282700D02*
X179732700Y-8282700D01*
X179732700Y-8282700D02*
X181610000Y-10160000D01*
X45751600Y-14231000D02*
X48948100Y-14231000D01*
X48948100Y-14231000D02*
X57575200Y-5603900D01*
X26278900Y-33476000D02*
X28697600Y-33476000D01*
X28697600Y-33476000D02*
X38590100Y-23583500D01*
X38590100Y-23583500D02*
X38590100Y-21736000D01*
X38590100Y-21736000D02*
X45751600Y-14574500D01*
X45751600Y-14574500D02*
X45751600Y-14231000D01*
X62222900Y-13239300D02*
X58967500Y-16494700D01*
X58967500Y-16494700D02*
X56216400Y-16494700D01*
X56216400Y-16494700D02*
X44253400Y-28457700D01*
X44253400Y-28457700D02*
X44253400Y-33237500D01*
X96134600Y-9420700D02*
X96584900Y-9871000D01*
X96584900Y-9871000D02*
X178781000Y-9871000D01*
X178781000Y-9871000D02*
X181610000Y-12700000D01*
X62222900Y-13239300D02*
X66041500Y-9420700D01*
X66041500Y-9420700D02*
X96134600Y-9420700D01*
X95692200Y-11179300D02*
X96186400Y-10685100D01*
X96186400Y-10685100D02*
X177055100Y-10685100D01*
X177055100Y-10685100D02*
X181610000Y-15240000D01*
X82536000Y-14737100D02*
X86093800Y-11179300D01*
X86093800Y-11179300D02*
X95692200Y-11179300D01*
X63122700Y-32109500D02*
X63122700Y-31812100D01*
X63122700Y-31812100D02*
X72680200Y-22254600D01*
X72680200Y-22254600D02*
X76120500Y-22254600D01*
X76120500Y-22254600D02*
X82536000Y-15839100D01*
X82536000Y-15839100D02*
X82536000Y-14737100D01*
X99985800Y-13239300D02*
X102089600Y-11135500D01*
X102089600Y-11135500D02*
X174965500Y-11135500D01*
X174965500Y-11135500D02*
X181610000Y-17780000D01*
X82536000Y-33232100D02*
X82536000Y-28175100D01*
X82536000Y-28175100D02*
X94216400Y-16494700D01*
X94216400Y-16494700D02*
X96730400Y-16494700D01*
X96730400Y-16494700D02*
X99985800Y-13239300D01*
X143090300Y2198100D02*
X140992400Y4296000D01*
X140992400Y4296000D02*
X139439300Y4296000D01*
X122018900Y-14658200D02*
X124452600Y-12224500D01*
X124452600Y-12224500D02*
X149249200Y-12224500D01*
X181610000Y-20320000D02*
X177970700Y-16680700D01*
X177970700Y-16680700D02*
X150743400Y-16680700D01*
X150743400Y-16680700D02*
X149249200Y-15186500D01*
X149249200Y-15186500D02*
X149249200Y-12224500D01*
X101949200Y-33462900D02*
X104716600Y-33462900D01*
X104716600Y-33462900D02*
X113285400Y-24894100D01*
X113285400Y-24894100D02*
X113285400Y-23128400D01*
X113285400Y-23128400D02*
X121755600Y-14658200D01*
X121755600Y-14658200D02*
X122018900Y-14658200D01*
X160673800Y-18331400D02*
X163661700Y-21319300D01*
X163661700Y-21319300D02*
X170022900Y-21319300D01*
X170022900Y-21319300D02*
X172075400Y-23371800D01*
X172075400Y-23371800D02*
X181098200Y-23371800D01*
X181098200Y-23371800D02*
X181610000Y-22860000D01*
D14*
G36*
X195754635Y9757048D02*
G01*
X196181856Y9628063D01*
X196575885Y9418555D01*
X196921715Y9136502D01*
X197206174Y8792650D01*
X197418430Y8400091D01*
X197550393Y7973788D01*
X197600501Y7497037D01*
X197600501Y6396157D01*
X197565869Y6419297D01*
X197290830Y6533222D01*
X196998850Y6591300D01*
X196701150Y6591300D01*
X196409170Y6533222D01*
X196134131Y6419297D01*
X195886602Y6253904D01*
X195676096Y6043398D01*
X195510703Y5795869D01*
X195396778Y5520830D01*
X195338700Y5228850D01*
X195338700Y4931150D01*
X195396778Y4639170D01*
X195510703Y4364131D01*
X195676096Y4116602D01*
X195886602Y3906096D01*
X196049809Y3797045D01*
X195982437Y3587169D01*
X196850000Y2719605D01*
X196864142Y2733748D01*
X197043748Y2554142D01*
X197029605Y2540000D01*
X197043748Y2525858D01*
X196864142Y2346252D01*
X196850000Y2360395D01*
X195982437Y1492831D01*
X196049809Y1282955D01*
X195886602Y1173904D01*
X195676096Y963398D01*
X195510703Y715869D01*
X195396778Y440830D01*
X195338700Y148850D01*
X195338700Y-148850D01*
X195396778Y-440830D01*
X195510703Y-715869D01*
X195676096Y-963398D01*
X195886602Y-1173904D01*
X196030420Y-1270000D01*
X195886602Y-1366096D01*
X195676096Y-1576602D01*
X195510703Y-1824131D01*
X195396778Y-2099170D01*
X195338700Y-2391150D01*
X195338700Y-2688850D01*
X195396778Y-2980830D01*
X195510703Y-3255869D01*
X195676096Y-3503398D01*
X195886602Y-3713904D01*
X196030420Y-3810000D01*
X195886602Y-3906096D01*
X195676096Y-4116602D01*
X195510703Y-4364131D01*
X195396778Y-4639170D01*
X195338700Y-4931150D01*
X195338700Y-5228850D01*
X195396778Y-5520830D01*
X195510703Y-5795869D01*
X195676096Y-6043398D01*
X195886602Y-6253904D01*
X196030420Y-6350000D01*
X195886602Y-6446096D01*
X195676096Y-6656602D01*
X195510703Y-6904131D01*
X195396778Y-7179170D01*
X195338700Y-7471150D01*
X195338700Y-7768850D01*
X195396778Y-8060830D01*
X195510703Y-8335869D01*
X195676096Y-8583398D01*
X195886602Y-8793904D01*
X196030420Y-8890000D01*
X195886602Y-8986096D01*
X195676096Y-9196602D01*
X195510703Y-9444131D01*
X195396778Y-9719170D01*
X195338700Y-10011150D01*
X195338700Y-10308850D01*
X195396778Y-10600830D01*
X195510703Y-10875869D01*
X195676096Y-11123398D01*
X195886602Y-11333904D01*
X196030420Y-11430000D01*
X195886602Y-11526096D01*
X195676096Y-11736602D01*
X195510703Y-11984131D01*
X195396778Y-12259170D01*
X195338700Y-12551150D01*
X195338700Y-12848850D01*
X195396778Y-13140830D01*
X195510703Y-13415869D01*
X195676096Y-13663398D01*
X195886602Y-13873904D01*
X196030420Y-13970000D01*
X195886602Y-14066096D01*
X195676096Y-14276602D01*
X195510703Y-14524131D01*
X195396778Y-14799170D01*
X195338700Y-15091150D01*
X195338700Y-15388850D01*
X195396778Y-15680830D01*
X195510703Y-15955869D01*
X195676096Y-16203398D01*
X195886602Y-16413904D01*
X196030420Y-16510000D01*
X195886602Y-16606096D01*
X195676096Y-16816602D01*
X195510703Y-17064131D01*
X195396778Y-17339170D01*
X195338700Y-17631150D01*
X195338700Y-17928850D01*
X195396778Y-18220830D01*
X195415157Y-18265200D01*
X194477320Y-18265200D01*
X194501500Y-18143639D01*
X194501500Y-17939761D01*
X194461726Y-17739802D01*
X194383705Y-17551444D01*
X194270437Y-17381926D01*
X194126274Y-17237763D01*
X193956756Y-17124495D01*
X193768398Y-17046474D01*
X193568439Y-17006700D01*
X193506302Y-17006700D01*
X187418604Y-10919003D01*
X187394801Y-10889999D01*
X187279076Y-10795026D01*
X187147047Y-10724454D01*
X187003786Y-10680997D01*
X186892133Y-10670000D01*
X186892122Y-10670000D01*
X186854800Y-10666324D01*
X186817478Y-10670000D01*
X183034571Y-10670000D01*
X183063222Y-10600830D01*
X183121300Y-10308850D01*
X183121300Y-10011150D01*
X183063222Y-9719170D01*
X182949297Y-9444131D01*
X182783904Y-9196602D01*
X182573398Y-8986096D01*
X182429580Y-8890000D01*
X182573398Y-8793904D01*
X182783904Y-8583398D01*
X182949297Y-8335869D01*
X183063222Y-8060830D01*
X183121300Y-7768850D01*
X183121300Y-7471150D01*
X183063222Y-7179170D01*
X182949297Y-6904131D01*
X182822755Y-6714746D01*
X183363404Y-6174098D01*
X183392401Y-6150301D01*
X183440820Y-6091302D01*
X183487374Y-6034577D01*
X183557946Y-5902547D01*
X183567679Y-5870461D01*
X183601403Y-5759286D01*
X183612400Y-5647633D01*
X183612400Y-5647623D01*
X183616076Y-5610300D01*
X183612400Y-5572978D01*
X183612400Y1260277D01*
X183616076Y1297600D01*
X183612400Y1334923D01*
X183612400Y1334933D01*
X183601403Y1446586D01*
X183557946Y1589847D01*
X183487374Y1721877D01*
X183416199Y1808603D01*
X183392401Y1837601D01*
X183363403Y1861399D01*
X183073576Y2151225D01*
X183121300Y2391150D01*
X183121300Y2472509D01*
X195332887Y2472509D01*
X195375204Y2177833D01*
X195474198Y1897073D01*
X195551071Y1753254D01*
X195802831Y1672437D01*
X196670395Y2540000D01*
X195802831Y3407563D01*
X195551071Y3326746D01*
X195422543Y3058221D01*
X195348871Y2769781D01*
X195332887Y2472509D01*
X183121300Y2472509D01*
X183121300Y2688850D01*
X183063222Y2980830D01*
X182949297Y3255869D01*
X182783904Y3503398D01*
X182686458Y3600844D01*
X182730480Y3614198D01*
X182840794Y3673163D01*
X182937485Y3752515D01*
X183016837Y3849206D01*
X183075802Y3959520D01*
X183112112Y4079218D01*
X183124372Y4203700D01*
X183124372Y5956300D01*
X183112112Y6080782D01*
X183075802Y6200480D01*
X183016837Y6310794D01*
X182937485Y6407485D01*
X182840794Y6486837D01*
X182730480Y6545802D01*
X182610782Y6582112D01*
X182486300Y6594372D01*
X180733700Y6594372D01*
X180609218Y6582112D01*
X180489520Y6545802D01*
X180379206Y6486837D01*
X180282515Y6407485D01*
X180203163Y6310794D01*
X180144198Y6200480D01*
X180107888Y6080782D01*
X180095628Y5956300D01*
X180095628Y5774575D01*
X179984124Y5714974D01*
X179868399Y5620001D01*
X179844601Y5591003D01*
X177910099Y3656500D01*
X173395000Y3656500D01*
X173395000Y6228365D01*
X173398362Y6262500D01*
X173386428Y6383671D01*
X173968000Y5802098D01*
X173968000Y5739961D01*
X174007774Y5540002D01*
X174085795Y5351644D01*
X174199063Y5182126D01*
X174343226Y5037963D01*
X174512744Y4924695D01*
X174701102Y4846674D01*
X174901061Y4806900D01*
X175104939Y4806900D01*
X175304898Y4846674D01*
X175493256Y4924695D01*
X175662774Y5037963D01*
X175806937Y5182126D01*
X175920205Y5351644D01*
X175998226Y5540002D01*
X176038000Y5739961D01*
X176038000Y5943839D01*
X175998226Y6143798D01*
X175920205Y6332156D01*
X175806937Y6501674D01*
X175662774Y6645837D01*
X175493256Y6759105D01*
X175304898Y6837126D01*
X175104939Y6876900D01*
X175042802Y6876900D01*
X173873704Y8045997D01*
X173849901Y8075001D01*
X173734176Y8169974D01*
X173602147Y8240546D01*
X173458886Y8284003D01*
X173347233Y8295000D01*
X173347222Y8295000D01*
X173309900Y8298676D01*
X173272578Y8295000D01*
X9284233Y8295000D01*
X9246900Y8298677D01*
X9209567Y8295000D01*
X9097914Y8284003D01*
X8954653Y8240546D01*
X8822624Y8169974D01*
X8706899Y8075001D01*
X8683101Y8046003D01*
X5604703Y4967604D01*
X5575699Y4943801D01*
X5520571Y4876626D01*
X5480726Y4828076D01*
X5468737Y4805646D01*
X5410154Y4696046D01*
X5366697Y4552785D01*
X5355700Y4441132D01*
X5355700Y4441122D01*
X5352024Y4403800D01*
X5355700Y4366477D01*
X5355701Y2836232D01*
X5352024Y2798900D01*
X5355701Y2761567D01*
X5366698Y2649914D01*
X5375765Y2620024D01*
X5410154Y2506654D01*
X5480726Y2374624D01*
X5541937Y2300039D01*
X5575700Y2258899D01*
X5604698Y2235101D01*
X8720500Y-880702D01*
X8720501Y-5268688D01*
X8676563Y-5312626D01*
X8563295Y-5482144D01*
X8485274Y-5670502D01*
X8445500Y-5870461D01*
X8445500Y-6074339D01*
X8485274Y-6274298D01*
X8563295Y-6462656D01*
X8676563Y-6632174D01*
X8810089Y-6765700D01*
X-1219930Y-6765700D01*
X-1179017Y-6738363D01*
X-881637Y-6440983D01*
X-647988Y-6091302D01*
X-487047Y-5702756D01*
X-405000Y-5290279D01*
X-405000Y-4869721D01*
X-487047Y-4457244D01*
X-647988Y-4068698D01*
X-881637Y-3719017D01*
X-1179017Y-3421637D01*
X-1528698Y-3187988D01*
X-1917244Y-3027047D01*
X-2329721Y-2945000D01*
X-2750279Y-2945000D01*
X-3162756Y-3027047D01*
X-3551302Y-3187988D01*
X-3900983Y-3421637D01*
X-4198363Y-3719017D01*
X-4432012Y-4068698D01*
X-4592953Y-4457244D01*
X-4675000Y-4869721D01*
X-4675000Y-5290279D01*
X-4592953Y-5702756D01*
X-4432012Y-6091302D01*
X-4198363Y-6440983D01*
X-3900983Y-6738363D01*
X-3860070Y-6765700D01*
X-5386089Y-6765700D01*
X-5430026Y-6721763D01*
X-5599544Y-6608495D01*
X-5787902Y-6530474D01*
X-5987861Y-6490700D01*
X-6191739Y-6490700D01*
X-6391698Y-6530474D01*
X-6580056Y-6608495D01*
X-6749574Y-6721763D01*
X-6893737Y-6865926D01*
X-6970001Y-6980063D01*
X-6970001Y146348D01*
X-6565900Y146348D01*
X-6565900Y-146348D01*
X-6508798Y-433421D01*
X-6396788Y-703838D01*
X-6234174Y-947206D01*
X-6027206Y-1154174D01*
X-5783838Y-1316788D01*
X-5513421Y-1428798D01*
X-5226348Y-1485900D01*
X-4933652Y-1485900D01*
X-4646579Y-1428798D01*
X-4376162Y-1316788D01*
X-4132794Y-1154174D01*
X-3925826Y-947206D01*
X-3763212Y-703838D01*
X-3651202Y-433421D01*
X-3594100Y-146348D01*
X-3594100Y146348D01*
X-3616492Y258924D01*
X-2628900Y258924D01*
X-2628900Y-258924D01*
X-2527873Y-766822D01*
X-2329701Y-1245251D01*
X-2042000Y-1675826D01*
X-1675826Y-2042000D01*
X-1245251Y-2329701D01*
X-766822Y-2527873D01*
X-258924Y-2628900D01*
X258924Y-2628900D01*
X766822Y-2527873D01*
X1245251Y-2329701D01*
X1675826Y-2042000D01*
X1746237Y-1971589D01*
X1675000Y-2329721D01*
X1675000Y-2750279D01*
X1757047Y-3162756D01*
X1917988Y-3551302D01*
X2151637Y-3900983D01*
X2449017Y-4198363D01*
X2798698Y-4432012D01*
X3187244Y-4592953D01*
X3599721Y-4675000D01*
X4020279Y-4675000D01*
X4432756Y-4592953D01*
X4821302Y-4432012D01*
X5170983Y-4198363D01*
X5468363Y-3900983D01*
X5702012Y-3551302D01*
X5862953Y-3162756D01*
X5945000Y-2750279D01*
X5945000Y-2329721D01*
X5862953Y-1917244D01*
X5702012Y-1528698D01*
X5608850Y-1389270D01*
X5783838Y-1316788D01*
X6027206Y-1154174D01*
X6234174Y-947206D01*
X6396788Y-703838D01*
X6508798Y-433421D01*
X6565900Y-146348D01*
X6565900Y146348D01*
X6508798Y433421D01*
X6396788Y703838D01*
X6234174Y947206D01*
X6027206Y1154174D01*
X5783838Y1316788D01*
X5513421Y1428798D01*
X5226348Y1485900D01*
X4933652Y1485900D01*
X4646579Y1428798D01*
X4376162Y1316788D01*
X4132794Y1154174D01*
X3925826Y947206D01*
X3763212Y703838D01*
X3651202Y433421D01*
X3594100Y146348D01*
X3594100Y-146348D01*
X3645549Y-405000D01*
X3599721Y-405000D01*
X3187244Y-487047D01*
X2798698Y-647988D01*
X2492292Y-852721D01*
X2527873Y-766822D01*
X2628900Y-258924D01*
X2628900Y258924D01*
X2527873Y766822D01*
X2329701Y1245251D01*
X2042000Y1675826D01*
X1675826Y2042000D01*
X1245251Y2329701D01*
X766822Y2527873D01*
X567603Y2567500D01*
X1665865Y2567500D01*
X1700000Y2564138D01*
X1734134Y2567500D01*
X1734135Y2567500D01*
X1836244Y2577557D01*
X1967252Y2617298D01*
X2087989Y2681833D01*
X2193817Y2768683D01*
X2280667Y2874511D01*
X2345202Y2995248D01*
X2384943Y3126256D01*
X2398362Y3262500D01*
X2395000Y3296635D01*
X2395000Y6228365D01*
X2398362Y6262500D01*
X2384943Y6398744D01*
X2345202Y6529752D01*
X2280667Y6650489D01*
X2193817Y6756317D01*
X2087989Y6843167D01*
X1967252Y6907702D01*
X1836244Y6947443D01*
X1734135Y6957500D01*
X1700000Y6960862D01*
X1665866Y6957500D01*
X-1665866Y6957500D01*
X-1700000Y6960862D01*
X-1734135Y6957500D01*
X-1836244Y6947443D01*
X-1967252Y6907702D01*
X-2087989Y6843167D01*
X-2193817Y6756317D01*
X-2280667Y6650489D01*
X-2345202Y6529752D01*
X-2384943Y6398744D01*
X-2398362Y6262500D01*
X-2395000Y6228365D01*
X-2394999Y3296645D01*
X-2398362Y3262500D01*
X-2384943Y3126256D01*
X-2345202Y2995248D01*
X-2280667Y2874511D01*
X-2193817Y2768683D01*
X-2087989Y2681833D01*
X-1967252Y2617298D01*
X-1836244Y2577557D01*
X-1734135Y2567500D01*
X-1734134Y2567500D01*
X-1700000Y2564138D01*
X-1665865Y2567500D01*
X-567603Y2567500D01*
X-766822Y2527873D01*
X-1245251Y2329701D01*
X-1675826Y2042000D01*
X-2042000Y1675826D01*
X-2329701Y1245251D01*
X-2527873Y766822D01*
X-2628900Y258924D01*
X-3616492Y258924D01*
X-3651202Y433421D01*
X-3763212Y703838D01*
X-3925826Y947206D01*
X-4132794Y1154174D01*
X-4376162Y1316788D01*
X-4646579Y1428798D01*
X-4933652Y1485900D01*
X-5226348Y1485900D01*
X-5513421Y1428798D01*
X-5783838Y1316788D01*
X-6027206Y1154174D01*
X-6234174Y947206D01*
X-6396788Y703838D01*
X-6508798Y433421D01*
X-6565900Y146348D01*
X-6970001Y146348D01*
X-6970001Y7479280D01*
X-6923048Y7958135D01*
X-6794063Y8385356D01*
X-6584555Y8779385D01*
X-6302502Y9125215D01*
X-5958650Y9409674D01*
X-5566091Y9621930D01*
X-5139788Y9753893D01*
X-4663037Y9804001D01*
X195275780Y9804001D01*
X195754635Y9757048D01*
G37*
X195754635Y9757048D02*
X196181856Y9628063D01*
X196575885Y9418555D01*
X196921715Y9136502D01*
X197206174Y8792650D01*
X197418430Y8400091D01*
X197550393Y7973788D01*
X197600501Y7497037D01*
X197600501Y6396157D01*
X197565869Y6419297D01*
X197290830Y6533222D01*
X196998850Y6591300D01*
X196701150Y6591300D01*
X196409170Y6533222D01*
X196134131Y6419297D01*
X195886602Y6253904D01*
X195676096Y6043398D01*
X195510703Y5795869D01*
X195396778Y5520830D01*
X195338700Y5228850D01*
X195338700Y4931150D01*
X195396778Y4639170D01*
X195510703Y4364131D01*
X195676096Y4116602D01*
X195886602Y3906096D01*
X196049809Y3797045D01*
X195982437Y3587169D01*
X196850000Y2719605D01*
X196864142Y2733748D01*
X197043748Y2554142D01*
X197029605Y2540000D01*
X197043748Y2525858D01*
X196864142Y2346252D01*
X196850000Y2360395D01*
X195982437Y1492831D01*
X196049809Y1282955D01*
X195886602Y1173904D01*
X195676096Y963398D01*
X195510703Y715869D01*
X195396778Y440830D01*
X195338700Y148850D01*
X195338700Y-148850D01*
X195396778Y-440830D01*
X195510703Y-715869D01*
X195676096Y-963398D01*
X195886602Y-1173904D01*
X196030420Y-1270000D01*
X195886602Y-1366096D01*
X195676096Y-1576602D01*
X195510703Y-1824131D01*
X195396778Y-2099170D01*
X195338700Y-2391150D01*
X195338700Y-2688850D01*
X195396778Y-2980830D01*
X195510703Y-3255869D01*
X195676096Y-3503398D01*
X195886602Y-3713904D01*
X196030420Y-3810000D01*
X195886602Y-3906096D01*
X195676096Y-4116602D01*
X195510703Y-4364131D01*
X195396778Y-4639170D01*
X195338700Y-4931150D01*
X195338700Y-5228850D01*
X195396778Y-5520830D01*
X195510703Y-5795869D01*
X195676096Y-6043398D01*
X195886602Y-6253904D01*
X196030420Y-6350000D01*
X195886602Y-6446096D01*
X195676096Y-6656602D01*
X195510703Y-6904131D01*
X195396778Y-7179170D01*
X195338700Y-7471150D01*
X195338700Y-7768850D01*
X195396778Y-8060830D01*
X195510703Y-8335869D01*
X195676096Y-8583398D01*
X195886602Y-8793904D01*
X196030420Y-8890000D01*
X195886602Y-8986096D01*
X195676096Y-9196602D01*
X195510703Y-9444131D01*
X195396778Y-9719170D01*
X195338700Y-10011150D01*
X195338700Y-10308850D01*
X195396778Y-10600830D01*
X195510703Y-10875869D01*
X195676096Y-11123398D01*
X195886602Y-11333904D01*
X196030420Y-11430000D01*
X195886602Y-11526096D01*
X195676096Y-11736602D01*
X195510703Y-11984131D01*
X195396778Y-12259170D01*
X195338700Y-12551150D01*
X195338700Y-12848850D01*
X195396778Y-13140830D01*
X195510703Y-13415869D01*
X195676096Y-13663398D01*
X195886602Y-13873904D01*
X196030420Y-13970000D01*
X195886602Y-14066096D01*
X195676096Y-14276602D01*
X195510703Y-14524131D01*
X195396778Y-14799170D01*
X195338700Y-15091150D01*
X195338700Y-15388850D01*
X195396778Y-15680830D01*
X195510703Y-15955869D01*
X195676096Y-16203398D01*
X195886602Y-16413904D01*
X196030420Y-16510000D01*
X195886602Y-16606096D01*
X195676096Y-16816602D01*
X195510703Y-17064131D01*
X195396778Y-17339170D01*
X195338700Y-17631150D01*
X195338700Y-17928850D01*
X195396778Y-18220830D01*
X195415157Y-18265200D01*
X194477320Y-18265200D01*
X194501500Y-18143639D01*
X194501500Y-17939761D01*
X194461726Y-17739802D01*
X194383705Y-17551444D01*
X194270437Y-17381926D01*
X194126274Y-17237763D01*
X193956756Y-17124495D01*
X193768398Y-17046474D01*
X193568439Y-17006700D01*
X193506302Y-17006700D01*
X187418604Y-10919003D01*
X187394801Y-10889999D01*
X187279076Y-10795026D01*
X187147047Y-10724454D01*
X187003786Y-10680997D01*
X186892133Y-10670000D01*
X186892122Y-10670000D01*
X186854800Y-10666324D01*
X186817478Y-10670000D01*
X183034571Y-10670000D01*
X183063222Y-10600830D01*
X183121300Y-10308850D01*
X183121300Y-10011150D01*
X183063222Y-9719170D01*
X182949297Y-9444131D01*
X182783904Y-9196602D01*
X182573398Y-8986096D01*
X182429580Y-8890000D01*
X182573398Y-8793904D01*
X182783904Y-8583398D01*
X182949297Y-8335869D01*
X183063222Y-8060830D01*
X183121300Y-7768850D01*
X183121300Y-7471150D01*
X183063222Y-7179170D01*
X182949297Y-6904131D01*
X182822755Y-6714746D01*
X183363404Y-6174098D01*
X183392401Y-6150301D01*
X183440820Y-6091302D01*
X183487374Y-6034577D01*
X183557946Y-5902547D01*
X183567679Y-5870461D01*
X183601403Y-5759286D01*
X183612400Y-5647633D01*
X183612400Y-5647623D01*
X183616076Y-5610300D01*
X183612400Y-5572978D01*
X183612400Y1260277D01*
X183616076Y1297600D01*
X183612400Y1334923D01*
X183612400Y1334933D01*
X183601403Y1446586D01*
X183557946Y1589847D01*
X183487374Y1721877D01*
X183416199Y1808603D01*
X183392401Y1837601D01*
X183363403Y1861399D01*
X183073576Y2151225D01*
X183121300Y2391150D01*
X183121300Y2472509D01*
X195332887Y2472509D01*
X195375204Y2177833D01*
X195474198Y1897073D01*
X195551071Y1753254D01*
X195802831Y1672437D01*
X196670395Y2540000D01*
X195802831Y3407563D01*
X195551071Y3326746D01*
X195422543Y3058221D01*
X195348871Y2769781D01*
X195332887Y2472509D01*
X183121300Y2472509D01*
X183121300Y2688850D01*
X183063222Y2980830D01*
X182949297Y3255869D01*
X182783904Y3503398D01*
X182686458Y3600844D01*
X182730480Y3614198D01*
X182840794Y3673163D01*
X182937485Y3752515D01*
X183016837Y3849206D01*
X183075802Y3959520D01*
X183112112Y4079218D01*
X183124372Y4203700D01*
X183124372Y5956300D01*
X183112112Y6080782D01*
X183075802Y6200480D01*
X183016837Y6310794D01*
X182937485Y6407485D01*
X182840794Y6486837D01*
X182730480Y6545802D01*
X182610782Y6582112D01*
X182486300Y6594372D01*
X180733700Y6594372D01*
X180609218Y6582112D01*
X180489520Y6545802D01*
X180379206Y6486837D01*
X180282515Y6407485D01*
X180203163Y6310794D01*
X180144198Y6200480D01*
X180107888Y6080782D01*
X180095628Y5956300D01*
X180095628Y5774575D01*
X179984124Y5714974D01*
X179868399Y5620001D01*
X179844601Y5591003D01*
X177910099Y3656500D01*
X173395000Y3656500D01*
X173395000Y6228365D01*
X173398362Y6262500D01*
X173386428Y6383671D01*
X173968000Y5802098D01*
X173968000Y5739961D01*
X174007774Y5540002D01*
X174085795Y5351644D01*
X174199063Y5182126D01*
X174343226Y5037963D01*
X174512744Y4924695D01*
X174701102Y4846674D01*
X174901061Y4806900D01*
X175104939Y4806900D01*
X175304898Y4846674D01*
X175493256Y4924695D01*
X175662774Y5037963D01*
X175806937Y5182126D01*
X175920205Y5351644D01*
X175998226Y5540002D01*
X176038000Y5739961D01*
X176038000Y5943839D01*
X175998226Y6143798D01*
X175920205Y6332156D01*
X175806937Y6501674D01*
X175662774Y6645837D01*
X175493256Y6759105D01*
X175304898Y6837126D01*
X175104939Y6876900D01*
X175042802Y6876900D01*
X173873704Y8045997D01*
X173849901Y8075001D01*
X173734176Y8169974D01*
X173602147Y8240546D01*
X173458886Y8284003D01*
X173347233Y8295000D01*
X173347222Y8295000D01*
X173309900Y8298676D01*
X173272578Y8295000D01*
X9284233Y8295000D01*
X9246900Y8298677D01*
X9209567Y8295000D01*
X9097914Y8284003D01*
X8954653Y8240546D01*
X8822624Y8169974D01*
X8706899Y8075001D01*
X8683101Y8046003D01*
X5604703Y4967604D01*
X5575699Y4943801D01*
X5520571Y4876626D01*
X5480726Y4828076D01*
X5468737Y4805646D01*
X5410154Y4696046D01*
X5366697Y4552785D01*
X5355700Y4441132D01*
X5355700Y4441122D01*
X5352024Y4403800D01*
X5355700Y4366477D01*
X5355701Y2836232D01*
X5352024Y2798900D01*
X5355701Y2761567D01*
X5366698Y2649914D01*
X5375765Y2620024D01*
X5410154Y2506654D01*
X5480726Y2374624D01*
X5541937Y2300039D01*
X5575700Y2258899D01*
X5604698Y2235101D01*
X8720500Y-880702D01*
X8720501Y-5268688D01*
X8676563Y-5312626D01*
X8563295Y-5482144D01*
X8485274Y-5670502D01*
X8445500Y-5870461D01*
X8445500Y-6074339D01*
X8485274Y-6274298D01*
X8563295Y-6462656D01*
X8676563Y-6632174D01*
X8810089Y-6765700D01*
X-1219930Y-6765700D01*
X-1179017Y-6738363D01*
X-881637Y-6440983D01*
X-647988Y-6091302D01*
X-487047Y-5702756D01*
X-405000Y-5290279D01*
X-405000Y-4869721D01*
X-487047Y-4457244D01*
X-647988Y-4068698D01*
X-881637Y-3719017D01*
X-1179017Y-3421637D01*
X-1528698Y-3187988D01*
X-1917244Y-3027047D01*
X-2329721Y-2945000D01*
X-2750279Y-2945000D01*
X-3162756Y-3027047D01*
X-3551302Y-3187988D01*
X-3900983Y-3421637D01*
X-4198363Y-3719017D01*
X-4432012Y-4068698D01*
X-4592953Y-4457244D01*
X-4675000Y-4869721D01*
X-4675000Y-5290279D01*
X-4592953Y-5702756D01*
X-4432012Y-6091302D01*
X-4198363Y-6440983D01*
X-3900983Y-6738363D01*
X-3860070Y-6765700D01*
X-5386089Y-6765700D01*
X-5430026Y-6721763D01*
X-5599544Y-6608495D01*
X-5787902Y-6530474D01*
X-5987861Y-6490700D01*
X-6191739Y-6490700D01*
X-6391698Y-6530474D01*
X-6580056Y-6608495D01*
X-6749574Y-6721763D01*
X-6893737Y-6865926D01*
X-6970001Y-6980063D01*
X-6970001Y146348D01*
X-6565900Y146348D01*
X-6565900Y-146348D01*
X-6508798Y-433421D01*
X-6396788Y-703838D01*
X-6234174Y-947206D01*
X-6027206Y-1154174D01*
X-5783838Y-1316788D01*
X-5513421Y-1428798D01*
X-5226348Y-1485900D01*
X-4933652Y-1485900D01*
X-4646579Y-1428798D01*
X-4376162Y-1316788D01*
X-4132794Y-1154174D01*
X-3925826Y-947206D01*
X-3763212Y-703838D01*
X-3651202Y-433421D01*
X-3594100Y-146348D01*
X-3594100Y146348D01*
X-3616492Y258924D01*
X-2628900Y258924D01*
X-2628900Y-258924D01*
X-2527873Y-766822D01*
X-2329701Y-1245251D01*
X-2042000Y-1675826D01*
X-1675826Y-2042000D01*
X-1245251Y-2329701D01*
X-766822Y-2527873D01*
X-258924Y-2628900D01*
X258924Y-2628900D01*
X766822Y-2527873D01*
X1245251Y-2329701D01*
X1675826Y-2042000D01*
X1746237Y-1971589D01*
X1675000Y-2329721D01*
X1675000Y-2750279D01*
X1757047Y-3162756D01*
X1917988Y-3551302D01*
X2151637Y-3900983D01*
X2449017Y-4198363D01*
X2798698Y-4432012D01*
X3187244Y-4592953D01*
X3599721Y-4675000D01*
X4020279Y-4675000D01*
X4432756Y-4592953D01*
X4821302Y-4432012D01*
X5170983Y-4198363D01*
X5468363Y-3900983D01*
X5702012Y-3551302D01*
X5862953Y-3162756D01*
X5945000Y-2750279D01*
X5945000Y-2329721D01*
X5862953Y-1917244D01*
X5702012Y-1528698D01*
X5608850Y-1389270D01*
X5783838Y-1316788D01*
X6027206Y-1154174D01*
X6234174Y-947206D01*
X6396788Y-703838D01*
X6508798Y-433421D01*
X6565900Y-146348D01*
X6565900Y146348D01*
X6508798Y433421D01*
X6396788Y703838D01*
X6234174Y947206D01*
X6027206Y1154174D01*
X5783838Y1316788D01*
X5513421Y1428798D01*
X5226348Y1485900D01*
X4933652Y1485900D01*
X4646579Y1428798D01*
X4376162Y1316788D01*
X4132794Y1154174D01*
X3925826Y947206D01*
X3763212Y703838D01*
X3651202Y433421D01*
X3594100Y146348D01*
X3594100Y-146348D01*
X3645549Y-405000D01*
X3599721Y-405000D01*
X3187244Y-487047D01*
X2798698Y-647988D01*
X2492292Y-852721D01*
X2527873Y-766822D01*
X2628900Y-258924D01*
X2628900Y258924D01*
X2527873Y766822D01*
X2329701Y1245251D01*
X2042000Y1675826D01*
X1675826Y2042000D01*
X1245251Y2329701D01*
X766822Y2527873D01*
X567603Y2567500D01*
X1665865Y2567500D01*
X1700000Y2564138D01*
X1734134Y2567500D01*
X1734135Y2567500D01*
X1836244Y2577557D01*
X1967252Y2617298D01*
X2087989Y2681833D01*
X2193817Y2768683D01*
X2280667Y2874511D01*
X2345202Y2995248D01*
X2384943Y3126256D01*
X2398362Y3262500D01*
X2395000Y3296635D01*
X2395000Y6228365D01*
X2398362Y6262500D01*
X2384943Y6398744D01*
X2345202Y6529752D01*
X2280667Y6650489D01*
X2193817Y6756317D01*
X2087989Y6843167D01*
X1967252Y6907702D01*
X1836244Y6947443D01*
X1734135Y6957500D01*
X1700000Y6960862D01*
X1665866Y6957500D01*
X-1665866Y6957500D01*
X-1700000Y6960862D01*
X-1734135Y6957500D01*
X-1836244Y6947443D01*
X-1967252Y6907702D01*
X-2087989Y6843167D01*
X-2193817Y6756317D01*
X-2280667Y6650489D01*
X-2345202Y6529752D01*
X-2384943Y6398744D01*
X-2398362Y6262500D01*
X-2395000Y6228365D01*
X-2394999Y3296645D01*
X-2398362Y3262500D01*
X-2384943Y3126256D01*
X-2345202Y2995248D01*
X-2280667Y2874511D01*
X-2193817Y2768683D01*
X-2087989Y2681833D01*
X-1967252Y2617298D01*
X-1836244Y2577557D01*
X-1734135Y2567500D01*
X-1734134Y2567500D01*
X-1700000Y2564138D01*
X-1665865Y2567500D01*
X-567603Y2567500D01*
X-766822Y2527873D01*
X-1245251Y2329701D01*
X-1675826Y2042000D01*
X-2042000Y1675826D01*
X-2329701Y1245251D01*
X-2527873Y766822D01*
X-2628900Y258924D01*
X-3616492Y258924D01*
X-3651202Y433421D01*
X-3763212Y703838D01*
X-3925826Y947206D01*
X-4132794Y1154174D01*
X-4376162Y1316788D01*
X-4646579Y1428798D01*
X-4933652Y1485900D01*
X-5226348Y1485900D01*
X-5513421Y1428798D01*
X-5783838Y1316788D01*
X-6027206Y1154174D01*
X-6234174Y947206D01*
X-6396788Y703838D01*
X-6508798Y433421D01*
X-6565900Y146348D01*
X-6970001Y146348D01*
X-6970001Y7479280D01*
X-6923048Y7958135D01*
X-6794063Y8385356D01*
X-6584555Y8779385D01*
X-6302502Y9125215D01*
X-5958650Y9409674D01*
X-5566091Y9621930D01*
X-5139788Y9753893D01*
X-4663037Y9804001D01*
X195275780Y9804001D01*
X195754635Y9757048D01*
G36*
X178061382Y-15306183D02*
G01*
X178027033Y-15302800D01*
X178027022Y-15302800D01*
X177989700Y-15299124D01*
X177952378Y-15302800D01*
X173395000Y-15302800D01*
X173395000Y-12771635D01*
X173398362Y-12737500D01*
X173394600Y-12699299D01*
X173384943Y-12601256D01*
X173345202Y-12470248D01*
X173280667Y-12349511D01*
X173193817Y-12243683D01*
X173087989Y-12156833D01*
X172967252Y-12092298D01*
X172836244Y-12052557D01*
X172700000Y-12039138D01*
X172665866Y-12042500D01*
X169334134Y-12042500D01*
X169300000Y-12039138D01*
X169265865Y-12042500D01*
X169163756Y-12052557D01*
X169032748Y-12092298D01*
X168912011Y-12156833D01*
X168806183Y-12243683D01*
X168719333Y-12349511D01*
X168654798Y-12470248D01*
X168615057Y-12601256D01*
X168601638Y-12737500D01*
X168605000Y-12771635D01*
X168605001Y-15302800D01*
X168535402Y-15302800D01*
X165481716Y-12249115D01*
X165439105Y-12146244D01*
X165325837Y-11976726D01*
X165244611Y-11895500D01*
X174650699Y-11895500D01*
X178061382Y-15306183D01*
G37*
X178061382Y-15306183D02*
X178027033Y-15302800D01*
X178027022Y-15302800D01*
X177989700Y-15299124D01*
X177952378Y-15302800D01*
X173395000Y-15302800D01*
X173395000Y-12771635D01*
X173398362Y-12737500D01*
X173394600Y-12699299D01*
X173384943Y-12601256D01*
X173345202Y-12470248D01*
X173280667Y-12349511D01*
X173193817Y-12243683D01*
X173087989Y-12156833D01*
X172967252Y-12092298D01*
X172836244Y-12052557D01*
X172700000Y-12039138D01*
X172665866Y-12042500D01*
X169334134Y-12042500D01*
X169300000Y-12039138D01*
X169265865Y-12042500D01*
X169163756Y-12052557D01*
X169032748Y-12092298D01*
X168912011Y-12156833D01*
X168806183Y-12243683D01*
X168719333Y-12349511D01*
X168654798Y-12470248D01*
X168615057Y-12601256D01*
X168601638Y-12737500D01*
X168605000Y-12771635D01*
X168605001Y-15302800D01*
X168535402Y-15302800D01*
X165481716Y-12249115D01*
X165439105Y-12146244D01*
X165325837Y-11976726D01*
X165244611Y-11895500D01*
X174650699Y-11895500D01*
X178061382Y-15306183D01*
G36*
X180282515Y3752515D02*
G01*
X180379206Y3673163D01*
X180489520Y3614198D01*
X180533542Y3600844D01*
X180436096Y3503398D01*
X180270703Y3255869D01*
X180156778Y2980830D01*
X180098700Y2688850D01*
X180098700Y2391150D01*
X180156778Y2099170D01*
X180270703Y1824131D01*
X180436096Y1576602D01*
X180646602Y1366096D01*
X180809809Y1257045D01*
X180742437Y1047169D01*
X181610000Y179605D01*
X181624143Y193748D01*
X181803748Y14143D01*
X181789605Y0D01*
X181803748Y-14142D01*
X181624143Y-193748D01*
X181610000Y-179605D01*
X180742437Y-1047169D01*
X180813968Y-1270000D01*
X180742437Y-1492831D01*
X181610000Y-2360395D01*
X181624143Y-2346253D01*
X181803748Y-2525858D01*
X181789605Y-2540000D01*
X181803748Y-2554143D01*
X181624142Y-2733748D01*
X181610000Y-2719605D01*
X180742437Y-3587169D01*
X180809809Y-3797045D01*
X180646602Y-3906096D01*
X180436096Y-4116602D01*
X180300190Y-4320000D01*
X175988940Y-4320000D01*
X176170983Y-4198363D01*
X176468363Y-3900983D01*
X176702012Y-3551302D01*
X176862953Y-3162756D01*
X176945000Y-2750279D01*
X176945000Y-2607491D01*
X180092887Y-2607491D01*
X180135204Y-2902167D01*
X180234198Y-3182927D01*
X180311071Y-3326746D01*
X180562831Y-3407563D01*
X181430395Y-2540000D01*
X180562831Y-1672437D01*
X180311071Y-1753254D01*
X180182543Y-2021779D01*
X180108871Y-2310219D01*
X180092887Y-2607491D01*
X176945000Y-2607491D01*
X176945000Y-2329721D01*
X176862953Y-1917244D01*
X176702012Y-1528698D01*
X176608850Y-1389270D01*
X176783838Y-1316788D01*
X177027206Y-1154174D01*
X177234174Y-947206D01*
X177396788Y-703838D01*
X177508798Y-433421D01*
X177565900Y-146348D01*
X177565900Y-67491D01*
X180092887Y-67491D01*
X180135204Y-362167D01*
X180234198Y-642927D01*
X180311071Y-786746D01*
X180562831Y-867563D01*
X181430395Y0D01*
X180562831Y867563D01*
X180311071Y786746D01*
X180182543Y518221D01*
X180108871Y229781D01*
X180092887Y-67491D01*
X177565900Y-67491D01*
X177565900Y146348D01*
X177508798Y433421D01*
X177396788Y703838D01*
X177234174Y947206D01*
X177027206Y1154174D01*
X176783838Y1316788D01*
X176513421Y1428798D01*
X176226348Y1485900D01*
X175933652Y1485900D01*
X175646579Y1428798D01*
X175376162Y1316788D01*
X175132794Y1154174D01*
X174925826Y947206D01*
X174763212Y703838D01*
X174651202Y433421D01*
X174594100Y146348D01*
X174594100Y-146348D01*
X174645549Y-405000D01*
X174599721Y-405000D01*
X174187244Y-487047D01*
X173798698Y-647988D01*
X173492292Y-852721D01*
X173527873Y-766822D01*
X173628900Y-258924D01*
X173628900Y258924D01*
X173527873Y766822D01*
X173329701Y1245251D01*
X173042000Y1675826D01*
X172675826Y2042000D01*
X172534397Y2136500D01*
X178187578Y2136500D01*
X178224900Y2132824D01*
X178262222Y2136500D01*
X178262233Y2136500D01*
X178373886Y2147497D01*
X178517147Y2190954D01*
X178649176Y2261526D01*
X178764901Y2356499D01*
X178788704Y2385503D01*
X180225360Y3822159D01*
X180282515Y3752515D01*
G37*
X180282515Y3752515D02*
X180379206Y3673163D01*
X180489520Y3614198D01*
X180533542Y3600844D01*
X180436096Y3503398D01*
X180270703Y3255869D01*
X180156778Y2980830D01*
X180098700Y2688850D01*
X180098700Y2391150D01*
X180156778Y2099170D01*
X180270703Y1824131D01*
X180436096Y1576602D01*
X180646602Y1366096D01*
X180809809Y1257045D01*
X180742437Y1047169D01*
X181610000Y179605D01*
X181624143Y193748D01*
X181803748Y14143D01*
X181789605Y0D01*
X181803748Y-14142D01*
X181624143Y-193748D01*
X181610000Y-179605D01*
X180742437Y-1047169D01*
X180813968Y-1270000D01*
X180742437Y-1492831D01*
X181610000Y-2360395D01*
X181624143Y-2346253D01*
X181803748Y-2525858D01*
X181789605Y-2540000D01*
X181803748Y-2554143D01*
X181624142Y-2733748D01*
X181610000Y-2719605D01*
X180742437Y-3587169D01*
X180809809Y-3797045D01*
X180646602Y-3906096D01*
X180436096Y-4116602D01*
X180300190Y-4320000D01*
X175988940Y-4320000D01*
X176170983Y-4198363D01*
X176468363Y-3900983D01*
X176702012Y-3551302D01*
X176862953Y-3162756D01*
X176945000Y-2750279D01*
X176945000Y-2607491D01*
X180092887Y-2607491D01*
X180135204Y-2902167D01*
X180234198Y-3182927D01*
X180311071Y-3326746D01*
X180562831Y-3407563D01*
X181430395Y-2540000D01*
X180562831Y-1672437D01*
X180311071Y-1753254D01*
X180182543Y-2021779D01*
X180108871Y-2310219D01*
X180092887Y-2607491D01*
X176945000Y-2607491D01*
X176945000Y-2329721D01*
X176862953Y-1917244D01*
X176702012Y-1528698D01*
X176608850Y-1389270D01*
X176783838Y-1316788D01*
X177027206Y-1154174D01*
X177234174Y-947206D01*
X177396788Y-703838D01*
X177508798Y-433421D01*
X177565900Y-146348D01*
X177565900Y-67491D01*
X180092887Y-67491D01*
X180135204Y-362167D01*
X180234198Y-642927D01*
X180311071Y-786746D01*
X180562831Y-867563D01*
X181430395Y0D01*
X180562831Y867563D01*
X180311071Y786746D01*
X180182543Y518221D01*
X180108871Y229781D01*
X180092887Y-67491D01*
X177565900Y-67491D01*
X177565900Y146348D01*
X177508798Y433421D01*
X177396788Y703838D01*
X177234174Y947206D01*
X177027206Y1154174D01*
X176783838Y1316788D01*
X176513421Y1428798D01*
X176226348Y1485900D01*
X175933652Y1485900D01*
X175646579Y1428798D01*
X175376162Y1316788D01*
X175132794Y1154174D01*
X174925826Y947206D01*
X174763212Y703838D01*
X174651202Y433421D01*
X174594100Y146348D01*
X174594100Y-146348D01*
X174645549Y-405000D01*
X174599721Y-405000D01*
X174187244Y-487047D01*
X173798698Y-647988D01*
X173492292Y-852721D01*
X173527873Y-766822D01*
X173628900Y-258924D01*
X173628900Y258924D01*
X173527873Y766822D01*
X173329701Y1245251D01*
X173042000Y1675826D01*
X172675826Y2042000D01*
X172534397Y2136500D01*
X178187578Y2136500D01*
X178224900Y2132824D01*
X178262222Y2136500D01*
X178262233Y2136500D01*
X178373886Y2147497D01*
X178517147Y2190954D01*
X178649176Y2261526D01*
X178764901Y2356499D01*
X178788704Y2385503D01*
X180225360Y3822159D01*
X180282515Y3752515D01*
M02*
