G04 #@! TF.GenerationSoftware,KiCad,Pcbnew,5.1.5-52549c5~84~ubuntu19.10.1*
G04 #@! TF.CreationDate,2020-02-17T22:45:33-08:00*
G04 #@! TF.ProjectId,keycad,6b657963-6164-42e6-9b69-6361645f7063,rev?*
G04 #@! TF.SameCoordinates,Original*
G04 #@! TF.FileFunction,Profile,NP*
%FSLAX46Y46*%
G04 Gerber Fmt 4.6, Leading zero omitted, Abs format (unit mm)*
G04 Created by KiCad (PCBNEW 5.1.5-52549c5~84~ubuntu19.10.1) date 2020-02-17 22:45:33*
%MOMM*%
%LPD*%
G04 APERTURE LIST*
%ADD10C,0.150000*%
%ADD11C,0.120000*%
G04 APERTURE END LIST*
D10*
X-7680001Y-44292500D02*
G75*
G03X-4680001Y-47292500I3000000J0D01*
G01*
X195310501Y-47292500D02*
G75*
G03X198310501Y-44292500I0J3000000D01*
G01*
X198310501Y7514001D02*
G75*
G03X195310501Y10514001I-3000000J0D01*
G01*
X-4680001Y10514001D02*
G75*
G03X-7680001Y7514001I0J-3000000D01*
G01*
X-7680001Y-44292500D02*
X-7680001Y7514001D01*
X195310501Y-47292500D02*
X-4680001Y-47292500D01*
X198310501Y7514001D02*
X198310501Y-44292500D01*
X-4680001Y10514001D02*
X195310501Y10514001D01*
D11*
X150300000Y3262500D02*
X153700000Y3262500D01*
X153700000Y3262500D02*
X153700000Y6262500D01*
X153700000Y6262500D02*
X150300000Y6262500D01*
X150300000Y6262500D02*
X150300000Y3262500D01*
X131300000Y3262500D02*
X134700000Y3262500D01*
X134700000Y3262500D02*
X134700000Y6262500D01*
X134700000Y6262500D02*
X131300000Y6262500D01*
X131300000Y6262500D02*
X131300000Y3262500D01*
X112300000Y3262500D02*
X115700000Y3262500D01*
X115700000Y3262500D02*
X115700000Y6262500D01*
X115700000Y6262500D02*
X112300000Y6262500D01*
X112300000Y6262500D02*
X112300000Y3262500D01*
X93300000Y3262500D02*
X96700000Y3262500D01*
X96700000Y3262500D02*
X96700000Y6262500D01*
X96700000Y6262500D02*
X93300000Y6262500D01*
X93300000Y6262500D02*
X93300000Y3262500D01*
X74300000Y3262500D02*
X77700000Y3262500D01*
X77700000Y3262500D02*
X77700000Y6262500D01*
X77700000Y6262500D02*
X74300000Y6262500D01*
X74300000Y6262500D02*
X74300000Y3262500D01*
X55300000Y3262500D02*
X58700000Y3262500D01*
X58700000Y3262500D02*
X58700000Y6262500D01*
X58700000Y6262500D02*
X55300000Y6262500D01*
X55300000Y6262500D02*
X55300000Y3262500D01*
X169300000Y-34737500D02*
X172700000Y-34737500D01*
X172700000Y-34737500D02*
X172700000Y-31737500D01*
X172700000Y-31737500D02*
X169300000Y-31737500D01*
X169300000Y-31737500D02*
X169300000Y-34737500D01*
X36300000Y3262500D02*
X39700000Y3262500D01*
X39700000Y3262500D02*
X39700000Y6262500D01*
X39700000Y6262500D02*
X36300000Y6262500D01*
X36300000Y6262500D02*
X36300000Y3262500D01*
X150300000Y-34737500D02*
X153700000Y-34737500D01*
X153700000Y-34737500D02*
X153700000Y-31737500D01*
X153700000Y-31737500D02*
X150300000Y-31737500D01*
X150300000Y-31737500D02*
X150300000Y-34737500D01*
X131300000Y-34737500D02*
X134700000Y-34737500D01*
X134700000Y-34737500D02*
X134700000Y-31737500D01*
X134700000Y-31737500D02*
X131300000Y-31737500D01*
X131300000Y-31737500D02*
X131300000Y-34737500D01*
X112300000Y-34737500D02*
X115700000Y-34737500D01*
X115700000Y-34737500D02*
X115700000Y-31737500D01*
X115700000Y-31737500D02*
X112300000Y-31737500D01*
X112300000Y-31737500D02*
X112300000Y-34737500D01*
X93300000Y-34737500D02*
X96700000Y-34737500D01*
X96700000Y-34737500D02*
X96700000Y-31737500D01*
X96700000Y-31737500D02*
X93300000Y-31737500D01*
X93300000Y-31737500D02*
X93300000Y-34737500D01*
X74300000Y-34737500D02*
X77700000Y-34737500D01*
X77700000Y-34737500D02*
X77700000Y-31737500D01*
X77700000Y-31737500D02*
X74300000Y-31737500D01*
X74300000Y-31737500D02*
X74300000Y-34737500D01*
X55300000Y-34737500D02*
X58700000Y-34737500D01*
X58700000Y-34737500D02*
X58700000Y-31737500D01*
X58700000Y-31737500D02*
X55300000Y-31737500D01*
X55300000Y-31737500D02*
X55300000Y-34737500D01*
X36300000Y-34737500D02*
X39700000Y-34737500D01*
X39700000Y-34737500D02*
X39700000Y-31737500D01*
X39700000Y-31737500D02*
X36300000Y-31737500D01*
X36300000Y-31737500D02*
X36300000Y-34737500D01*
X17300000Y-34737500D02*
X20700000Y-34737500D01*
X20700000Y-34737500D02*
X20700000Y-31737500D01*
X20700000Y-31737500D02*
X17300000Y-31737500D01*
X17300000Y-31737500D02*
X17300000Y-34737500D01*
X-1700000Y-34737500D02*
X1700000Y-34737500D01*
X1700000Y-34737500D02*
X1700000Y-31737500D01*
X1700000Y-31737500D02*
X-1700000Y-31737500D01*
X-1700000Y-31737500D02*
X-1700000Y-34737500D01*
X169300000Y-15737500D02*
X172700000Y-15737500D01*
X172700000Y-15737500D02*
X172700000Y-12737500D01*
X172700000Y-12737500D02*
X169300000Y-12737500D01*
X169300000Y-12737500D02*
X169300000Y-15737500D01*
X17300000Y3262500D02*
X20700000Y3262500D01*
X20700000Y3262500D02*
X20700000Y6262500D01*
X20700000Y6262500D02*
X17300000Y6262500D01*
X17300000Y6262500D02*
X17300000Y3262500D01*
X150300000Y-15737500D02*
X153700000Y-15737500D01*
X153700000Y-15737500D02*
X153700000Y-12737500D01*
X153700000Y-12737500D02*
X150300000Y-12737500D01*
X150300000Y-12737500D02*
X150300000Y-15737500D01*
X131300000Y-15737500D02*
X134700000Y-15737500D01*
X134700000Y-15737500D02*
X134700000Y-12737500D01*
X134700000Y-12737500D02*
X131300000Y-12737500D01*
X131300000Y-12737500D02*
X131300000Y-15737500D01*
X112300000Y-15737500D02*
X115700000Y-15737500D01*
X115700000Y-15737500D02*
X115700000Y-12737500D01*
X115700000Y-12737500D02*
X112300000Y-12737500D01*
X112300000Y-12737500D02*
X112300000Y-15737500D01*
X93300000Y-15737500D02*
X96700000Y-15737500D01*
X96700000Y-15737500D02*
X96700000Y-12737500D01*
X96700000Y-12737500D02*
X93300000Y-12737500D01*
X93300000Y-12737500D02*
X93300000Y-15737500D01*
X74300000Y-15737500D02*
X77700000Y-15737500D01*
X77700000Y-15737500D02*
X77700000Y-12737500D01*
X77700000Y-12737500D02*
X74300000Y-12737500D01*
X74300000Y-12737500D02*
X74300000Y-15737500D01*
X55300000Y-15737500D02*
X58700000Y-15737500D01*
X58700000Y-15737500D02*
X58700000Y-12737500D01*
X58700000Y-12737500D02*
X55300000Y-12737500D01*
X55300000Y-12737500D02*
X55300000Y-15737500D01*
X36300000Y-15737500D02*
X39700000Y-15737500D01*
X39700000Y-15737500D02*
X39700000Y-12737500D01*
X39700000Y-12737500D02*
X36300000Y-12737500D01*
X36300000Y-12737500D02*
X36300000Y-15737500D01*
X17300000Y-15737500D02*
X20700000Y-15737500D01*
X20700000Y-15737500D02*
X20700000Y-12737500D01*
X20700000Y-12737500D02*
X17300000Y-12737500D01*
X17300000Y-12737500D02*
X17300000Y-15737500D01*
X-1700000Y-15737500D02*
X1700000Y-15737500D01*
X1700000Y-15737500D02*
X1700000Y-12737500D01*
X1700000Y-12737500D02*
X-1700000Y-12737500D01*
X-1700000Y-12737500D02*
X-1700000Y-15737500D01*
X169300000Y3262500D02*
X172700000Y3262500D01*
X172700000Y3262500D02*
X172700000Y6262500D01*
X172700000Y6262500D02*
X169300000Y6262500D01*
X169300000Y6262500D02*
X169300000Y3262500D01*
X-1700000Y3262500D02*
X1700000Y3262500D01*
X1700000Y3262500D02*
X1700000Y6262500D01*
X1700000Y6262500D02*
X-1700000Y6262500D01*
X-1700000Y6262500D02*
X-1700000Y3262500D01*
M02*
