M48
; DRILL file {KiCad 5.1.5-52549c5~84~ubuntu19.10.1} date Mon 17 Feb 2020 10:45:28 PM PST
; FORMAT={-:-/ absolute / metric / decimal}
; #@! TF.CreationDate,2020-02-17T22:45:28-08:00
; #@! TF.GenerationSoftware,Kicad,Pcbnew,5.1.5-52549c5~84~ubuntu19.10.1
; #@! TF.FileFunction,NonPlated,1,2,NPTH
FMAT,2
METRIC
T1C1.702
T2C3.000
T3C3.988
%
G90
G05
T1
X165.92Y0.0
X176.08Y0.0
X13.92Y-38.0
X24.08Y-38.0
X51.92Y-38.0
X62.08Y-38.0
X165.92Y-38.0
X176.08Y-38.0
X32.92Y-19.0
X43.08Y-19.0
X70.92Y-19.0
X81.08Y-19.0
X146.92Y-38.0
X157.08Y-38.0
X70.92Y-38.0
X81.08Y-38.0
X-5.08Y-38.0
X5.08Y-38.0
X108.92Y-19.0
X119.08Y-19.0
X13.92Y0.0
X24.08Y0.0
X70.92Y0.0
X81.08Y0.0
X-5.08Y-19.0
X5.08Y-19.0
X146.92Y0.0
X157.08Y0.0
X127.92Y-38.0
X138.08Y-38.0
X89.92Y0.0
X100.08Y0.0
X127.92Y0.0
X138.08Y0.0
X127.92Y-19.0
X138.08Y-19.0
X-5.08Y0.0
X5.08Y0.0
X32.92Y-38.0
X43.08Y-38.0
X89.92Y-38.0
X100.08Y-38.0
X32.92Y0.0
X43.08Y0.0
X108.92Y-38.0
X119.08Y-38.0
X51.92Y-19.0
X62.08Y-19.0
X89.92Y-19.0
X100.08Y-19.0
X13.92Y-19.0
X24.08Y-19.0
X108.92Y0.0
X119.08Y0.0
X51.92Y0.0
X62.08Y0.0
X146.92Y-19.0
X157.08Y-19.0
X165.92Y-19.0
X176.08Y-19.0
T2
X149.46Y-5.08
X155.81Y-2.54
X130.46Y-43.08
X136.81Y-40.54
X92.46Y-5.08
X98.81Y-2.54
X130.46Y-5.08
X136.81Y-2.54
X130.46Y-24.08
X136.81Y-21.54
X-2.54Y-5.08
X3.81Y-2.54
X35.46Y-43.08
X41.81Y-40.54
X92.46Y-43.08
X98.81Y-40.54
X35.46Y-5.08
X41.81Y-2.54
X111.46Y-43.08
X117.81Y-40.54
X54.46Y-24.08
X60.81Y-21.54
X92.46Y-24.08
X98.81Y-21.54
X16.46Y-24.08
X22.81Y-21.54
X111.46Y-5.08
X117.81Y-2.54
X54.46Y-5.08
X60.81Y-2.54
X149.46Y-24.08
X155.81Y-21.54
X168.46Y-24.08
X174.81Y-21.54
X168.46Y-5.08
X174.81Y-2.54
X16.46Y-43.08
X22.81Y-40.54
X54.46Y-43.08
X60.81Y-40.54
X168.46Y-43.08
X174.81Y-40.54
X35.46Y-24.08
X41.81Y-21.54
X73.46Y-24.08
X79.81Y-21.54
X149.46Y-43.08
X155.81Y-40.54
X73.46Y-43.08
X79.81Y-40.54
X-2.54Y-43.08
X3.81Y-40.54
X111.46Y-24.08
X117.81Y-21.54
X16.46Y-5.08
X22.81Y-2.54
X73.46Y-5.08
X79.81Y-2.54
X-2.54Y-24.08
X3.81Y-21.54
T3
X171.0Y-38.0
X38.0Y-19.0
X76.0Y-19.0
X152.0Y-38.0
X76.0Y-38.0
X0.0Y-38.0
X114.0Y-19.0
X19.0Y0.0
X76.0Y0.0
X0.0Y-19.0
X152.0Y0.0
X133.0Y-38.0
X95.0Y0.0
X133.0Y0.0
X133.0Y-19.0
X0.0Y0.0
X38.0Y-38.0
X95.0Y-38.0
X38.0Y0.0
X114.0Y-38.0
X57.0Y-19.0
X95.0Y-19.0
X19.0Y-19.0
X114.0Y0.0
X57.0Y0.0
X152.0Y-19.0
X171.0Y-19.0
X171.0Y0.0
X19.0Y-38.0
X57.0Y-38.0
T0
M30
