G04 #@! TF.GenerationSoftware,KiCad,Pcbnew,5.1.5-52549c5~84~ubuntu19.10.1*
G04 #@! TF.CreationDate,2020-02-17T22:45:33-08:00*
G04 #@! TF.ProjectId,keycad,6b657963-6164-42e6-9b69-6361645f7063,rev?*
G04 #@! TF.SameCoordinates,Original*
G04 #@! TF.FileFunction,Legend,Top*
G04 #@! TF.FilePolarity,Positive*
%FSLAX46Y46*%
G04 Gerber Fmt 4.6, Leading zero omitted, Abs format (unit mm)*
G04 Created by KiCad (PCBNEW 5.1.5-52549c5~84~ubuntu19.10.1) date 2020-02-17 22:45:33*
%MOMM*%
%LPD*%
G04 APERTURE LIST*
%ADD10C,0.381000*%
%ADD11C,0.150000*%
G04 APERTURE END LIST*
D10*
X182880000Y6350000D02*
X180340000Y6350000D01*
X180340000Y8890000D02*
X180340000Y6350000D01*
X198120000Y8890000D02*
X180340000Y8890000D01*
X198120000Y6350000D02*
X198120000Y8890000D01*
D11*
G36*
X194161568Y-129360D02*
G01*
X194161568Y-329360D01*
X194061568Y-329360D01*
X194061568Y-129360D01*
X194161568Y-129360D01*
G37*
X194161568Y-129360D02*
X194161568Y-329360D01*
X194061568Y-329360D01*
X194061568Y-129360D01*
X194161568Y-129360D01*
G36*
X193761568Y470640D02*
G01*
X193761568Y-329360D01*
X193661568Y-329360D01*
X193661568Y470640D01*
X193761568Y470640D01*
G37*
X193761568Y470640D02*
X193761568Y-329360D01*
X193661568Y-329360D01*
X193661568Y470640D01*
X193761568Y470640D01*
G36*
X194161568Y470640D02*
G01*
X194161568Y370640D01*
X193661568Y370640D01*
X193661568Y470640D01*
X194161568Y470640D01*
G37*
X194161568Y470640D02*
X194161568Y370640D01*
X193661568Y370640D01*
X193661568Y470640D01*
X194161568Y470640D01*
G36*
X193961568Y70640D02*
G01*
X193961568Y-29360D01*
X193861568Y-29360D01*
X193861568Y70640D01*
X193961568Y70640D01*
G37*
X193961568Y70640D02*
X193961568Y-29360D01*
X193861568Y-29360D01*
X193861568Y70640D01*
X193961568Y70640D01*
G36*
X194161568Y470640D02*
G01*
X194161568Y170640D01*
X194061568Y170640D01*
X194061568Y470640D01*
X194161568Y470640D01*
G37*
X194161568Y470640D02*
X194161568Y170640D01*
X194061568Y170640D01*
X194061568Y470640D01*
X194161568Y470640D01*
D10*
X182880000Y3810000D02*
X180340000Y3810000D01*
X182880000Y6350000D02*
X182880000Y3810000D01*
X198120000Y-24130000D02*
X198120000Y6350000D01*
X180340000Y-24130000D02*
X198120000Y-24130000D01*
X180340000Y6350000D02*
X180340000Y-24130000D01*
D11*
X158900000Y6900000D02*
X158900000Y-6900000D01*
X145100000Y-6900000D02*
X145100000Y6900000D01*
X145100000Y-6900000D02*
X158900000Y-6900000D01*
X158900000Y6900000D02*
X145100000Y6900000D01*
X145000000Y-7000000D02*
X145000000Y-6000000D01*
X146000000Y7000000D02*
X145000000Y7000000D01*
X145000000Y-7000000D02*
X146000000Y-7000000D01*
X145000000Y6000000D02*
X145000000Y7000000D01*
X159000000Y7000000D02*
X159000000Y6000000D01*
X158000000Y-7000000D02*
X159000000Y-7000000D01*
X159000000Y7000000D02*
X158000000Y7000000D01*
X159000000Y-6000000D02*
X159000000Y-7000000D01*
X139900000Y6900000D02*
X139900000Y-6900000D01*
X126100000Y-6900000D02*
X126100000Y6900000D01*
X126100000Y-6900000D02*
X139900000Y-6900000D01*
X139900000Y6900000D02*
X126100000Y6900000D01*
X126000000Y-7000000D02*
X126000000Y-6000000D01*
X127000000Y7000000D02*
X126000000Y7000000D01*
X126000000Y-7000000D02*
X127000000Y-7000000D01*
X126000000Y6000000D02*
X126000000Y7000000D01*
X140000000Y7000000D02*
X140000000Y6000000D01*
X139000000Y-7000000D02*
X140000000Y-7000000D01*
X140000000Y7000000D02*
X139000000Y7000000D01*
X140000000Y-6000000D02*
X140000000Y-7000000D01*
X120900000Y6900000D02*
X120900000Y-6900000D01*
X107100000Y-6900000D02*
X107100000Y6900000D01*
X107100000Y-6900000D02*
X120900000Y-6900000D01*
X120900000Y6900000D02*
X107100000Y6900000D01*
X107000000Y-7000000D02*
X107000000Y-6000000D01*
X108000000Y7000000D02*
X107000000Y7000000D01*
X107000000Y-7000000D02*
X108000000Y-7000000D01*
X107000000Y6000000D02*
X107000000Y7000000D01*
X121000000Y7000000D02*
X121000000Y6000000D01*
X120000000Y-7000000D02*
X121000000Y-7000000D01*
X121000000Y7000000D02*
X120000000Y7000000D01*
X121000000Y-6000000D02*
X121000000Y-7000000D01*
X101900000Y6900000D02*
X101900000Y-6900000D01*
X88100000Y-6900000D02*
X88100000Y6900000D01*
X88100000Y-6900000D02*
X101900000Y-6900000D01*
X101900000Y6900000D02*
X88100000Y6900000D01*
X88000000Y-7000000D02*
X88000000Y-6000000D01*
X89000000Y7000000D02*
X88000000Y7000000D01*
X88000000Y-7000000D02*
X89000000Y-7000000D01*
X88000000Y6000000D02*
X88000000Y7000000D01*
X102000000Y7000000D02*
X102000000Y6000000D01*
X101000000Y-7000000D02*
X102000000Y-7000000D01*
X102000000Y7000000D02*
X101000000Y7000000D01*
X102000000Y-6000000D02*
X102000000Y-7000000D01*
X82900000Y6900000D02*
X82900000Y-6900000D01*
X69100000Y-6900000D02*
X69100000Y6900000D01*
X69100000Y-6900000D02*
X82900000Y-6900000D01*
X82900000Y6900000D02*
X69100000Y6900000D01*
X69000000Y-7000000D02*
X69000000Y-6000000D01*
X70000000Y7000000D02*
X69000000Y7000000D01*
X69000000Y-7000000D02*
X70000000Y-7000000D01*
X69000000Y6000000D02*
X69000000Y7000000D01*
X83000000Y7000000D02*
X83000000Y6000000D01*
X82000000Y-7000000D02*
X83000000Y-7000000D01*
X83000000Y7000000D02*
X82000000Y7000000D01*
X83000000Y-6000000D02*
X83000000Y-7000000D01*
X63900000Y6900000D02*
X63900000Y-6900000D01*
X50100000Y-6900000D02*
X50100000Y6900000D01*
X50100000Y-6900000D02*
X63900000Y-6900000D01*
X63900000Y6900000D02*
X50100000Y6900000D01*
X50000000Y-7000000D02*
X50000000Y-6000000D01*
X51000000Y7000000D02*
X50000000Y7000000D01*
X50000000Y-7000000D02*
X51000000Y-7000000D01*
X50000000Y6000000D02*
X50000000Y7000000D01*
X64000000Y7000000D02*
X64000000Y6000000D01*
X63000000Y-7000000D02*
X64000000Y-7000000D01*
X64000000Y7000000D02*
X63000000Y7000000D01*
X64000000Y-6000000D02*
X64000000Y-7000000D01*
X177900000Y-31100000D02*
X177900000Y-44900000D01*
X164100000Y-44900000D02*
X164100000Y-31100000D01*
X164100000Y-44900000D02*
X177900000Y-44900000D01*
X177900000Y-31100000D02*
X164100000Y-31100000D01*
X164000000Y-45000000D02*
X164000000Y-44000000D01*
X165000000Y-31000000D02*
X164000000Y-31000000D01*
X164000000Y-45000000D02*
X165000000Y-45000000D01*
X164000000Y-32000000D02*
X164000000Y-31000000D01*
X178000000Y-31000000D02*
X178000000Y-32000000D01*
X177000000Y-45000000D02*
X178000000Y-45000000D01*
X178000000Y-31000000D02*
X177000000Y-31000000D01*
X178000000Y-44000000D02*
X178000000Y-45000000D01*
X44900000Y6900000D02*
X44900000Y-6900000D01*
X31100000Y-6900000D02*
X31100000Y6900000D01*
X31100000Y-6900000D02*
X44900000Y-6900000D01*
X44900000Y6900000D02*
X31100000Y6900000D01*
X31000000Y-7000000D02*
X31000000Y-6000000D01*
X32000000Y7000000D02*
X31000000Y7000000D01*
X31000000Y-7000000D02*
X32000000Y-7000000D01*
X31000000Y6000000D02*
X31000000Y7000000D01*
X45000000Y7000000D02*
X45000000Y6000000D01*
X44000000Y-7000000D02*
X45000000Y-7000000D01*
X45000000Y7000000D02*
X44000000Y7000000D01*
X45000000Y-6000000D02*
X45000000Y-7000000D01*
X158900000Y-31100000D02*
X158900000Y-44900000D01*
X145100000Y-44900000D02*
X145100000Y-31100000D01*
X145100000Y-44900000D02*
X158900000Y-44900000D01*
X158900000Y-31100000D02*
X145100000Y-31100000D01*
X145000000Y-45000000D02*
X145000000Y-44000000D01*
X146000000Y-31000000D02*
X145000000Y-31000000D01*
X145000000Y-45000000D02*
X146000000Y-45000000D01*
X145000000Y-32000000D02*
X145000000Y-31000000D01*
X159000000Y-31000000D02*
X159000000Y-32000000D01*
X158000000Y-45000000D02*
X159000000Y-45000000D01*
X159000000Y-31000000D02*
X158000000Y-31000000D01*
X159000000Y-44000000D02*
X159000000Y-45000000D01*
X139900000Y-31100000D02*
X139900000Y-44900000D01*
X126100000Y-44900000D02*
X126100000Y-31100000D01*
X126100000Y-44900000D02*
X139900000Y-44900000D01*
X139900000Y-31100000D02*
X126100000Y-31100000D01*
X126000000Y-45000000D02*
X126000000Y-44000000D01*
X127000000Y-31000000D02*
X126000000Y-31000000D01*
X126000000Y-45000000D02*
X127000000Y-45000000D01*
X126000000Y-32000000D02*
X126000000Y-31000000D01*
X140000000Y-31000000D02*
X140000000Y-32000000D01*
X139000000Y-45000000D02*
X140000000Y-45000000D01*
X140000000Y-31000000D02*
X139000000Y-31000000D01*
X140000000Y-44000000D02*
X140000000Y-45000000D01*
X120900000Y-31100000D02*
X120900000Y-44900000D01*
X107100000Y-44900000D02*
X107100000Y-31100000D01*
X107100000Y-44900000D02*
X120900000Y-44900000D01*
X120900000Y-31100000D02*
X107100000Y-31100000D01*
X107000000Y-45000000D02*
X107000000Y-44000000D01*
X108000000Y-31000000D02*
X107000000Y-31000000D01*
X107000000Y-45000000D02*
X108000000Y-45000000D01*
X107000000Y-32000000D02*
X107000000Y-31000000D01*
X121000000Y-31000000D02*
X121000000Y-32000000D01*
X120000000Y-45000000D02*
X121000000Y-45000000D01*
X121000000Y-31000000D02*
X120000000Y-31000000D01*
X121000000Y-44000000D02*
X121000000Y-45000000D01*
X101900000Y-31100000D02*
X101900000Y-44900000D01*
X88100000Y-44900000D02*
X88100000Y-31100000D01*
X88100000Y-44900000D02*
X101900000Y-44900000D01*
X101900000Y-31100000D02*
X88100000Y-31100000D01*
X88000000Y-45000000D02*
X88000000Y-44000000D01*
X89000000Y-31000000D02*
X88000000Y-31000000D01*
X88000000Y-45000000D02*
X89000000Y-45000000D01*
X88000000Y-32000000D02*
X88000000Y-31000000D01*
X102000000Y-31000000D02*
X102000000Y-32000000D01*
X101000000Y-45000000D02*
X102000000Y-45000000D01*
X102000000Y-31000000D02*
X101000000Y-31000000D01*
X102000000Y-44000000D02*
X102000000Y-45000000D01*
X82900000Y-31100000D02*
X82900000Y-44900000D01*
X69100000Y-44900000D02*
X69100000Y-31100000D01*
X69100000Y-44900000D02*
X82900000Y-44900000D01*
X82900000Y-31100000D02*
X69100000Y-31100000D01*
X69000000Y-45000000D02*
X69000000Y-44000000D01*
X70000000Y-31000000D02*
X69000000Y-31000000D01*
X69000000Y-45000000D02*
X70000000Y-45000000D01*
X69000000Y-32000000D02*
X69000000Y-31000000D01*
X83000000Y-31000000D02*
X83000000Y-32000000D01*
X82000000Y-45000000D02*
X83000000Y-45000000D01*
X83000000Y-31000000D02*
X82000000Y-31000000D01*
X83000000Y-44000000D02*
X83000000Y-45000000D01*
X63900000Y-31100000D02*
X63900000Y-44900000D01*
X50100000Y-44900000D02*
X50100000Y-31100000D01*
X50100000Y-44900000D02*
X63900000Y-44900000D01*
X63900000Y-31100000D02*
X50100000Y-31100000D01*
X50000000Y-45000000D02*
X50000000Y-44000000D01*
X51000000Y-31000000D02*
X50000000Y-31000000D01*
X50000000Y-45000000D02*
X51000000Y-45000000D01*
X50000000Y-32000000D02*
X50000000Y-31000000D01*
X64000000Y-31000000D02*
X64000000Y-32000000D01*
X63000000Y-45000000D02*
X64000000Y-45000000D01*
X64000000Y-31000000D02*
X63000000Y-31000000D01*
X64000000Y-44000000D02*
X64000000Y-45000000D01*
X44900000Y-31100000D02*
X44900000Y-44900000D01*
X31100000Y-44900000D02*
X31100000Y-31100000D01*
X31100000Y-44900000D02*
X44900000Y-44900000D01*
X44900000Y-31100000D02*
X31100000Y-31100000D01*
X31000000Y-45000000D02*
X31000000Y-44000000D01*
X32000000Y-31000000D02*
X31000000Y-31000000D01*
X31000000Y-45000000D02*
X32000000Y-45000000D01*
X31000000Y-32000000D02*
X31000000Y-31000000D01*
X45000000Y-31000000D02*
X45000000Y-32000000D01*
X44000000Y-45000000D02*
X45000000Y-45000000D01*
X45000000Y-31000000D02*
X44000000Y-31000000D01*
X45000000Y-44000000D02*
X45000000Y-45000000D01*
X25900000Y-31100000D02*
X25900000Y-44900000D01*
X12100000Y-44900000D02*
X12100000Y-31100000D01*
X12100000Y-44900000D02*
X25900000Y-44900000D01*
X25900000Y-31100000D02*
X12100000Y-31100000D01*
X12000000Y-45000000D02*
X12000000Y-44000000D01*
X13000000Y-31000000D02*
X12000000Y-31000000D01*
X12000000Y-45000000D02*
X13000000Y-45000000D01*
X12000000Y-32000000D02*
X12000000Y-31000000D01*
X26000000Y-31000000D02*
X26000000Y-32000000D01*
X25000000Y-45000000D02*
X26000000Y-45000000D01*
X26000000Y-31000000D02*
X25000000Y-31000000D01*
X26000000Y-44000000D02*
X26000000Y-45000000D01*
X6900000Y-31100000D02*
X6900000Y-44900000D01*
X-6900000Y-44900000D02*
X-6900000Y-31100000D01*
X-6900000Y-44900000D02*
X6900000Y-44900000D01*
X6900000Y-31100000D02*
X-6900000Y-31100000D01*
X-7000000Y-45000000D02*
X-7000000Y-44000000D01*
X-6000000Y-31000000D02*
X-7000000Y-31000000D01*
X-7000000Y-45000000D02*
X-6000000Y-45000000D01*
X-7000000Y-32000000D02*
X-7000000Y-31000000D01*
X7000000Y-31000000D02*
X7000000Y-32000000D01*
X6000000Y-45000000D02*
X7000000Y-45000000D01*
X7000000Y-31000000D02*
X6000000Y-31000000D01*
X7000000Y-44000000D02*
X7000000Y-45000000D01*
X177900000Y-12100000D02*
X177900000Y-25900000D01*
X164100000Y-25900000D02*
X164100000Y-12100000D01*
X164100000Y-25900000D02*
X177900000Y-25900000D01*
X177900000Y-12100000D02*
X164100000Y-12100000D01*
X164000000Y-26000000D02*
X164000000Y-25000000D01*
X165000000Y-12000000D02*
X164000000Y-12000000D01*
X164000000Y-26000000D02*
X165000000Y-26000000D01*
X164000000Y-13000000D02*
X164000000Y-12000000D01*
X178000000Y-12000000D02*
X178000000Y-13000000D01*
X177000000Y-26000000D02*
X178000000Y-26000000D01*
X178000000Y-12000000D02*
X177000000Y-12000000D01*
X178000000Y-25000000D02*
X178000000Y-26000000D01*
X25900000Y6900000D02*
X25900000Y-6900000D01*
X12100000Y-6900000D02*
X12100000Y6900000D01*
X12100000Y-6900000D02*
X25900000Y-6900000D01*
X25900000Y6900000D02*
X12100000Y6900000D01*
X12000000Y-7000000D02*
X12000000Y-6000000D01*
X13000000Y7000000D02*
X12000000Y7000000D01*
X12000000Y-7000000D02*
X13000000Y-7000000D01*
X12000000Y6000000D02*
X12000000Y7000000D01*
X26000000Y7000000D02*
X26000000Y6000000D01*
X25000000Y-7000000D02*
X26000000Y-7000000D01*
X26000000Y7000000D02*
X25000000Y7000000D01*
X26000000Y-6000000D02*
X26000000Y-7000000D01*
X158900000Y-12100000D02*
X158900000Y-25900000D01*
X145100000Y-25900000D02*
X145100000Y-12100000D01*
X145100000Y-25900000D02*
X158900000Y-25900000D01*
X158900000Y-12100000D02*
X145100000Y-12100000D01*
X145000000Y-26000000D02*
X145000000Y-25000000D01*
X146000000Y-12000000D02*
X145000000Y-12000000D01*
X145000000Y-26000000D02*
X146000000Y-26000000D01*
X145000000Y-13000000D02*
X145000000Y-12000000D01*
X159000000Y-12000000D02*
X159000000Y-13000000D01*
X158000000Y-26000000D02*
X159000000Y-26000000D01*
X159000000Y-12000000D02*
X158000000Y-12000000D01*
X159000000Y-25000000D02*
X159000000Y-26000000D01*
X139900000Y-12100000D02*
X139900000Y-25900000D01*
X126100000Y-25900000D02*
X126100000Y-12100000D01*
X126100000Y-25900000D02*
X139900000Y-25900000D01*
X139900000Y-12100000D02*
X126100000Y-12100000D01*
X126000000Y-26000000D02*
X126000000Y-25000000D01*
X127000000Y-12000000D02*
X126000000Y-12000000D01*
X126000000Y-26000000D02*
X127000000Y-26000000D01*
X126000000Y-13000000D02*
X126000000Y-12000000D01*
X140000000Y-12000000D02*
X140000000Y-13000000D01*
X139000000Y-26000000D02*
X140000000Y-26000000D01*
X140000000Y-12000000D02*
X139000000Y-12000000D01*
X140000000Y-25000000D02*
X140000000Y-26000000D01*
X120900000Y-12100000D02*
X120900000Y-25900000D01*
X107100000Y-25900000D02*
X107100000Y-12100000D01*
X107100000Y-25900000D02*
X120900000Y-25900000D01*
X120900000Y-12100000D02*
X107100000Y-12100000D01*
X107000000Y-26000000D02*
X107000000Y-25000000D01*
X108000000Y-12000000D02*
X107000000Y-12000000D01*
X107000000Y-26000000D02*
X108000000Y-26000000D01*
X107000000Y-13000000D02*
X107000000Y-12000000D01*
X121000000Y-12000000D02*
X121000000Y-13000000D01*
X120000000Y-26000000D02*
X121000000Y-26000000D01*
X121000000Y-12000000D02*
X120000000Y-12000000D01*
X121000000Y-25000000D02*
X121000000Y-26000000D01*
X101900000Y-12100000D02*
X101900000Y-25900000D01*
X88100000Y-25900000D02*
X88100000Y-12100000D01*
X88100000Y-25900000D02*
X101900000Y-25900000D01*
X101900000Y-12100000D02*
X88100000Y-12100000D01*
X88000000Y-26000000D02*
X88000000Y-25000000D01*
X89000000Y-12000000D02*
X88000000Y-12000000D01*
X88000000Y-26000000D02*
X89000000Y-26000000D01*
X88000000Y-13000000D02*
X88000000Y-12000000D01*
X102000000Y-12000000D02*
X102000000Y-13000000D01*
X101000000Y-26000000D02*
X102000000Y-26000000D01*
X102000000Y-12000000D02*
X101000000Y-12000000D01*
X102000000Y-25000000D02*
X102000000Y-26000000D01*
X82900000Y-12100000D02*
X82900000Y-25900000D01*
X69100000Y-25900000D02*
X69100000Y-12100000D01*
X69100000Y-25900000D02*
X82900000Y-25900000D01*
X82900000Y-12100000D02*
X69100000Y-12100000D01*
X69000000Y-26000000D02*
X69000000Y-25000000D01*
X70000000Y-12000000D02*
X69000000Y-12000000D01*
X69000000Y-26000000D02*
X70000000Y-26000000D01*
X69000000Y-13000000D02*
X69000000Y-12000000D01*
X83000000Y-12000000D02*
X83000000Y-13000000D01*
X82000000Y-26000000D02*
X83000000Y-26000000D01*
X83000000Y-12000000D02*
X82000000Y-12000000D01*
X83000000Y-25000000D02*
X83000000Y-26000000D01*
X63900000Y-12100000D02*
X63900000Y-25900000D01*
X50100000Y-25900000D02*
X50100000Y-12100000D01*
X50100000Y-25900000D02*
X63900000Y-25900000D01*
X63900000Y-12100000D02*
X50100000Y-12100000D01*
X50000000Y-26000000D02*
X50000000Y-25000000D01*
X51000000Y-12000000D02*
X50000000Y-12000000D01*
X50000000Y-26000000D02*
X51000000Y-26000000D01*
X50000000Y-13000000D02*
X50000000Y-12000000D01*
X64000000Y-12000000D02*
X64000000Y-13000000D01*
X63000000Y-26000000D02*
X64000000Y-26000000D01*
X64000000Y-12000000D02*
X63000000Y-12000000D01*
X64000000Y-25000000D02*
X64000000Y-26000000D01*
X44900000Y-12100000D02*
X44900000Y-25900000D01*
X31100000Y-25900000D02*
X31100000Y-12100000D01*
X31100000Y-25900000D02*
X44900000Y-25900000D01*
X44900000Y-12100000D02*
X31100000Y-12100000D01*
X31000000Y-26000000D02*
X31000000Y-25000000D01*
X32000000Y-12000000D02*
X31000000Y-12000000D01*
X31000000Y-26000000D02*
X32000000Y-26000000D01*
X31000000Y-13000000D02*
X31000000Y-12000000D01*
X45000000Y-12000000D02*
X45000000Y-13000000D01*
X44000000Y-26000000D02*
X45000000Y-26000000D01*
X45000000Y-12000000D02*
X44000000Y-12000000D01*
X45000000Y-25000000D02*
X45000000Y-26000000D01*
X25900000Y-12100000D02*
X25900000Y-25900000D01*
X12100000Y-25900000D02*
X12100000Y-12100000D01*
X12100000Y-25900000D02*
X25900000Y-25900000D01*
X25900000Y-12100000D02*
X12100000Y-12100000D01*
X12000000Y-26000000D02*
X12000000Y-25000000D01*
X13000000Y-12000000D02*
X12000000Y-12000000D01*
X12000000Y-26000000D02*
X13000000Y-26000000D01*
X12000000Y-13000000D02*
X12000000Y-12000000D01*
X26000000Y-12000000D02*
X26000000Y-13000000D01*
X25000000Y-26000000D02*
X26000000Y-26000000D01*
X26000000Y-12000000D02*
X25000000Y-12000000D01*
X26000000Y-25000000D02*
X26000000Y-26000000D01*
X6900000Y-12100000D02*
X6900000Y-25900000D01*
X-6900000Y-25900000D02*
X-6900000Y-12100000D01*
X-6900000Y-25900000D02*
X6900000Y-25900000D01*
X6900000Y-12100000D02*
X-6900000Y-12100000D01*
X-7000000Y-26000000D02*
X-7000000Y-25000000D01*
X-6000000Y-12000000D02*
X-7000000Y-12000000D01*
X-7000000Y-26000000D02*
X-6000000Y-26000000D01*
X-7000000Y-13000000D02*
X-7000000Y-12000000D01*
X7000000Y-12000000D02*
X7000000Y-13000000D01*
X6000000Y-26000000D02*
X7000000Y-26000000D01*
X7000000Y-12000000D02*
X6000000Y-12000000D01*
X7000000Y-25000000D02*
X7000000Y-26000000D01*
X177900000Y6900000D02*
X177900000Y-6900000D01*
X164100000Y-6900000D02*
X164100000Y6900000D01*
X164100000Y-6900000D02*
X177900000Y-6900000D01*
X177900000Y6900000D02*
X164100000Y6900000D01*
X164000000Y-7000000D02*
X164000000Y-6000000D01*
X165000000Y7000000D02*
X164000000Y7000000D01*
X164000000Y-7000000D02*
X165000000Y-7000000D01*
X164000000Y6000000D02*
X164000000Y7000000D01*
X178000000Y7000000D02*
X178000000Y6000000D01*
X177000000Y-7000000D02*
X178000000Y-7000000D01*
X178000000Y7000000D02*
X177000000Y7000000D01*
X178000000Y-6000000D02*
X178000000Y-7000000D01*
X6900000Y6900000D02*
X6900000Y-6900000D01*
X-6900000Y-6900000D02*
X-6900000Y6900000D01*
X-6900000Y-6900000D02*
X6900000Y-6900000D01*
X6900000Y6900000D02*
X-6900000Y6900000D01*
X-7000000Y-7000000D02*
X-7000000Y-6000000D01*
X-6000000Y7000000D02*
X-7000000Y7000000D01*
X-7000000Y-7000000D02*
X-6000000Y-7000000D01*
X-7000000Y6000000D02*
X-7000000Y7000000D01*
X7000000Y7000000D02*
X7000000Y6000000D01*
X6000000Y-7000000D02*
X7000000Y-7000000D01*
X7000000Y7000000D02*
X6000000Y7000000D01*
X7000000Y-6000000D02*
X7000000Y-7000000D01*
X183467651Y5518095D02*
X183924794Y5518095D01*
X183696223Y4718095D02*
X183696223Y5518095D01*
X184115270Y5518095D02*
X184648604Y4718095D01*
X184648604Y5518095D02*
X184115270Y4718095D01*
X185105747Y5518095D02*
X185181937Y5518095D01*
X185258128Y5480000D01*
X185296223Y5441904D01*
X185334318Y5365714D01*
X185372413Y5213333D01*
X185372413Y5022857D01*
X185334318Y4870476D01*
X185296223Y4794285D01*
X185258128Y4756190D01*
X185181937Y4718095D01*
X185105747Y4718095D01*
X185029556Y4756190D01*
X184991461Y4794285D01*
X184953366Y4870476D01*
X184915270Y5022857D01*
X184915270Y5213333D01*
X184953366Y5365714D01*
X184991461Y5441904D01*
X185029556Y5480000D01*
X185105747Y5518095D01*
X186286699Y5556190D02*
X185600985Y4527619D01*
X186553366Y4718095D02*
X186553366Y5518095D01*
X186743842Y5518095D01*
X186858128Y5480000D01*
X186934318Y5403809D01*
X186972413Y5327619D01*
X187010508Y5175238D01*
X187010508Y5060952D01*
X186972413Y4908571D01*
X186934318Y4832380D01*
X186858128Y4756190D01*
X186743842Y4718095D01*
X186553366Y4718095D01*
X187277175Y5518095D02*
X187772413Y5518095D01*
X187505747Y5213333D01*
X187620032Y5213333D01*
X187696223Y5175238D01*
X187734318Y5137142D01*
X187772413Y5060952D01*
X187772413Y4870476D01*
X187734318Y4794285D01*
X187696223Y4756190D01*
X187620032Y4718095D01*
X187391461Y4718095D01*
X187315270Y4756190D01*
X187277175Y4794285D01*
X183178523Y2178095D02*
X183178523Y2978095D01*
X183369000Y2978095D01*
X183483285Y2940000D01*
X183559476Y2863809D01*
X183597571Y2787619D01*
X183635666Y2635238D01*
X183635666Y2520952D01*
X183597571Y2368571D01*
X183559476Y2292380D01*
X183483285Y2216190D01*
X183369000Y2178095D01*
X183178523Y2178095D01*
X183940428Y2901904D02*
X183978523Y2940000D01*
X184054714Y2978095D01*
X184245190Y2978095D01*
X184321380Y2940000D01*
X184359476Y2901904D01*
X184397571Y2825714D01*
X184397571Y2749523D01*
X184359476Y2635238D01*
X183902333Y2178095D01*
X184397571Y2178095D01*
X183178523Y-7981904D02*
X183178523Y-7181904D01*
X183369000Y-7181904D01*
X183483285Y-7220000D01*
X183559476Y-7296190D01*
X183597571Y-7372380D01*
X183635666Y-7524761D01*
X183635666Y-7639047D01*
X183597571Y-7791428D01*
X183559476Y-7867619D01*
X183483285Y-7943809D01*
X183369000Y-7981904D01*
X183178523Y-7981904D01*
X184130904Y-7181904D02*
X184207095Y-7181904D01*
X184283285Y-7220000D01*
X184321380Y-7258095D01*
X184359476Y-7334285D01*
X184397571Y-7486666D01*
X184397571Y-7677142D01*
X184359476Y-7829523D01*
X184321380Y-7905714D01*
X184283285Y-7943809D01*
X184207095Y-7981904D01*
X184130904Y-7981904D01*
X184054714Y-7943809D01*
X184016619Y-7905714D01*
X183978523Y-7829523D01*
X183940428Y-7677142D01*
X183940428Y-7486666D01*
X183978523Y-7334285D01*
X184016619Y-7258095D01*
X184054714Y-7220000D01*
X184130904Y-7181904D01*
X183178523Y-5441904D02*
X183178523Y-4641904D01*
X183369000Y-4641904D01*
X183483285Y-4680000D01*
X183559476Y-4756190D01*
X183597571Y-4832380D01*
X183635666Y-4984761D01*
X183635666Y-5099047D01*
X183597571Y-5251428D01*
X183559476Y-5327619D01*
X183483285Y-5403809D01*
X183369000Y-5441904D01*
X183178523Y-5441904D01*
X184397571Y-5441904D02*
X183940428Y-5441904D01*
X184169000Y-5441904D02*
X184169000Y-4641904D01*
X184092809Y-4756190D01*
X184016619Y-4832380D01*
X183940428Y-4870476D01*
X183159476Y-2140000D02*
X183083285Y-2101904D01*
X182969000Y-2101904D01*
X182854714Y-2140000D01*
X182778523Y-2216190D01*
X182740428Y-2292380D01*
X182702333Y-2444761D01*
X182702333Y-2559047D01*
X182740428Y-2711428D01*
X182778523Y-2787619D01*
X182854714Y-2863809D01*
X182969000Y-2901904D01*
X183045190Y-2901904D01*
X183159476Y-2863809D01*
X183197571Y-2825714D01*
X183197571Y-2559047D01*
X183045190Y-2559047D01*
X183540428Y-2901904D02*
X183540428Y-2101904D01*
X183997571Y-2901904D01*
X183997571Y-2101904D01*
X184378523Y-2901904D02*
X184378523Y-2101904D01*
X184569000Y-2101904D01*
X184683285Y-2140000D01*
X184759476Y-2216190D01*
X184797571Y-2292380D01*
X184835666Y-2444761D01*
X184835666Y-2559047D01*
X184797571Y-2711428D01*
X184759476Y-2787619D01*
X184683285Y-2863809D01*
X184569000Y-2901904D01*
X184378523Y-2901904D01*
X183159476Y400000D02*
X183083285Y438095D01*
X182969000Y438095D01*
X182854714Y400000D01*
X182778523Y323809D01*
X182740428Y247619D01*
X182702333Y95238D01*
X182702333Y-19047D01*
X182740428Y-171428D01*
X182778523Y-247619D01*
X182854714Y-323809D01*
X182969000Y-361904D01*
X183045190Y-361904D01*
X183159476Y-323809D01*
X183197571Y-285714D01*
X183197571Y-19047D01*
X183045190Y-19047D01*
X183540428Y-361904D02*
X183540428Y438095D01*
X183997571Y-361904D01*
X183997571Y438095D01*
X184378523Y-361904D02*
X184378523Y438095D01*
X184569000Y438095D01*
X184683285Y400000D01*
X184759476Y323809D01*
X184797571Y247619D01*
X184835666Y95238D01*
X184835666Y-19047D01*
X184797571Y-171428D01*
X184759476Y-247619D01*
X184683285Y-323809D01*
X184569000Y-361904D01*
X184378523Y-361904D01*
X183178523Y-10521904D02*
X183178523Y-9721904D01*
X183369000Y-9721904D01*
X183483285Y-9760000D01*
X183559476Y-9836190D01*
X183597571Y-9912380D01*
X183635666Y-10064761D01*
X183635666Y-10179047D01*
X183597571Y-10331428D01*
X183559476Y-10407619D01*
X183483285Y-10483809D01*
X183369000Y-10521904D01*
X183178523Y-10521904D01*
X184321380Y-9988571D02*
X184321380Y-10521904D01*
X184130904Y-9683809D02*
X183940428Y-10255238D01*
X184435666Y-10255238D01*
X183635666Y-12985714D02*
X183597571Y-13023809D01*
X183483285Y-13061904D01*
X183407095Y-13061904D01*
X183292809Y-13023809D01*
X183216619Y-12947619D01*
X183178523Y-12871428D01*
X183140428Y-12719047D01*
X183140428Y-12604761D01*
X183178523Y-12452380D01*
X183216619Y-12376190D01*
X183292809Y-12300000D01*
X183407095Y-12261904D01*
X183483285Y-12261904D01*
X183597571Y-12300000D01*
X183635666Y-12338095D01*
X184321380Y-12261904D02*
X184169000Y-12261904D01*
X184092809Y-12300000D01*
X184054714Y-12338095D01*
X183978523Y-12452380D01*
X183940428Y-12604761D01*
X183940428Y-12909523D01*
X183978523Y-12985714D01*
X184016619Y-13023809D01*
X184092809Y-13061904D01*
X184245190Y-13061904D01*
X184321380Y-13023809D01*
X184359476Y-12985714D01*
X184397571Y-12909523D01*
X184397571Y-12719047D01*
X184359476Y-12642857D01*
X184321380Y-12604761D01*
X184245190Y-12566666D01*
X184092809Y-12566666D01*
X184016619Y-12604761D01*
X183978523Y-12642857D01*
X183940428Y-12719047D01*
X183178523Y-15601904D02*
X183178523Y-14801904D01*
X183369000Y-14801904D01*
X183483285Y-14840000D01*
X183559476Y-14916190D01*
X183597571Y-14992380D01*
X183635666Y-15144761D01*
X183635666Y-15259047D01*
X183597571Y-15411428D01*
X183559476Y-15487619D01*
X183483285Y-15563809D01*
X183369000Y-15601904D01*
X183178523Y-15601904D01*
X183902333Y-14801904D02*
X184435666Y-14801904D01*
X184092809Y-15601904D01*
X183216619Y-17722857D02*
X183483285Y-17722857D01*
X183597571Y-18141904D02*
X183216619Y-18141904D01*
X183216619Y-17341904D01*
X183597571Y-17341904D01*
X184283285Y-17341904D02*
X184130904Y-17341904D01*
X184054714Y-17380000D01*
X184016619Y-17418095D01*
X183940428Y-17532380D01*
X183902333Y-17684761D01*
X183902333Y-17989523D01*
X183940428Y-18065714D01*
X183978523Y-18103809D01*
X184054714Y-18141904D01*
X184207095Y-18141904D01*
X184283285Y-18103809D01*
X184321380Y-18065714D01*
X184359476Y-17989523D01*
X184359476Y-17799047D01*
X184321380Y-17722857D01*
X184283285Y-17684761D01*
X184207095Y-17646666D01*
X184054714Y-17646666D01*
X183978523Y-17684761D01*
X183940428Y-17722857D01*
X183902333Y-17799047D01*
X183445190Y-20262857D02*
X183559476Y-20300952D01*
X183597571Y-20339047D01*
X183635666Y-20415238D01*
X183635666Y-20529523D01*
X183597571Y-20605714D01*
X183559476Y-20643809D01*
X183483285Y-20681904D01*
X183178523Y-20681904D01*
X183178523Y-19881904D01*
X183445190Y-19881904D01*
X183521380Y-19920000D01*
X183559476Y-19958095D01*
X183597571Y-20034285D01*
X183597571Y-20110476D01*
X183559476Y-20186666D01*
X183521380Y-20224761D01*
X183445190Y-20262857D01*
X183178523Y-20262857D01*
X184321380Y-20148571D02*
X184321380Y-20681904D01*
X184130904Y-19843809D02*
X183940428Y-20415238D01*
X184435666Y-20415238D01*
X183445190Y-22802857D02*
X183559476Y-22840952D01*
X183597571Y-22879047D01*
X183635666Y-22955238D01*
X183635666Y-23069523D01*
X183597571Y-23145714D01*
X183559476Y-23183809D01*
X183483285Y-23221904D01*
X183178523Y-23221904D01*
X183178523Y-22421904D01*
X183445190Y-22421904D01*
X183521380Y-22460000D01*
X183559476Y-22498095D01*
X183597571Y-22574285D01*
X183597571Y-22650476D01*
X183559476Y-22726666D01*
X183521380Y-22764761D01*
X183445190Y-22802857D01*
X183178523Y-22802857D01*
X184359476Y-22421904D02*
X183978523Y-22421904D01*
X183940428Y-22802857D01*
X183978523Y-22764761D01*
X184054714Y-22726666D01*
X184245190Y-22726666D01*
X184321380Y-22764761D01*
X184359476Y-22802857D01*
X184397571Y-22879047D01*
X184397571Y-23069523D01*
X184359476Y-23145714D01*
X184321380Y-23183809D01*
X184245190Y-23221904D01*
X184054714Y-23221904D01*
X183978523Y-23183809D01*
X183940428Y-23145714D01*
X194367190Y-22802857D02*
X194481476Y-22840952D01*
X194519571Y-22879047D01*
X194557666Y-22955238D01*
X194557666Y-23069523D01*
X194519571Y-23145714D01*
X194481476Y-23183809D01*
X194405285Y-23221904D01*
X194100523Y-23221904D01*
X194100523Y-22421904D01*
X194367190Y-22421904D01*
X194443380Y-22460000D01*
X194481476Y-22498095D01*
X194519571Y-22574285D01*
X194519571Y-22650476D01*
X194481476Y-22726666D01*
X194443380Y-22764761D01*
X194367190Y-22802857D01*
X194100523Y-22802857D01*
X195243380Y-22421904D02*
X195091000Y-22421904D01*
X195014809Y-22460000D01*
X194976714Y-22498095D01*
X194900523Y-22612380D01*
X194862428Y-22764761D01*
X194862428Y-23069523D01*
X194900523Y-23145714D01*
X194938619Y-23183809D01*
X195014809Y-23221904D01*
X195167190Y-23221904D01*
X195243380Y-23183809D01*
X195281476Y-23145714D01*
X195319571Y-23069523D01*
X195319571Y-22879047D01*
X195281476Y-22802857D01*
X195243380Y-22764761D01*
X195167190Y-22726666D01*
X195014809Y-22726666D01*
X194938619Y-22764761D01*
X194900523Y-22802857D01*
X194862428Y-22879047D01*
X194367190Y-17722857D02*
X194481476Y-17760952D01*
X194519571Y-17799047D01*
X194557666Y-17875238D01*
X194557666Y-17989523D01*
X194519571Y-18065714D01*
X194481476Y-18103809D01*
X194405285Y-18141904D01*
X194100523Y-18141904D01*
X194100523Y-17341904D01*
X194367190Y-17341904D01*
X194443380Y-17380000D01*
X194481476Y-17418095D01*
X194519571Y-17494285D01*
X194519571Y-17570476D01*
X194481476Y-17646666D01*
X194443380Y-17684761D01*
X194367190Y-17722857D01*
X194100523Y-17722857D01*
X194824333Y-17341904D02*
X195319571Y-17341904D01*
X195052904Y-17646666D01*
X195167190Y-17646666D01*
X195243380Y-17684761D01*
X195281476Y-17722857D01*
X195319571Y-17799047D01*
X195319571Y-17989523D01*
X195281476Y-18065714D01*
X195243380Y-18103809D01*
X195167190Y-18141904D01*
X194938619Y-18141904D01*
X194862428Y-18103809D01*
X194824333Y-18065714D01*
X194367190Y-15182857D02*
X194481476Y-15220952D01*
X194519571Y-15259047D01*
X194557666Y-15335238D01*
X194557666Y-15449523D01*
X194519571Y-15525714D01*
X194481476Y-15563809D01*
X194405285Y-15601904D01*
X194100523Y-15601904D01*
X194100523Y-14801904D01*
X194367190Y-14801904D01*
X194443380Y-14840000D01*
X194481476Y-14878095D01*
X194519571Y-14954285D01*
X194519571Y-15030476D01*
X194481476Y-15106666D01*
X194443380Y-15144761D01*
X194367190Y-15182857D01*
X194100523Y-15182857D01*
X195319571Y-15601904D02*
X194862428Y-15601904D01*
X195091000Y-15601904D02*
X195091000Y-14801904D01*
X195014809Y-14916190D01*
X194938619Y-14992380D01*
X194862428Y-15030476D01*
X194424333Y-5022857D02*
X194157666Y-5022857D01*
X194157666Y-5441904D02*
X194157666Y-4641904D01*
X194538619Y-4641904D01*
X195186238Y-4908571D02*
X195186238Y-5441904D01*
X194995761Y-4603809D02*
X194805285Y-5175238D01*
X195300523Y-5175238D01*
X193624333Y-2101904D02*
X193891000Y-2901904D01*
X194157666Y-2101904D01*
X194881476Y-2825714D02*
X194843380Y-2863809D01*
X194729095Y-2901904D01*
X194652904Y-2901904D01*
X194538619Y-2863809D01*
X194462428Y-2787619D01*
X194424333Y-2711428D01*
X194386238Y-2559047D01*
X194386238Y-2444761D01*
X194424333Y-2292380D01*
X194462428Y-2216190D01*
X194538619Y-2140000D01*
X194652904Y-2101904D01*
X194729095Y-2101904D01*
X194843380Y-2140000D01*
X194881476Y-2178095D01*
X195681476Y-2825714D02*
X195643380Y-2863809D01*
X195529095Y-2901904D01*
X195452904Y-2901904D01*
X195338619Y-2863809D01*
X195262428Y-2787619D01*
X195224333Y-2711428D01*
X195186238Y-2559047D01*
X195186238Y-2444761D01*
X195224333Y-2292380D01*
X195262428Y-2216190D01*
X195338619Y-2140000D01*
X195452904Y-2101904D01*
X195529095Y-2101904D01*
X195643380Y-2140000D01*
X195681476Y-2178095D01*
X194429786Y-293809D02*
X194544072Y-331904D01*
X194734548Y-331904D01*
X194810739Y-293809D01*
X194848834Y-255714D01*
X194886929Y-179523D01*
X194886929Y-103333D01*
X194848834Y-27142D01*
X194810739Y10952D01*
X194734548Y49047D01*
X194582167Y87142D01*
X194505977Y125238D01*
X194467881Y163333D01*
X194429786Y239523D01*
X194429786Y315714D01*
X194467881Y391904D01*
X194505977Y430000D01*
X194582167Y468095D01*
X194772643Y468095D01*
X194886929Y430000D01*
X195115500Y468095D02*
X195572643Y468095D01*
X195344072Y-331904D02*
X195344072Y468095D01*
X194081476Y2940000D02*
X194005285Y2978095D01*
X193891000Y2978095D01*
X193776714Y2940000D01*
X193700523Y2863809D01*
X193662428Y2787619D01*
X193624333Y2635238D01*
X193624333Y2520952D01*
X193662428Y2368571D01*
X193700523Y2292380D01*
X193776714Y2216190D01*
X193891000Y2178095D01*
X193967190Y2178095D01*
X194081476Y2216190D01*
X194119571Y2254285D01*
X194119571Y2520952D01*
X193967190Y2520952D01*
X194462428Y2178095D02*
X194462428Y2978095D01*
X194919571Y2178095D01*
X194919571Y2978095D01*
X195300523Y2178095D02*
X195300523Y2978095D01*
X195491000Y2978095D01*
X195605285Y2940000D01*
X195681476Y2863809D01*
X195719571Y2787619D01*
X195757666Y2635238D01*
X195757666Y2520952D01*
X195719571Y2368571D01*
X195681476Y2292380D01*
X195605285Y2216190D01*
X195491000Y2178095D01*
X195300523Y2178095D01*
X194138619Y4718095D02*
X193871952Y5099047D01*
X193681476Y4718095D02*
X193681476Y5518095D01*
X193986238Y5518095D01*
X194062428Y5480000D01*
X194100523Y5441904D01*
X194138619Y5365714D01*
X194138619Y5251428D01*
X194100523Y5175238D01*
X194062428Y5137142D01*
X193986238Y5099047D01*
X193681476Y5099047D01*
X194443380Y4946666D02*
X194824333Y4946666D01*
X194367190Y4718095D02*
X194633857Y5518095D01*
X194900523Y4718095D01*
X195091000Y5518095D02*
X195281476Y4718095D01*
X195433857Y5289523D01*
X195586238Y4718095D01*
X195776714Y5518095D01*
X194424333Y-7562857D02*
X194157666Y-7562857D01*
X194157666Y-7981904D02*
X194157666Y-7181904D01*
X194538619Y-7181904D01*
X195224333Y-7181904D02*
X194843380Y-7181904D01*
X194805285Y-7562857D01*
X194843380Y-7524761D01*
X194919571Y-7486666D01*
X195110047Y-7486666D01*
X195186238Y-7524761D01*
X195224333Y-7562857D01*
X195262428Y-7639047D01*
X195262428Y-7829523D01*
X195224333Y-7905714D01*
X195186238Y-7943809D01*
X195110047Y-7981904D01*
X194919571Y-7981904D01*
X194843380Y-7943809D01*
X194805285Y-7905714D01*
X194424333Y-10102857D02*
X194157666Y-10102857D01*
X194157666Y-10521904D02*
X194157666Y-9721904D01*
X194538619Y-9721904D01*
X195186238Y-9721904D02*
X195033857Y-9721904D01*
X194957666Y-9760000D01*
X194919571Y-9798095D01*
X194843380Y-9912380D01*
X194805285Y-10064761D01*
X194805285Y-10369523D01*
X194843380Y-10445714D01*
X194881476Y-10483809D01*
X194957666Y-10521904D01*
X195110047Y-10521904D01*
X195186238Y-10483809D01*
X195224333Y-10445714D01*
X195262428Y-10369523D01*
X195262428Y-10179047D01*
X195224333Y-10102857D01*
X195186238Y-10064761D01*
X195110047Y-10026666D01*
X194957666Y-10026666D01*
X194881476Y-10064761D01*
X194843380Y-10102857D01*
X194805285Y-10179047D01*
X194424333Y-12642857D02*
X194157666Y-12642857D01*
X194157666Y-13061904D02*
X194157666Y-12261904D01*
X194538619Y-12261904D01*
X194767190Y-12261904D02*
X195300523Y-12261904D01*
X194957666Y-13061904D01*
X194367190Y-20262857D02*
X194481476Y-20300952D01*
X194519571Y-20339047D01*
X194557666Y-20415238D01*
X194557666Y-20529523D01*
X194519571Y-20605714D01*
X194481476Y-20643809D01*
X194405285Y-20681904D01*
X194100523Y-20681904D01*
X194100523Y-19881904D01*
X194367190Y-19881904D01*
X194443380Y-19920000D01*
X194481476Y-19958095D01*
X194519571Y-20034285D01*
X194519571Y-20110476D01*
X194481476Y-20186666D01*
X194443380Y-20224761D01*
X194367190Y-20262857D01*
X194100523Y-20262857D01*
X194862428Y-19958095D02*
X194900523Y-19920000D01*
X194976714Y-19881904D01*
X195167190Y-19881904D01*
X195243380Y-19920000D01*
X195281476Y-19958095D01*
X195319571Y-20034285D01*
X195319571Y-20110476D01*
X195281476Y-20224761D01*
X194824333Y-20681904D01*
X195319571Y-20681904D01*
X156904761Y5547619D02*
X157095238Y5547619D01*
X157190476Y5500000D01*
X157285714Y5404761D01*
X157333333Y5214285D01*
X157333333Y4880952D01*
X157285714Y4690476D01*
X157190476Y4595238D01*
X157095238Y4547619D01*
X156904761Y4547619D01*
X156809523Y4595238D01*
X156714285Y4690476D01*
X156666666Y4880952D01*
X156666666Y5214285D01*
X156714285Y5404761D01*
X156809523Y5500000D01*
X156904761Y5547619D01*
X138000000Y4547619D02*
X138000000Y5547619D01*
X118714285Y5547619D02*
X118714285Y4738095D01*
X118761904Y4642857D01*
X118809523Y4595238D01*
X118904761Y4547619D01*
X119095238Y4547619D01*
X119190476Y4595238D01*
X119238095Y4642857D01*
X119285714Y4738095D01*
X119285714Y5547619D01*
X100000000Y5023809D02*
X100000000Y4547619D01*
X99666666Y5547619D02*
X100000000Y5023809D01*
X100333333Y5547619D01*
X80714285Y5547619D02*
X81285714Y5547619D01*
X81000000Y4547619D02*
X81000000Y5547619D01*
X62309523Y4547619D02*
X61976190Y5023809D01*
X61738095Y4547619D02*
X61738095Y5547619D01*
X62119047Y5547619D01*
X62214285Y5500000D01*
X62261904Y5452380D01*
X62309523Y5357142D01*
X62309523Y5214285D01*
X62261904Y5119047D01*
X62214285Y5071428D01*
X62119047Y5023809D01*
X61738095Y5023809D01*
X175047619Y-32928571D02*
X175380952Y-32928571D01*
X175523809Y-33452380D02*
X175047619Y-33452380D01*
X175047619Y-32452380D01*
X175523809Y-32452380D01*
X175952380Y-32785714D02*
X175952380Y-33452380D01*
X175952380Y-32880952D02*
X176000000Y-32833333D01*
X176095238Y-32785714D01*
X176238095Y-32785714D01*
X176333333Y-32833333D01*
X176380952Y-32928571D01*
X176380952Y-33452380D01*
X176714285Y-32785714D02*
X177095238Y-32785714D01*
X176857142Y-32452380D02*
X176857142Y-33309523D01*
X176904761Y-33404761D01*
X177000000Y-33452380D01*
X177095238Y-33452380D01*
X42785714Y5071428D02*
X43119047Y5071428D01*
X43261904Y4547619D02*
X42785714Y4547619D01*
X42785714Y5547619D01*
X43261904Y5547619D01*
X156666666Y-33452380D02*
X156666666Y-32452380D01*
X157000000Y-33166666D01*
X157333333Y-32452380D01*
X157333333Y-33452380D01*
X137714285Y-33452380D02*
X137714285Y-32452380D01*
X138285714Y-33452380D01*
X138285714Y-32452380D01*
X119071428Y-32928571D02*
X119214285Y-32976190D01*
X119261904Y-33023809D01*
X119309523Y-33119047D01*
X119309523Y-33261904D01*
X119261904Y-33357142D01*
X119214285Y-33404761D01*
X119119047Y-33452380D01*
X118738095Y-33452380D01*
X118738095Y-32452380D01*
X119071428Y-32452380D01*
X119166666Y-32500000D01*
X119214285Y-32547619D01*
X119261904Y-32642857D01*
X119261904Y-32738095D01*
X119214285Y-32833333D01*
X119166666Y-32880952D01*
X119071428Y-32928571D01*
X118738095Y-32928571D01*
X98833333Y-33404761D02*
X98976190Y-33452380D01*
X99214285Y-33452380D01*
X99309523Y-33404761D01*
X99357142Y-33357142D01*
X99404761Y-33261904D01*
X99404761Y-33166666D01*
X99357142Y-33071428D01*
X99309523Y-33023809D01*
X99214285Y-32976190D01*
X99023809Y-32928571D01*
X98928571Y-32880952D01*
X98880952Y-32833333D01*
X98833333Y-32738095D01*
X98833333Y-32642857D01*
X98880952Y-32547619D01*
X98928571Y-32500000D01*
X99023809Y-32452380D01*
X99261904Y-32452380D01*
X99404761Y-32500000D01*
X99833333Y-32785714D02*
X99833333Y-33785714D01*
X99833333Y-32833333D02*
X99928571Y-32785714D01*
X100119047Y-32785714D01*
X100214285Y-32833333D01*
X100261904Y-32880952D01*
X100309523Y-32976190D01*
X100309523Y-33261904D01*
X100261904Y-33357142D01*
X100214285Y-33404761D01*
X100119047Y-33452380D01*
X99928571Y-33452380D01*
X99833333Y-33404761D01*
X101166666Y-33404761D02*
X101071428Y-33452380D01*
X100880952Y-33452380D01*
X100785714Y-33404761D01*
X100738095Y-33357142D01*
X100690476Y-33261904D01*
X100690476Y-32976190D01*
X100738095Y-32880952D01*
X100785714Y-32833333D01*
X100880952Y-32785714D01*
X101071428Y-32785714D01*
X101166666Y-32833333D01*
X80666666Y-32928571D02*
X80809523Y-32976190D01*
X80857142Y-33023809D01*
X80904761Y-33119047D01*
X80904761Y-33261904D01*
X80857142Y-33357142D01*
X80809523Y-33404761D01*
X80714285Y-33452380D01*
X80333333Y-33452380D01*
X80333333Y-32452380D01*
X80666666Y-32452380D01*
X80761904Y-32500000D01*
X80809523Y-32547619D01*
X80857142Y-32642857D01*
X80857142Y-32738095D01*
X80809523Y-32833333D01*
X80761904Y-32880952D01*
X80666666Y-32928571D01*
X80333333Y-32928571D01*
X81285714Y-33404761D02*
X81380952Y-33452380D01*
X81571428Y-33452380D01*
X81666666Y-33404761D01*
X81714285Y-33309523D01*
X81714285Y-33261904D01*
X81666666Y-33166666D01*
X81571428Y-33119047D01*
X81428571Y-33119047D01*
X81333333Y-33071428D01*
X81285714Y-32976190D01*
X81285714Y-32928571D01*
X81333333Y-32833333D01*
X81428571Y-32785714D01*
X81571428Y-32785714D01*
X81666666Y-32833333D01*
X61666666Y-32452380D02*
X62000000Y-33452380D01*
X62333333Y-32452380D01*
X43309523Y-33357142D02*
X43261904Y-33404761D01*
X43119047Y-33452380D01*
X43023809Y-33452380D01*
X42880952Y-33404761D01*
X42785714Y-33309523D01*
X42738095Y-33214285D01*
X42690476Y-33023809D01*
X42690476Y-32880952D01*
X42738095Y-32690476D01*
X42785714Y-32595238D01*
X42880952Y-32500000D01*
X43023809Y-32452380D01*
X43119047Y-32452380D01*
X43261904Y-32500000D01*
X43309523Y-32547619D01*
X23666666Y-32452380D02*
X24333333Y-33452380D01*
X24333333Y-32452380D02*
X23666666Y-33452380D01*
X4666666Y-32452380D02*
X5333333Y-32452380D01*
X4666666Y-33452380D01*
X5333333Y-33452380D01*
X174952380Y-13928571D02*
X175285714Y-13928571D01*
X175428571Y-14452380D02*
X174952380Y-14452380D01*
X174952380Y-13452380D01*
X175428571Y-13452380D01*
X175809523Y-14404761D02*
X175904761Y-14452380D01*
X176095238Y-14452380D01*
X176190476Y-14404761D01*
X176238095Y-14309523D01*
X176238095Y-14261904D01*
X176190476Y-14166666D01*
X176095238Y-14119047D01*
X175952380Y-14119047D01*
X175857142Y-14071428D01*
X175809523Y-13976190D01*
X175809523Y-13928571D01*
X175857142Y-13833333D01*
X175952380Y-13785714D01*
X176095238Y-13785714D01*
X176190476Y-13833333D01*
X177095238Y-14404761D02*
X177000000Y-14452380D01*
X176809523Y-14452380D01*
X176714285Y-14404761D01*
X176666666Y-14357142D01*
X176619047Y-14261904D01*
X176619047Y-13976190D01*
X176666666Y-13880952D01*
X176714285Y-13833333D01*
X176809523Y-13785714D01*
X177000000Y-13785714D01*
X177095238Y-13833333D01*
X23571428Y5547619D02*
X23809523Y4547619D01*
X24000000Y5261904D01*
X24190476Y4547619D01*
X24428571Y5547619D01*
X157309523Y-14452380D02*
X156833333Y-14452380D01*
X156833333Y-13452380D01*
X137738095Y-14452380D02*
X137738095Y-13452380D01*
X138309523Y-14452380D02*
X137880952Y-13880952D01*
X138309523Y-13452380D02*
X137738095Y-14023809D01*
X119142857Y-13452380D02*
X119142857Y-14166666D01*
X119095238Y-14309523D01*
X119000000Y-14404761D01*
X118857142Y-14452380D01*
X118761904Y-14452380D01*
X99714285Y-14452380D02*
X99714285Y-13452380D01*
X99714285Y-13928571D02*
X100285714Y-13928571D01*
X100285714Y-14452380D02*
X100285714Y-13452380D01*
X81261904Y-13500000D02*
X81166666Y-13452380D01*
X81023809Y-13452380D01*
X80880952Y-13500000D01*
X80785714Y-13595238D01*
X80738095Y-13690476D01*
X80690476Y-13880952D01*
X80690476Y-14023809D01*
X80738095Y-14214285D01*
X80785714Y-14309523D01*
X80880952Y-14404761D01*
X81023809Y-14452380D01*
X81119047Y-14452380D01*
X81261904Y-14404761D01*
X81309523Y-14357142D01*
X81309523Y-14023809D01*
X81119047Y-14023809D01*
X62142857Y-13928571D02*
X61809523Y-13928571D01*
X61809523Y-14452380D02*
X61809523Y-13452380D01*
X62285714Y-13452380D01*
X42738095Y-14452380D02*
X42738095Y-13452380D01*
X42976190Y-13452380D01*
X43119047Y-13500000D01*
X43214285Y-13595238D01*
X43261904Y-13690476D01*
X43309523Y-13880952D01*
X43309523Y-14023809D01*
X43261904Y-14214285D01*
X43214285Y-14309523D01*
X43119047Y-14404761D01*
X42976190Y-14452380D01*
X42738095Y-14452380D01*
X23714285Y-14404761D02*
X23857142Y-14452380D01*
X24095238Y-14452380D01*
X24190476Y-14404761D01*
X24238095Y-14357142D01*
X24285714Y-14261904D01*
X24285714Y-14166666D01*
X24238095Y-14071428D01*
X24190476Y-14023809D01*
X24095238Y-13976190D01*
X23904761Y-13928571D01*
X23809523Y-13880952D01*
X23761904Y-13833333D01*
X23714285Y-13738095D01*
X23714285Y-13642857D01*
X23761904Y-13547619D01*
X23809523Y-13500000D01*
X23904761Y-13452380D01*
X24142857Y-13452380D01*
X24285714Y-13500000D01*
X4761904Y-14166666D02*
X5238095Y-14166666D01*
X4666666Y-14452380D02*
X5000000Y-13452380D01*
X5333333Y-14452380D01*
X175738095Y4547619D02*
X175738095Y5547619D01*
X176119047Y5547619D01*
X176214285Y5500000D01*
X176261904Y5452380D01*
X176309523Y5357142D01*
X176309523Y5214285D01*
X176261904Y5119047D01*
X176214285Y5071428D01*
X176119047Y5023809D01*
X175738095Y5023809D01*
X5380952Y4452380D02*
X5285714Y4500000D01*
X5190476Y4595238D01*
X5047619Y4738095D01*
X4952380Y4785714D01*
X4857142Y4785714D01*
X4904761Y4547619D02*
X4809523Y4595238D01*
X4714285Y4690476D01*
X4666666Y4880952D01*
X4666666Y5214285D01*
X4714285Y5404761D01*
X4809523Y5500000D01*
X4904761Y5547619D01*
X5095238Y5547619D01*
X5190476Y5500000D01*
X5285714Y5404761D01*
X5333333Y5214285D01*
X5333333Y4880952D01*
X5285714Y4690476D01*
X5190476Y4595238D01*
X5095238Y4547619D01*
X4904761Y4547619D01*
M02*
