G04 #@! TF.GenerationSoftware,KiCad,Pcbnew,5.1.5-52549c5~84~ubuntu19.10.1*
G04 #@! TF.CreationDate,2020-02-17T22:45:33-08:00*
G04 #@! TF.ProjectId,keycad,6b657963-6164-42e6-9b69-6361645f7063,rev?*
G04 #@! TF.SameCoordinates,Original*
G04 #@! TF.FileFunction,Legend,Bot*
G04 #@! TF.FilePolarity,Positive*
%FSLAX46Y46*%
G04 Gerber Fmt 4.6, Leading zero omitted, Abs format (unit mm)*
G04 Created by KiCad (PCBNEW 5.1.5-52549c5~84~ubuntu19.10.1) date 2020-02-17 22:45:33*
%MOMM*%
%LPD*%
G04 APERTURE LIST*
%ADD10C,0.381000*%
%ADD11C,0.150000*%
%ADD12C,0.120000*%
%ADD13C,0.200000*%
G04 APERTURE END LIST*
D10*
X182880000Y6350000D02*
X180340000Y6350000D01*
X198120000Y8890000D02*
X180340000Y8890000D01*
X180340000Y8890000D02*
X180340000Y-24130000D01*
X180340000Y-24130000D02*
X198120000Y-24130000D01*
X198120000Y-24130000D02*
X198120000Y8890000D01*
D11*
G36*
X195074635Y460970D02*
G01*
X195074635Y360970D01*
X195574635Y360970D01*
X195574635Y460970D01*
X195074635Y460970D01*
G37*
X195074635Y460970D02*
X195074635Y360970D01*
X195574635Y360970D01*
X195574635Y460970D01*
X195074635Y460970D01*
G36*
X195074635Y460970D02*
G01*
X195074635Y160970D01*
X195174635Y160970D01*
X195174635Y460970D01*
X195074635Y460970D01*
G37*
X195074635Y460970D02*
X195074635Y160970D01*
X195174635Y160970D01*
X195174635Y460970D01*
X195074635Y460970D01*
G36*
X195074635Y-139030D02*
G01*
X195074635Y-339030D01*
X195174635Y-339030D01*
X195174635Y-139030D01*
X195074635Y-139030D01*
G37*
X195074635Y-139030D02*
X195074635Y-339030D01*
X195174635Y-339030D01*
X195174635Y-139030D01*
X195074635Y-139030D01*
G36*
X195474635Y460970D02*
G01*
X195474635Y-339030D01*
X195574635Y-339030D01*
X195574635Y460970D01*
X195474635Y460970D01*
G37*
X195474635Y460970D02*
X195474635Y-339030D01*
X195574635Y-339030D01*
X195574635Y460970D01*
X195474635Y460970D01*
G36*
X195274635Y60970D02*
G01*
X195274635Y-39030D01*
X195374635Y-39030D01*
X195374635Y60970D01*
X195274635Y60970D01*
G37*
X195274635Y60970D02*
X195274635Y-39030D01*
X195374635Y-39030D01*
X195374635Y60970D01*
X195274635Y60970D01*
D10*
X182880000Y6350000D02*
X182880000Y3810000D01*
X182880000Y3810000D02*
X180340000Y3810000D01*
D12*
X186510000Y-34520000D02*
X186510000Y-36600000D01*
X190680000Y-38280000D02*
X191170000Y-37790000D01*
X191950000Y-34520000D02*
X191950000Y-36600000D01*
X187780000Y-38280000D02*
X187290000Y-37790000D01*
X187780000Y-38280000D02*
X190680000Y-38280000D01*
X187780000Y-32840000D02*
X187290000Y-33330000D01*
X187780000Y-32840000D02*
X190680000Y-32840000D01*
X190680000Y-32840000D02*
X191170000Y-33330000D01*
X152700000Y3362500D02*
X152700000Y6162500D01*
X151300000Y3362500D02*
X151300000Y6162500D01*
X153600000Y6162500D02*
X153600000Y3362500D01*
X150400000Y6162500D02*
X153600000Y6162500D01*
X150400000Y3362500D02*
X150400000Y6162500D01*
X153600000Y3362500D02*
X150400000Y3362500D01*
X150400000Y5362500D02*
X151200000Y6162500D01*
X152400000Y4762500D02*
G75*
G03X152400000Y4762500I-400000J0D01*
G01*
X150000000Y6062500D02*
X150400000Y6462500D01*
X150400000Y6462500D02*
X150000000Y6462500D01*
X150000000Y6462500D02*
X150000000Y6062500D01*
X133700000Y3362500D02*
X133700000Y6162500D01*
X132300000Y3362500D02*
X132300000Y6162500D01*
X134600000Y6162500D02*
X134600000Y3362500D01*
X131400000Y6162500D02*
X134600000Y6162500D01*
X131400000Y3362500D02*
X131400000Y6162500D01*
X134600000Y3362500D02*
X131400000Y3362500D01*
X131400000Y5362500D02*
X132200000Y6162500D01*
X133400000Y4762500D02*
G75*
G03X133400000Y4762500I-400000J0D01*
G01*
X131000000Y6062500D02*
X131400000Y6462500D01*
X131400000Y6462500D02*
X131000000Y6462500D01*
X131000000Y6462500D02*
X131000000Y6062500D01*
X114700000Y3362500D02*
X114700000Y6162500D01*
X113300000Y3362500D02*
X113300000Y6162500D01*
X115600000Y6162500D02*
X115600000Y3362500D01*
X112400000Y6162500D02*
X115600000Y6162500D01*
X112400000Y3362500D02*
X112400000Y6162500D01*
X115600000Y3362500D02*
X112400000Y3362500D01*
X112400000Y5362500D02*
X113200000Y6162500D01*
X114400000Y4762500D02*
G75*
G03X114400000Y4762500I-400000J0D01*
G01*
X112000000Y6062500D02*
X112400000Y6462500D01*
X112400000Y6462500D02*
X112000000Y6462500D01*
X112000000Y6462500D02*
X112000000Y6062500D01*
X95700000Y3362500D02*
X95700000Y6162500D01*
X94300000Y3362500D02*
X94300000Y6162500D01*
X96600000Y6162500D02*
X96600000Y3362500D01*
X93400000Y6162500D02*
X96600000Y6162500D01*
X93400000Y3362500D02*
X93400000Y6162500D01*
X96600000Y3362500D02*
X93400000Y3362500D01*
X93400000Y5362500D02*
X94200000Y6162500D01*
X95400000Y4762500D02*
G75*
G03X95400000Y4762500I-400000J0D01*
G01*
X93000000Y6062500D02*
X93400000Y6462500D01*
X93400000Y6462500D02*
X93000000Y6462500D01*
X93000000Y6462500D02*
X93000000Y6062500D01*
X76700000Y3362500D02*
X76700000Y6162500D01*
X75300000Y3362500D02*
X75300000Y6162500D01*
X77600000Y6162500D02*
X77600000Y3362500D01*
X74400000Y6162500D02*
X77600000Y6162500D01*
X74400000Y3362500D02*
X74400000Y6162500D01*
X77600000Y3362500D02*
X74400000Y3362500D01*
X74400000Y5362500D02*
X75200000Y6162500D01*
X76400000Y4762500D02*
G75*
G03X76400000Y4762500I-400000J0D01*
G01*
X74000000Y6062500D02*
X74400000Y6462500D01*
X74400000Y6462500D02*
X74000000Y6462500D01*
X74000000Y6462500D02*
X74000000Y6062500D01*
X57700000Y3362500D02*
X57700000Y6162500D01*
X56300000Y3362500D02*
X56300000Y6162500D01*
X58600000Y6162500D02*
X58600000Y3362500D01*
X55400000Y6162500D02*
X58600000Y6162500D01*
X55400000Y3362500D02*
X55400000Y6162500D01*
X58600000Y3362500D02*
X55400000Y3362500D01*
X55400000Y5362500D02*
X56200000Y6162500D01*
X57400000Y4762500D02*
G75*
G03X57400000Y4762500I-400000J0D01*
G01*
X55000000Y6062500D02*
X55400000Y6462500D01*
X55400000Y6462500D02*
X55000000Y6462500D01*
X55000000Y6462500D02*
X55000000Y6062500D01*
X171700000Y-34637500D02*
X171700000Y-31837500D01*
X170300000Y-34637500D02*
X170300000Y-31837500D01*
X172600000Y-31837500D02*
X172600000Y-34637500D01*
X169400000Y-31837500D02*
X172600000Y-31837500D01*
X169400000Y-34637500D02*
X169400000Y-31837500D01*
X172600000Y-34637500D02*
X169400000Y-34637500D01*
X169400000Y-32637500D02*
X170200000Y-31837500D01*
X171400000Y-33237500D02*
G75*
G03X171400000Y-33237500I-400000J0D01*
G01*
X169000000Y-31937500D02*
X169400000Y-31537500D01*
X169400000Y-31537500D02*
X169000000Y-31537500D01*
X169000000Y-31537500D02*
X169000000Y-31937500D01*
X38700000Y3362500D02*
X38700000Y6162500D01*
X37300000Y3362500D02*
X37300000Y6162500D01*
X39600000Y6162500D02*
X39600000Y3362500D01*
X36400000Y6162500D02*
X39600000Y6162500D01*
X36400000Y3362500D02*
X36400000Y6162500D01*
X39600000Y3362500D02*
X36400000Y3362500D01*
X36400000Y5362500D02*
X37200000Y6162500D01*
X38400000Y4762500D02*
G75*
G03X38400000Y4762500I-400000J0D01*
G01*
X36000000Y6062500D02*
X36400000Y6462500D01*
X36400000Y6462500D02*
X36000000Y6462500D01*
X36000000Y6462500D02*
X36000000Y6062500D01*
X152700000Y-34637500D02*
X152700000Y-31837500D01*
X151300000Y-34637500D02*
X151300000Y-31837500D01*
X153600000Y-31837500D02*
X153600000Y-34637500D01*
X150400000Y-31837500D02*
X153600000Y-31837500D01*
X150400000Y-34637500D02*
X150400000Y-31837500D01*
X153600000Y-34637500D02*
X150400000Y-34637500D01*
X150400000Y-32637500D02*
X151200000Y-31837500D01*
X152400000Y-33237500D02*
G75*
G03X152400000Y-33237500I-400000J0D01*
G01*
X150000000Y-31937500D02*
X150400000Y-31537500D01*
X150400000Y-31537500D02*
X150000000Y-31537500D01*
X150000000Y-31537500D02*
X150000000Y-31937500D01*
X133700000Y-34637500D02*
X133700000Y-31837500D01*
X132300000Y-34637500D02*
X132300000Y-31837500D01*
X134600000Y-31837500D02*
X134600000Y-34637500D01*
X131400000Y-31837500D02*
X134600000Y-31837500D01*
X131400000Y-34637500D02*
X131400000Y-31837500D01*
X134600000Y-34637500D02*
X131400000Y-34637500D01*
X131400000Y-32637500D02*
X132200000Y-31837500D01*
X133400000Y-33237500D02*
G75*
G03X133400000Y-33237500I-400000J0D01*
G01*
X131000000Y-31937500D02*
X131400000Y-31537500D01*
X131400000Y-31537500D02*
X131000000Y-31537500D01*
X131000000Y-31537500D02*
X131000000Y-31937500D01*
X114700000Y-34637500D02*
X114700000Y-31837500D01*
X113300000Y-34637500D02*
X113300000Y-31837500D01*
X115600000Y-31837500D02*
X115600000Y-34637500D01*
X112400000Y-31837500D02*
X115600000Y-31837500D01*
X112400000Y-34637500D02*
X112400000Y-31837500D01*
X115600000Y-34637500D02*
X112400000Y-34637500D01*
X112400000Y-32637500D02*
X113200000Y-31837500D01*
X114400000Y-33237500D02*
G75*
G03X114400000Y-33237500I-400000J0D01*
G01*
X112000000Y-31937500D02*
X112400000Y-31537500D01*
X112400000Y-31537500D02*
X112000000Y-31537500D01*
X112000000Y-31537500D02*
X112000000Y-31937500D01*
X95700000Y-34637500D02*
X95700000Y-31837500D01*
X94300000Y-34637500D02*
X94300000Y-31837500D01*
X96600000Y-31837500D02*
X96600000Y-34637500D01*
X93400000Y-31837500D02*
X96600000Y-31837500D01*
X93400000Y-34637500D02*
X93400000Y-31837500D01*
X96600000Y-34637500D02*
X93400000Y-34637500D01*
X93400000Y-32637500D02*
X94200000Y-31837500D01*
X95400000Y-33237500D02*
G75*
G03X95400000Y-33237500I-400000J0D01*
G01*
X93000000Y-31937500D02*
X93400000Y-31537500D01*
X93400000Y-31537500D02*
X93000000Y-31537500D01*
X93000000Y-31537500D02*
X93000000Y-31937500D01*
X76700000Y-34637500D02*
X76700000Y-31837500D01*
X75300000Y-34637500D02*
X75300000Y-31837500D01*
X77600000Y-31837500D02*
X77600000Y-34637500D01*
X74400000Y-31837500D02*
X77600000Y-31837500D01*
X74400000Y-34637500D02*
X74400000Y-31837500D01*
X77600000Y-34637500D02*
X74400000Y-34637500D01*
X74400000Y-32637500D02*
X75200000Y-31837500D01*
X76400000Y-33237500D02*
G75*
G03X76400000Y-33237500I-400000J0D01*
G01*
X74000000Y-31937500D02*
X74400000Y-31537500D01*
X74400000Y-31537500D02*
X74000000Y-31537500D01*
X74000000Y-31537500D02*
X74000000Y-31937500D01*
X57700000Y-34637500D02*
X57700000Y-31837500D01*
X56300000Y-34637500D02*
X56300000Y-31837500D01*
X58600000Y-31837500D02*
X58600000Y-34637500D01*
X55400000Y-31837500D02*
X58600000Y-31837500D01*
X55400000Y-34637500D02*
X55400000Y-31837500D01*
X58600000Y-34637500D02*
X55400000Y-34637500D01*
X55400000Y-32637500D02*
X56200000Y-31837500D01*
X57400000Y-33237500D02*
G75*
G03X57400000Y-33237500I-400000J0D01*
G01*
X55000000Y-31937500D02*
X55400000Y-31537500D01*
X55400000Y-31537500D02*
X55000000Y-31537500D01*
X55000000Y-31537500D02*
X55000000Y-31937500D01*
X38700000Y-34637500D02*
X38700000Y-31837500D01*
X37300000Y-34637500D02*
X37300000Y-31837500D01*
X39600000Y-31837500D02*
X39600000Y-34637500D01*
X36400000Y-31837500D02*
X39600000Y-31837500D01*
X36400000Y-34637500D02*
X36400000Y-31837500D01*
X39600000Y-34637500D02*
X36400000Y-34637500D01*
X36400000Y-32637500D02*
X37200000Y-31837500D01*
X38400000Y-33237500D02*
G75*
G03X38400000Y-33237500I-400000J0D01*
G01*
X36000000Y-31937500D02*
X36400000Y-31537500D01*
X36400000Y-31537500D02*
X36000000Y-31537500D01*
X36000000Y-31537500D02*
X36000000Y-31937500D01*
X19700000Y-34637500D02*
X19700000Y-31837500D01*
X18300000Y-34637500D02*
X18300000Y-31837500D01*
X20600000Y-31837500D02*
X20600000Y-34637500D01*
X17400000Y-31837500D02*
X20600000Y-31837500D01*
X17400000Y-34637500D02*
X17400000Y-31837500D01*
X20600000Y-34637500D02*
X17400000Y-34637500D01*
X17400000Y-32637500D02*
X18200000Y-31837500D01*
X19400000Y-33237500D02*
G75*
G03X19400000Y-33237500I-400000J0D01*
G01*
X17000000Y-31937500D02*
X17400000Y-31537500D01*
X17400000Y-31537500D02*
X17000000Y-31537500D01*
X17000000Y-31537500D02*
X17000000Y-31937500D01*
X700000Y-34637500D02*
X700000Y-31837500D01*
X-700000Y-34637500D02*
X-700000Y-31837500D01*
X1600000Y-31837500D02*
X1600000Y-34637500D01*
X-1600000Y-31837500D02*
X1600000Y-31837500D01*
X-1600000Y-34637500D02*
X-1600000Y-31837500D01*
X1600000Y-34637500D02*
X-1600000Y-34637500D01*
X-1600000Y-32637500D02*
X-800000Y-31837500D01*
X400000Y-33237500D02*
G75*
G03X400000Y-33237500I-400000J0D01*
G01*
X-2000000Y-31937500D02*
X-1600000Y-31537500D01*
X-1600000Y-31537500D02*
X-2000000Y-31537500D01*
X-2000000Y-31537500D02*
X-2000000Y-31937500D01*
X171700000Y-15637500D02*
X171700000Y-12837500D01*
X170300000Y-15637500D02*
X170300000Y-12837500D01*
X172600000Y-12837500D02*
X172600000Y-15637500D01*
X169400000Y-12837500D02*
X172600000Y-12837500D01*
X169400000Y-15637500D02*
X169400000Y-12837500D01*
X172600000Y-15637500D02*
X169400000Y-15637500D01*
X169400000Y-13637500D02*
X170200000Y-12837500D01*
X171400000Y-14237500D02*
G75*
G03X171400000Y-14237500I-400000J0D01*
G01*
X169000000Y-12937500D02*
X169400000Y-12537500D01*
X169400000Y-12537500D02*
X169000000Y-12537500D01*
X169000000Y-12537500D02*
X169000000Y-12937500D01*
X19700000Y3362500D02*
X19700000Y6162500D01*
X18300000Y3362500D02*
X18300000Y6162500D01*
X20600000Y6162500D02*
X20600000Y3362500D01*
X17400000Y6162500D02*
X20600000Y6162500D01*
X17400000Y3362500D02*
X17400000Y6162500D01*
X20600000Y3362500D02*
X17400000Y3362500D01*
X17400000Y5362500D02*
X18200000Y6162500D01*
X19400000Y4762500D02*
G75*
G03X19400000Y4762500I-400000J0D01*
G01*
X17000000Y6062500D02*
X17400000Y6462500D01*
X17400000Y6462500D02*
X17000000Y6462500D01*
X17000000Y6462500D02*
X17000000Y6062500D01*
X152700000Y-15637500D02*
X152700000Y-12837500D01*
X151300000Y-15637500D02*
X151300000Y-12837500D01*
X153600000Y-12837500D02*
X153600000Y-15637500D01*
X150400000Y-12837500D02*
X153600000Y-12837500D01*
X150400000Y-15637500D02*
X150400000Y-12837500D01*
X153600000Y-15637500D02*
X150400000Y-15637500D01*
X150400000Y-13637500D02*
X151200000Y-12837500D01*
X152400000Y-14237500D02*
G75*
G03X152400000Y-14237500I-400000J0D01*
G01*
X150000000Y-12937500D02*
X150400000Y-12537500D01*
X150400000Y-12537500D02*
X150000000Y-12537500D01*
X150000000Y-12537500D02*
X150000000Y-12937500D01*
X133700000Y-15637500D02*
X133700000Y-12837500D01*
X132300000Y-15637500D02*
X132300000Y-12837500D01*
X134600000Y-12837500D02*
X134600000Y-15637500D01*
X131400000Y-12837500D02*
X134600000Y-12837500D01*
X131400000Y-15637500D02*
X131400000Y-12837500D01*
X134600000Y-15637500D02*
X131400000Y-15637500D01*
X131400000Y-13637500D02*
X132200000Y-12837500D01*
X133400000Y-14237500D02*
G75*
G03X133400000Y-14237500I-400000J0D01*
G01*
X131000000Y-12937500D02*
X131400000Y-12537500D01*
X131400000Y-12537500D02*
X131000000Y-12537500D01*
X131000000Y-12537500D02*
X131000000Y-12937500D01*
X114700000Y-15637500D02*
X114700000Y-12837500D01*
X113300000Y-15637500D02*
X113300000Y-12837500D01*
X115600000Y-12837500D02*
X115600000Y-15637500D01*
X112400000Y-12837500D02*
X115600000Y-12837500D01*
X112400000Y-15637500D02*
X112400000Y-12837500D01*
X115600000Y-15637500D02*
X112400000Y-15637500D01*
X112400000Y-13637500D02*
X113200000Y-12837500D01*
X114400000Y-14237500D02*
G75*
G03X114400000Y-14237500I-400000J0D01*
G01*
X112000000Y-12937500D02*
X112400000Y-12537500D01*
X112400000Y-12537500D02*
X112000000Y-12537500D01*
X112000000Y-12537500D02*
X112000000Y-12937500D01*
X95700000Y-15637500D02*
X95700000Y-12837500D01*
X94300000Y-15637500D02*
X94300000Y-12837500D01*
X96600000Y-12837500D02*
X96600000Y-15637500D01*
X93400000Y-12837500D02*
X96600000Y-12837500D01*
X93400000Y-15637500D02*
X93400000Y-12837500D01*
X96600000Y-15637500D02*
X93400000Y-15637500D01*
X93400000Y-13637500D02*
X94200000Y-12837500D01*
X95400000Y-14237500D02*
G75*
G03X95400000Y-14237500I-400000J0D01*
G01*
X93000000Y-12937500D02*
X93400000Y-12537500D01*
X93400000Y-12537500D02*
X93000000Y-12537500D01*
X93000000Y-12537500D02*
X93000000Y-12937500D01*
X76700000Y-15637500D02*
X76700000Y-12837500D01*
X75300000Y-15637500D02*
X75300000Y-12837500D01*
X77600000Y-12837500D02*
X77600000Y-15637500D01*
X74400000Y-12837500D02*
X77600000Y-12837500D01*
X74400000Y-15637500D02*
X74400000Y-12837500D01*
X77600000Y-15637500D02*
X74400000Y-15637500D01*
X74400000Y-13637500D02*
X75200000Y-12837500D01*
X76400000Y-14237500D02*
G75*
G03X76400000Y-14237500I-400000J0D01*
G01*
X74000000Y-12937500D02*
X74400000Y-12537500D01*
X74400000Y-12537500D02*
X74000000Y-12537500D01*
X74000000Y-12537500D02*
X74000000Y-12937500D01*
X57700000Y-15637500D02*
X57700000Y-12837500D01*
X56300000Y-15637500D02*
X56300000Y-12837500D01*
X58600000Y-12837500D02*
X58600000Y-15637500D01*
X55400000Y-12837500D02*
X58600000Y-12837500D01*
X55400000Y-15637500D02*
X55400000Y-12837500D01*
X58600000Y-15637500D02*
X55400000Y-15637500D01*
X55400000Y-13637500D02*
X56200000Y-12837500D01*
X57400000Y-14237500D02*
G75*
G03X57400000Y-14237500I-400000J0D01*
G01*
X55000000Y-12937500D02*
X55400000Y-12537500D01*
X55400000Y-12537500D02*
X55000000Y-12537500D01*
X55000000Y-12537500D02*
X55000000Y-12937500D01*
X38700000Y-15637500D02*
X38700000Y-12837500D01*
X37300000Y-15637500D02*
X37300000Y-12837500D01*
X39600000Y-12837500D02*
X39600000Y-15637500D01*
X36400000Y-12837500D02*
X39600000Y-12837500D01*
X36400000Y-15637500D02*
X36400000Y-12837500D01*
X39600000Y-15637500D02*
X36400000Y-15637500D01*
X36400000Y-13637500D02*
X37200000Y-12837500D01*
X38400000Y-14237500D02*
G75*
G03X38400000Y-14237500I-400000J0D01*
G01*
X36000000Y-12937500D02*
X36400000Y-12537500D01*
X36400000Y-12537500D02*
X36000000Y-12537500D01*
X36000000Y-12537500D02*
X36000000Y-12937500D01*
X19700000Y-15637500D02*
X19700000Y-12837500D01*
X18300000Y-15637500D02*
X18300000Y-12837500D01*
X20600000Y-12837500D02*
X20600000Y-15637500D01*
X17400000Y-12837500D02*
X20600000Y-12837500D01*
X17400000Y-15637500D02*
X17400000Y-12837500D01*
X20600000Y-15637500D02*
X17400000Y-15637500D01*
X17400000Y-13637500D02*
X18200000Y-12837500D01*
X19400000Y-14237500D02*
G75*
G03X19400000Y-14237500I-400000J0D01*
G01*
X17000000Y-12937500D02*
X17400000Y-12537500D01*
X17400000Y-12537500D02*
X17000000Y-12537500D01*
X17000000Y-12537500D02*
X17000000Y-12937500D01*
X700000Y-15637500D02*
X700000Y-12837500D01*
X-700000Y-15637500D02*
X-700000Y-12837500D01*
X1600000Y-12837500D02*
X1600000Y-15637500D01*
X-1600000Y-12837500D02*
X1600000Y-12837500D01*
X-1600000Y-15637500D02*
X-1600000Y-12837500D01*
X1600000Y-15637500D02*
X-1600000Y-15637500D01*
X-1600000Y-13637500D02*
X-800000Y-12837500D01*
X400000Y-14237500D02*
G75*
G03X400000Y-14237500I-400000J0D01*
G01*
X-2000000Y-12937500D02*
X-1600000Y-12537500D01*
X-1600000Y-12537500D02*
X-2000000Y-12537500D01*
X-2000000Y-12537500D02*
X-2000000Y-12937500D01*
X171700000Y3362500D02*
X171700000Y6162500D01*
X170300000Y3362500D02*
X170300000Y6162500D01*
X172600000Y6162500D02*
X172600000Y3362500D01*
X169400000Y6162500D02*
X172600000Y6162500D01*
X169400000Y3362500D02*
X169400000Y6162500D01*
X172600000Y3362500D02*
X169400000Y3362500D01*
X169400000Y5362500D02*
X170200000Y6162500D01*
X171400000Y4762500D02*
G75*
G03X171400000Y4762500I-400000J0D01*
G01*
X169000000Y6062500D02*
X169400000Y6462500D01*
X169400000Y6462500D02*
X169000000Y6462500D01*
X169000000Y6462500D02*
X169000000Y6062500D01*
X700000Y3362500D02*
X700000Y6162500D01*
X-700000Y3362500D02*
X-700000Y6162500D01*
X1600000Y6162500D02*
X1600000Y3362500D01*
X-1600000Y6162500D02*
X1600000Y6162500D01*
X-1600000Y3362500D02*
X-1600000Y6162500D01*
X1600000Y3362500D02*
X-1600000Y3362500D01*
X-1600000Y5362500D02*
X-800000Y6162500D01*
X400000Y4762500D02*
G75*
G03X400000Y4762500I-400000J0D01*
G01*
X-2000000Y6062500D02*
X-1600000Y6462500D01*
X-1600000Y6462500D02*
X-2000000Y6462500D01*
X-2000000Y6462500D02*
X-2000000Y6062500D01*
D11*
X146920000Y-6985000D02*
X146920000Y-6604000D01*
X155810000Y-6985000D02*
X146920000Y-6985000D01*
X158350000Y-4445000D02*
X158350000Y-4064000D01*
X157969000Y-635000D02*
X158350000Y-635000D01*
X154464162Y-635000D02*
X156191000Y-635000D01*
X146920000Y-2540000D02*
X152000000Y-2540000D01*
X146920000Y-3556000D02*
X146920000Y-2540000D01*
X154464162Y-616040D02*
G75*
G02X152000000Y-2540000I-2464162J616040D01*
G01*
X158350000Y-1016000D02*
X158350000Y-635000D01*
X158350000Y-4445000D02*
G75*
G02X155810000Y-6985000I-2540000J0D01*
G01*
X127920000Y-6985000D02*
X127920000Y-6604000D01*
X136810000Y-6985000D02*
X127920000Y-6985000D01*
X139350000Y-4445000D02*
X139350000Y-4064000D01*
X138969000Y-635000D02*
X139350000Y-635000D01*
X135464162Y-635000D02*
X137191000Y-635000D01*
X127920000Y-2540000D02*
X133000000Y-2540000D01*
X127920000Y-3556000D02*
X127920000Y-2540000D01*
X135464162Y-616040D02*
G75*
G02X133000000Y-2540000I-2464162J616040D01*
G01*
X139350000Y-1016000D02*
X139350000Y-635000D01*
X139350000Y-4445000D02*
G75*
G02X136810000Y-6985000I-2540000J0D01*
G01*
X108920000Y-6985000D02*
X108920000Y-6604000D01*
X117810000Y-6985000D02*
X108920000Y-6985000D01*
X120350000Y-4445000D02*
X120350000Y-4064000D01*
X119969000Y-635000D02*
X120350000Y-635000D01*
X116464162Y-635000D02*
X118191000Y-635000D01*
X108920000Y-2540000D02*
X114000000Y-2540000D01*
X108920000Y-3556000D02*
X108920000Y-2540000D01*
X116464162Y-616040D02*
G75*
G02X114000000Y-2540000I-2464162J616040D01*
G01*
X120350000Y-1016000D02*
X120350000Y-635000D01*
X120350000Y-4445000D02*
G75*
G02X117810000Y-6985000I-2540000J0D01*
G01*
X89920000Y-6985000D02*
X89920000Y-6604000D01*
X98810000Y-6985000D02*
X89920000Y-6985000D01*
X101350000Y-4445000D02*
X101350000Y-4064000D01*
X100969000Y-635000D02*
X101350000Y-635000D01*
X97464162Y-635000D02*
X99191000Y-635000D01*
X89920000Y-2540000D02*
X95000000Y-2540000D01*
X89920000Y-3556000D02*
X89920000Y-2540000D01*
X97464162Y-616040D02*
G75*
G02X95000000Y-2540000I-2464162J616040D01*
G01*
X101350000Y-1016000D02*
X101350000Y-635000D01*
X101350000Y-4445000D02*
G75*
G02X98810000Y-6985000I-2540000J0D01*
G01*
X70920000Y-6985000D02*
X70920000Y-6604000D01*
X79810000Y-6985000D02*
X70920000Y-6985000D01*
X82350000Y-4445000D02*
X82350000Y-4064000D01*
X81969000Y-635000D02*
X82350000Y-635000D01*
X78464162Y-635000D02*
X80191000Y-635000D01*
X70920000Y-2540000D02*
X76000000Y-2540000D01*
X70920000Y-3556000D02*
X70920000Y-2540000D01*
X78464162Y-616040D02*
G75*
G02X76000000Y-2540000I-2464162J616040D01*
G01*
X82350000Y-1016000D02*
X82350000Y-635000D01*
X82350000Y-4445000D02*
G75*
G02X79810000Y-6985000I-2540000J0D01*
G01*
X51920000Y-6985000D02*
X51920000Y-6604000D01*
X60810000Y-6985000D02*
X51920000Y-6985000D01*
X63350000Y-4445000D02*
X63350000Y-4064000D01*
X62969000Y-635000D02*
X63350000Y-635000D01*
X59464162Y-635000D02*
X61191000Y-635000D01*
X51920000Y-2540000D02*
X57000000Y-2540000D01*
X51920000Y-3556000D02*
X51920000Y-2540000D01*
X59464162Y-616040D02*
G75*
G02X57000000Y-2540000I-2464162J616040D01*
G01*
X63350000Y-1016000D02*
X63350000Y-635000D01*
X63350000Y-4445000D02*
G75*
G02X60810000Y-6985000I-2540000J0D01*
G01*
X165920000Y-44985000D02*
X165920000Y-44604000D01*
X174810000Y-44985000D02*
X165920000Y-44985000D01*
X177350000Y-42445000D02*
X177350000Y-42064000D01*
X176969000Y-38635000D02*
X177350000Y-38635000D01*
X173464162Y-38635000D02*
X175191000Y-38635000D01*
X165920000Y-40540000D02*
X171000000Y-40540000D01*
X165920000Y-41556000D02*
X165920000Y-40540000D01*
X173464162Y-38616040D02*
G75*
G02X171000000Y-40540000I-2464162J616040D01*
G01*
X177350000Y-39016000D02*
X177350000Y-38635000D01*
X177350000Y-42445000D02*
G75*
G02X174810000Y-44985000I-2540000J0D01*
G01*
X32920000Y-6985000D02*
X32920000Y-6604000D01*
X41810000Y-6985000D02*
X32920000Y-6985000D01*
X44350000Y-4445000D02*
X44350000Y-4064000D01*
X43969000Y-635000D02*
X44350000Y-635000D01*
X40464162Y-635000D02*
X42191000Y-635000D01*
X32920000Y-2540000D02*
X38000000Y-2540000D01*
X32920000Y-3556000D02*
X32920000Y-2540000D01*
X40464162Y-616040D02*
G75*
G02X38000000Y-2540000I-2464162J616040D01*
G01*
X44350000Y-1016000D02*
X44350000Y-635000D01*
X44350000Y-4445000D02*
G75*
G02X41810000Y-6985000I-2540000J0D01*
G01*
X146920000Y-44985000D02*
X146920000Y-44604000D01*
X155810000Y-44985000D02*
X146920000Y-44985000D01*
X158350000Y-42445000D02*
X158350000Y-42064000D01*
X157969000Y-38635000D02*
X158350000Y-38635000D01*
X154464162Y-38635000D02*
X156191000Y-38635000D01*
X146920000Y-40540000D02*
X152000000Y-40540000D01*
X146920000Y-41556000D02*
X146920000Y-40540000D01*
X154464162Y-38616040D02*
G75*
G02X152000000Y-40540000I-2464162J616040D01*
G01*
X158350000Y-39016000D02*
X158350000Y-38635000D01*
X158350000Y-42445000D02*
G75*
G02X155810000Y-44985000I-2540000J0D01*
G01*
X127920000Y-44985000D02*
X127920000Y-44604000D01*
X136810000Y-44985000D02*
X127920000Y-44985000D01*
X139350000Y-42445000D02*
X139350000Y-42064000D01*
X138969000Y-38635000D02*
X139350000Y-38635000D01*
X135464162Y-38635000D02*
X137191000Y-38635000D01*
X127920000Y-40540000D02*
X133000000Y-40540000D01*
X127920000Y-41556000D02*
X127920000Y-40540000D01*
X135464162Y-38616040D02*
G75*
G02X133000000Y-40540000I-2464162J616040D01*
G01*
X139350000Y-39016000D02*
X139350000Y-38635000D01*
X139350000Y-42445000D02*
G75*
G02X136810000Y-44985000I-2540000J0D01*
G01*
X108920000Y-44985000D02*
X108920000Y-44604000D01*
X117810000Y-44985000D02*
X108920000Y-44985000D01*
X120350000Y-42445000D02*
X120350000Y-42064000D01*
X119969000Y-38635000D02*
X120350000Y-38635000D01*
X116464162Y-38635000D02*
X118191000Y-38635000D01*
X108920000Y-40540000D02*
X114000000Y-40540000D01*
X108920000Y-41556000D02*
X108920000Y-40540000D01*
X116464162Y-38616040D02*
G75*
G02X114000000Y-40540000I-2464162J616040D01*
G01*
X120350000Y-39016000D02*
X120350000Y-38635000D01*
X120350000Y-42445000D02*
G75*
G02X117810000Y-44985000I-2540000J0D01*
G01*
X89920000Y-44985000D02*
X89920000Y-44604000D01*
X98810000Y-44985000D02*
X89920000Y-44985000D01*
X101350000Y-42445000D02*
X101350000Y-42064000D01*
X100969000Y-38635000D02*
X101350000Y-38635000D01*
X97464162Y-38635000D02*
X99191000Y-38635000D01*
X89920000Y-40540000D02*
X95000000Y-40540000D01*
X89920000Y-41556000D02*
X89920000Y-40540000D01*
X97464162Y-38616040D02*
G75*
G02X95000000Y-40540000I-2464162J616040D01*
G01*
X101350000Y-39016000D02*
X101350000Y-38635000D01*
X101350000Y-42445000D02*
G75*
G02X98810000Y-44985000I-2540000J0D01*
G01*
X70920000Y-44985000D02*
X70920000Y-44604000D01*
X79810000Y-44985000D02*
X70920000Y-44985000D01*
X82350000Y-42445000D02*
X82350000Y-42064000D01*
X81969000Y-38635000D02*
X82350000Y-38635000D01*
X78464162Y-38635000D02*
X80191000Y-38635000D01*
X70920000Y-40540000D02*
X76000000Y-40540000D01*
X70920000Y-41556000D02*
X70920000Y-40540000D01*
X78464162Y-38616040D02*
G75*
G02X76000000Y-40540000I-2464162J616040D01*
G01*
X82350000Y-39016000D02*
X82350000Y-38635000D01*
X82350000Y-42445000D02*
G75*
G02X79810000Y-44985000I-2540000J0D01*
G01*
X51920000Y-44985000D02*
X51920000Y-44604000D01*
X60810000Y-44985000D02*
X51920000Y-44985000D01*
X63350000Y-42445000D02*
X63350000Y-42064000D01*
X62969000Y-38635000D02*
X63350000Y-38635000D01*
X59464162Y-38635000D02*
X61191000Y-38635000D01*
X51920000Y-40540000D02*
X57000000Y-40540000D01*
X51920000Y-41556000D02*
X51920000Y-40540000D01*
X59464162Y-38616040D02*
G75*
G02X57000000Y-40540000I-2464162J616040D01*
G01*
X63350000Y-39016000D02*
X63350000Y-38635000D01*
X63350000Y-42445000D02*
G75*
G02X60810000Y-44985000I-2540000J0D01*
G01*
X32920000Y-44985000D02*
X32920000Y-44604000D01*
X41810000Y-44985000D02*
X32920000Y-44985000D01*
X44350000Y-42445000D02*
X44350000Y-42064000D01*
X43969000Y-38635000D02*
X44350000Y-38635000D01*
X40464162Y-38635000D02*
X42191000Y-38635000D01*
X32920000Y-40540000D02*
X38000000Y-40540000D01*
X32920000Y-41556000D02*
X32920000Y-40540000D01*
X40464162Y-38616040D02*
G75*
G02X38000000Y-40540000I-2464162J616040D01*
G01*
X44350000Y-39016000D02*
X44350000Y-38635000D01*
X44350000Y-42445000D02*
G75*
G02X41810000Y-44985000I-2540000J0D01*
G01*
X13920000Y-44985000D02*
X13920000Y-44604000D01*
X22810000Y-44985000D02*
X13920000Y-44985000D01*
X25350000Y-42445000D02*
X25350000Y-42064000D01*
X24969000Y-38635000D02*
X25350000Y-38635000D01*
X21464162Y-38635000D02*
X23191000Y-38635000D01*
X13920000Y-40540000D02*
X19000000Y-40540000D01*
X13920000Y-41556000D02*
X13920000Y-40540000D01*
X21464162Y-38616040D02*
G75*
G02X19000000Y-40540000I-2464162J616040D01*
G01*
X25350000Y-39016000D02*
X25350000Y-38635000D01*
X25350000Y-42445000D02*
G75*
G02X22810000Y-44985000I-2540000J0D01*
G01*
X-5080000Y-44985000D02*
X-5080000Y-44604000D01*
X3810000Y-44985000D02*
X-5080000Y-44985000D01*
X6350000Y-42445000D02*
X6350000Y-42064000D01*
X5969000Y-38635000D02*
X6350000Y-38635000D01*
X2464162Y-38635000D02*
X4191000Y-38635000D01*
X-5080000Y-40540000D02*
X0Y-40540000D01*
X-5080000Y-41556000D02*
X-5080000Y-40540000D01*
X2464162Y-38616040D02*
G75*
G02X0Y-40540000I-2464162J616040D01*
G01*
X6350000Y-39016000D02*
X6350000Y-38635000D01*
X6350000Y-42445000D02*
G75*
G02X3810000Y-44985000I-2540000J0D01*
G01*
X165920000Y-25985000D02*
X165920000Y-25604000D01*
X174810000Y-25985000D02*
X165920000Y-25985000D01*
X177350000Y-23445000D02*
X177350000Y-23064000D01*
X176969000Y-19635000D02*
X177350000Y-19635000D01*
X173464162Y-19635000D02*
X175191000Y-19635000D01*
X165920000Y-21540000D02*
X171000000Y-21540000D01*
X165920000Y-22556000D02*
X165920000Y-21540000D01*
X173464162Y-19616040D02*
G75*
G02X171000000Y-21540000I-2464162J616040D01*
G01*
X177350000Y-20016000D02*
X177350000Y-19635000D01*
X177350000Y-23445000D02*
G75*
G02X174810000Y-25985000I-2540000J0D01*
G01*
X13920000Y-6985000D02*
X13920000Y-6604000D01*
X22810000Y-6985000D02*
X13920000Y-6985000D01*
X25350000Y-4445000D02*
X25350000Y-4064000D01*
X24969000Y-635000D02*
X25350000Y-635000D01*
X21464162Y-635000D02*
X23191000Y-635000D01*
X13920000Y-2540000D02*
X19000000Y-2540000D01*
X13920000Y-3556000D02*
X13920000Y-2540000D01*
X21464162Y-616040D02*
G75*
G02X19000000Y-2540000I-2464162J616040D01*
G01*
X25350000Y-1016000D02*
X25350000Y-635000D01*
X25350000Y-4445000D02*
G75*
G02X22810000Y-6985000I-2540000J0D01*
G01*
X146920000Y-25985000D02*
X146920000Y-25604000D01*
X155810000Y-25985000D02*
X146920000Y-25985000D01*
X158350000Y-23445000D02*
X158350000Y-23064000D01*
X157969000Y-19635000D02*
X158350000Y-19635000D01*
X154464162Y-19635000D02*
X156191000Y-19635000D01*
X146920000Y-21540000D02*
X152000000Y-21540000D01*
X146920000Y-22556000D02*
X146920000Y-21540000D01*
X154464162Y-19616040D02*
G75*
G02X152000000Y-21540000I-2464162J616040D01*
G01*
X158350000Y-20016000D02*
X158350000Y-19635000D01*
X158350000Y-23445000D02*
G75*
G02X155810000Y-25985000I-2540000J0D01*
G01*
X127920000Y-25985000D02*
X127920000Y-25604000D01*
X136810000Y-25985000D02*
X127920000Y-25985000D01*
X139350000Y-23445000D02*
X139350000Y-23064000D01*
X138969000Y-19635000D02*
X139350000Y-19635000D01*
X135464162Y-19635000D02*
X137191000Y-19635000D01*
X127920000Y-21540000D02*
X133000000Y-21540000D01*
X127920000Y-22556000D02*
X127920000Y-21540000D01*
X135464162Y-19616040D02*
G75*
G02X133000000Y-21540000I-2464162J616040D01*
G01*
X139350000Y-20016000D02*
X139350000Y-19635000D01*
X139350000Y-23445000D02*
G75*
G02X136810000Y-25985000I-2540000J0D01*
G01*
X108920000Y-25985000D02*
X108920000Y-25604000D01*
X117810000Y-25985000D02*
X108920000Y-25985000D01*
X120350000Y-23445000D02*
X120350000Y-23064000D01*
X119969000Y-19635000D02*
X120350000Y-19635000D01*
X116464162Y-19635000D02*
X118191000Y-19635000D01*
X108920000Y-21540000D02*
X114000000Y-21540000D01*
X108920000Y-22556000D02*
X108920000Y-21540000D01*
X116464162Y-19616040D02*
G75*
G02X114000000Y-21540000I-2464162J616040D01*
G01*
X120350000Y-20016000D02*
X120350000Y-19635000D01*
X120350000Y-23445000D02*
G75*
G02X117810000Y-25985000I-2540000J0D01*
G01*
X89920000Y-25985000D02*
X89920000Y-25604000D01*
X98810000Y-25985000D02*
X89920000Y-25985000D01*
X101350000Y-23445000D02*
X101350000Y-23064000D01*
X100969000Y-19635000D02*
X101350000Y-19635000D01*
X97464162Y-19635000D02*
X99191000Y-19635000D01*
X89920000Y-21540000D02*
X95000000Y-21540000D01*
X89920000Y-22556000D02*
X89920000Y-21540000D01*
X97464162Y-19616040D02*
G75*
G02X95000000Y-21540000I-2464162J616040D01*
G01*
X101350000Y-20016000D02*
X101350000Y-19635000D01*
X101350000Y-23445000D02*
G75*
G02X98810000Y-25985000I-2540000J0D01*
G01*
X70920000Y-25985000D02*
X70920000Y-25604000D01*
X79810000Y-25985000D02*
X70920000Y-25985000D01*
X82350000Y-23445000D02*
X82350000Y-23064000D01*
X81969000Y-19635000D02*
X82350000Y-19635000D01*
X78464162Y-19635000D02*
X80191000Y-19635000D01*
X70920000Y-21540000D02*
X76000000Y-21540000D01*
X70920000Y-22556000D02*
X70920000Y-21540000D01*
X78464162Y-19616040D02*
G75*
G02X76000000Y-21540000I-2464162J616040D01*
G01*
X82350000Y-20016000D02*
X82350000Y-19635000D01*
X82350000Y-23445000D02*
G75*
G02X79810000Y-25985000I-2540000J0D01*
G01*
X51920000Y-25985000D02*
X51920000Y-25604000D01*
X60810000Y-25985000D02*
X51920000Y-25985000D01*
X63350000Y-23445000D02*
X63350000Y-23064000D01*
X62969000Y-19635000D02*
X63350000Y-19635000D01*
X59464162Y-19635000D02*
X61191000Y-19635000D01*
X51920000Y-21540000D02*
X57000000Y-21540000D01*
X51920000Y-22556000D02*
X51920000Y-21540000D01*
X59464162Y-19616040D02*
G75*
G02X57000000Y-21540000I-2464162J616040D01*
G01*
X63350000Y-20016000D02*
X63350000Y-19635000D01*
X63350000Y-23445000D02*
G75*
G02X60810000Y-25985000I-2540000J0D01*
G01*
X32920000Y-25985000D02*
X32920000Y-25604000D01*
X41810000Y-25985000D02*
X32920000Y-25985000D01*
X44350000Y-23445000D02*
X44350000Y-23064000D01*
X43969000Y-19635000D02*
X44350000Y-19635000D01*
X40464162Y-19635000D02*
X42191000Y-19635000D01*
X32920000Y-21540000D02*
X38000000Y-21540000D01*
X32920000Y-22556000D02*
X32920000Y-21540000D01*
X40464162Y-19616040D02*
G75*
G02X38000000Y-21540000I-2464162J616040D01*
G01*
X44350000Y-20016000D02*
X44350000Y-19635000D01*
X44350000Y-23445000D02*
G75*
G02X41810000Y-25985000I-2540000J0D01*
G01*
X13920000Y-25985000D02*
X13920000Y-25604000D01*
X22810000Y-25985000D02*
X13920000Y-25985000D01*
X25350000Y-23445000D02*
X25350000Y-23064000D01*
X24969000Y-19635000D02*
X25350000Y-19635000D01*
X21464162Y-19635000D02*
X23191000Y-19635000D01*
X13920000Y-21540000D02*
X19000000Y-21540000D01*
X13920000Y-22556000D02*
X13920000Y-21540000D01*
X21464162Y-19616040D02*
G75*
G02X19000000Y-21540000I-2464162J616040D01*
G01*
X25350000Y-20016000D02*
X25350000Y-19635000D01*
X25350000Y-23445000D02*
G75*
G02X22810000Y-25985000I-2540000J0D01*
G01*
X-5080000Y-25985000D02*
X-5080000Y-25604000D01*
X3810000Y-25985000D02*
X-5080000Y-25985000D01*
X6350000Y-23445000D02*
X6350000Y-23064000D01*
X5969000Y-19635000D02*
X6350000Y-19635000D01*
X2464162Y-19635000D02*
X4191000Y-19635000D01*
X-5080000Y-21540000D02*
X0Y-21540000D01*
X-5080000Y-22556000D02*
X-5080000Y-21540000D01*
X2464162Y-19616040D02*
G75*
G02X0Y-21540000I-2464162J616040D01*
G01*
X6350000Y-20016000D02*
X6350000Y-19635000D01*
X6350000Y-23445000D02*
G75*
G02X3810000Y-25985000I-2540000J0D01*
G01*
X165920000Y-6985000D02*
X165920000Y-6604000D01*
X174810000Y-6985000D02*
X165920000Y-6985000D01*
X177350000Y-4445000D02*
X177350000Y-4064000D01*
X176969000Y-635000D02*
X177350000Y-635000D01*
X173464162Y-635000D02*
X175191000Y-635000D01*
X165920000Y-2540000D02*
X171000000Y-2540000D01*
X165920000Y-3556000D02*
X165920000Y-2540000D01*
X173464162Y-616040D02*
G75*
G02X171000000Y-2540000I-2464162J616040D01*
G01*
X177350000Y-1016000D02*
X177350000Y-635000D01*
X177350000Y-4445000D02*
G75*
G02X174810000Y-6985000I-2540000J0D01*
G01*
X-5080000Y-6985000D02*
X-5080000Y-6604000D01*
X3810000Y-6985000D02*
X-5080000Y-6985000D01*
X6350000Y-4445000D02*
X6350000Y-4064000D01*
X5969000Y-635000D02*
X6350000Y-635000D01*
X2464162Y-635000D02*
X4191000Y-635000D01*
X-5080000Y-2540000D02*
X0Y-2540000D01*
X-5080000Y-3556000D02*
X-5080000Y-2540000D01*
X2464162Y-616040D02*
G75*
G02X0Y-2540000I-2464162J616040D01*
G01*
X6350000Y-1016000D02*
X6350000Y-635000D01*
X6350000Y-4445000D02*
G75*
G02X3810000Y-6985000I-2540000J0D01*
G01*
D13*
X157000000Y3510000D02*
X157000000Y3210000D01*
X157000000Y4110000D02*
X157000000Y4410000D01*
X156650000Y4110000D02*
X157400000Y4110000D01*
X157400000Y3510000D02*
X157000000Y4110000D01*
X156650000Y3510000D02*
X157400000Y3510000D01*
X157000000Y4110000D02*
X156650000Y3510000D01*
X156300000Y5810000D02*
X157700000Y5810000D01*
X156300000Y5610000D02*
X157700000Y5610000D01*
X156300000Y5410000D02*
X157700000Y5410000D01*
X156300000Y5210000D02*
X157700000Y5210000D01*
X157700000Y5810000D02*
X157700000Y2410000D01*
X156300000Y2410000D02*
X157700000Y2410000D01*
X156300000Y5810000D02*
X156300000Y2410000D01*
X138000000Y3510000D02*
X138000000Y3210000D01*
X138000000Y4110000D02*
X138000000Y4410000D01*
X137650000Y4110000D02*
X138400000Y4110000D01*
X138400000Y3510000D02*
X138000000Y4110000D01*
X137650000Y3510000D02*
X138400000Y3510000D01*
X138000000Y4110000D02*
X137650000Y3510000D01*
X137300000Y5810000D02*
X138700000Y5810000D01*
X137300000Y5610000D02*
X138700000Y5610000D01*
X137300000Y5410000D02*
X138700000Y5410000D01*
X137300000Y5210000D02*
X138700000Y5210000D01*
X138700000Y5810000D02*
X138700000Y2410000D01*
X137300000Y2410000D02*
X138700000Y2410000D01*
X137300000Y5810000D02*
X137300000Y2410000D01*
X119000000Y3510000D02*
X119000000Y3210000D01*
X119000000Y4110000D02*
X119000000Y4410000D01*
X118650000Y4110000D02*
X119400000Y4110000D01*
X119400000Y3510000D02*
X119000000Y4110000D01*
X118650000Y3510000D02*
X119400000Y3510000D01*
X119000000Y4110000D02*
X118650000Y3510000D01*
X118300000Y5810000D02*
X119700000Y5810000D01*
X118300000Y5610000D02*
X119700000Y5610000D01*
X118300000Y5410000D02*
X119700000Y5410000D01*
X118300000Y5210000D02*
X119700000Y5210000D01*
X119700000Y5810000D02*
X119700000Y2410000D01*
X118300000Y2410000D02*
X119700000Y2410000D01*
X118300000Y5810000D02*
X118300000Y2410000D01*
X100000000Y3510000D02*
X100000000Y3210000D01*
X100000000Y4110000D02*
X100000000Y4410000D01*
X99650000Y4110000D02*
X100400000Y4110000D01*
X100400000Y3510000D02*
X100000000Y4110000D01*
X99650000Y3510000D02*
X100400000Y3510000D01*
X100000000Y4110000D02*
X99650000Y3510000D01*
X99300000Y5810000D02*
X100700000Y5810000D01*
X99300000Y5610000D02*
X100700000Y5610000D01*
X99300000Y5410000D02*
X100700000Y5410000D01*
X99300000Y5210000D02*
X100700000Y5210000D01*
X100700000Y5810000D02*
X100700000Y2410000D01*
X99300000Y2410000D02*
X100700000Y2410000D01*
X99300000Y5810000D02*
X99300000Y2410000D01*
X81000000Y3510000D02*
X81000000Y3210000D01*
X81000000Y4110000D02*
X81000000Y4410000D01*
X80650000Y4110000D02*
X81400000Y4110000D01*
X81400000Y3510000D02*
X81000000Y4110000D01*
X80650000Y3510000D02*
X81400000Y3510000D01*
X81000000Y4110000D02*
X80650000Y3510000D01*
X80300000Y5810000D02*
X81700000Y5810000D01*
X80300000Y5610000D02*
X81700000Y5610000D01*
X80300000Y5410000D02*
X81700000Y5410000D01*
X80300000Y5210000D02*
X81700000Y5210000D01*
X81700000Y5810000D02*
X81700000Y2410000D01*
X80300000Y2410000D02*
X81700000Y2410000D01*
X80300000Y5810000D02*
X80300000Y2410000D01*
X62000000Y3510000D02*
X62000000Y3210000D01*
X62000000Y4110000D02*
X62000000Y4410000D01*
X61650000Y4110000D02*
X62400000Y4110000D01*
X62400000Y3510000D02*
X62000000Y4110000D01*
X61650000Y3510000D02*
X62400000Y3510000D01*
X62000000Y4110000D02*
X61650000Y3510000D01*
X61300000Y5810000D02*
X62700000Y5810000D01*
X61300000Y5610000D02*
X62700000Y5610000D01*
X61300000Y5410000D02*
X62700000Y5410000D01*
X61300000Y5210000D02*
X62700000Y5210000D01*
X62700000Y5810000D02*
X62700000Y2410000D01*
X61300000Y2410000D02*
X62700000Y2410000D01*
X61300000Y5810000D02*
X61300000Y2410000D01*
X176000000Y-34490000D02*
X176000000Y-34790000D01*
X176000000Y-33890000D02*
X176000000Y-33590000D01*
X175650000Y-33890000D02*
X176400000Y-33890000D01*
X176400000Y-34490000D02*
X176000000Y-33890000D01*
X175650000Y-34490000D02*
X176400000Y-34490000D01*
X176000000Y-33890000D02*
X175650000Y-34490000D01*
X175300000Y-32190000D02*
X176700000Y-32190000D01*
X175300000Y-32390000D02*
X176700000Y-32390000D01*
X175300000Y-32590000D02*
X176700000Y-32590000D01*
X175300000Y-32790000D02*
X176700000Y-32790000D01*
X176700000Y-32190000D02*
X176700000Y-35590000D01*
X175300000Y-35590000D02*
X176700000Y-35590000D01*
X175300000Y-32190000D02*
X175300000Y-35590000D01*
X43000000Y3510000D02*
X43000000Y3210000D01*
X43000000Y4110000D02*
X43000000Y4410000D01*
X42650000Y4110000D02*
X43400000Y4110000D01*
X43400000Y3510000D02*
X43000000Y4110000D01*
X42650000Y3510000D02*
X43400000Y3510000D01*
X43000000Y4110000D02*
X42650000Y3510000D01*
X42300000Y5810000D02*
X43700000Y5810000D01*
X42300000Y5610000D02*
X43700000Y5610000D01*
X42300000Y5410000D02*
X43700000Y5410000D01*
X42300000Y5210000D02*
X43700000Y5210000D01*
X43700000Y5810000D02*
X43700000Y2410000D01*
X42300000Y2410000D02*
X43700000Y2410000D01*
X42300000Y5810000D02*
X42300000Y2410000D01*
X157000000Y-34490000D02*
X157000000Y-34790000D01*
X157000000Y-33890000D02*
X157000000Y-33590000D01*
X156650000Y-33890000D02*
X157400000Y-33890000D01*
X157400000Y-34490000D02*
X157000000Y-33890000D01*
X156650000Y-34490000D02*
X157400000Y-34490000D01*
X157000000Y-33890000D02*
X156650000Y-34490000D01*
X156300000Y-32190000D02*
X157700000Y-32190000D01*
X156300000Y-32390000D02*
X157700000Y-32390000D01*
X156300000Y-32590000D02*
X157700000Y-32590000D01*
X156300000Y-32790000D02*
X157700000Y-32790000D01*
X157700000Y-32190000D02*
X157700000Y-35590000D01*
X156300000Y-35590000D02*
X157700000Y-35590000D01*
X156300000Y-32190000D02*
X156300000Y-35590000D01*
X138000000Y-34490000D02*
X138000000Y-34790000D01*
X138000000Y-33890000D02*
X138000000Y-33590000D01*
X137650000Y-33890000D02*
X138400000Y-33890000D01*
X138400000Y-34490000D02*
X138000000Y-33890000D01*
X137650000Y-34490000D02*
X138400000Y-34490000D01*
X138000000Y-33890000D02*
X137650000Y-34490000D01*
X137300000Y-32190000D02*
X138700000Y-32190000D01*
X137300000Y-32390000D02*
X138700000Y-32390000D01*
X137300000Y-32590000D02*
X138700000Y-32590000D01*
X137300000Y-32790000D02*
X138700000Y-32790000D01*
X138700000Y-32190000D02*
X138700000Y-35590000D01*
X137300000Y-35590000D02*
X138700000Y-35590000D01*
X137300000Y-32190000D02*
X137300000Y-35590000D01*
X119000000Y-34490000D02*
X119000000Y-34790000D01*
X119000000Y-33890000D02*
X119000000Y-33590000D01*
X118650000Y-33890000D02*
X119400000Y-33890000D01*
X119400000Y-34490000D02*
X119000000Y-33890000D01*
X118650000Y-34490000D02*
X119400000Y-34490000D01*
X119000000Y-33890000D02*
X118650000Y-34490000D01*
X118300000Y-32190000D02*
X119700000Y-32190000D01*
X118300000Y-32390000D02*
X119700000Y-32390000D01*
X118300000Y-32590000D02*
X119700000Y-32590000D01*
X118300000Y-32790000D02*
X119700000Y-32790000D01*
X119700000Y-32190000D02*
X119700000Y-35590000D01*
X118300000Y-35590000D02*
X119700000Y-35590000D01*
X118300000Y-32190000D02*
X118300000Y-35590000D01*
X100000000Y-34490000D02*
X100000000Y-34790000D01*
X100000000Y-33890000D02*
X100000000Y-33590000D01*
X99650000Y-33890000D02*
X100400000Y-33890000D01*
X100400000Y-34490000D02*
X100000000Y-33890000D01*
X99650000Y-34490000D02*
X100400000Y-34490000D01*
X100000000Y-33890000D02*
X99650000Y-34490000D01*
X99300000Y-32190000D02*
X100700000Y-32190000D01*
X99300000Y-32390000D02*
X100700000Y-32390000D01*
X99300000Y-32590000D02*
X100700000Y-32590000D01*
X99300000Y-32790000D02*
X100700000Y-32790000D01*
X100700000Y-32190000D02*
X100700000Y-35590000D01*
X99300000Y-35590000D02*
X100700000Y-35590000D01*
X99300000Y-32190000D02*
X99300000Y-35590000D01*
X81000000Y-34490000D02*
X81000000Y-34790000D01*
X81000000Y-33890000D02*
X81000000Y-33590000D01*
X80650000Y-33890000D02*
X81400000Y-33890000D01*
X81400000Y-34490000D02*
X81000000Y-33890000D01*
X80650000Y-34490000D02*
X81400000Y-34490000D01*
X81000000Y-33890000D02*
X80650000Y-34490000D01*
X80300000Y-32190000D02*
X81700000Y-32190000D01*
X80300000Y-32390000D02*
X81700000Y-32390000D01*
X80300000Y-32590000D02*
X81700000Y-32590000D01*
X80300000Y-32790000D02*
X81700000Y-32790000D01*
X81700000Y-32190000D02*
X81700000Y-35590000D01*
X80300000Y-35590000D02*
X81700000Y-35590000D01*
X80300000Y-32190000D02*
X80300000Y-35590000D01*
X62000000Y-34490000D02*
X62000000Y-34790000D01*
X62000000Y-33890000D02*
X62000000Y-33590000D01*
X61650000Y-33890000D02*
X62400000Y-33890000D01*
X62400000Y-34490000D02*
X62000000Y-33890000D01*
X61650000Y-34490000D02*
X62400000Y-34490000D01*
X62000000Y-33890000D02*
X61650000Y-34490000D01*
X61300000Y-32190000D02*
X62700000Y-32190000D01*
X61300000Y-32390000D02*
X62700000Y-32390000D01*
X61300000Y-32590000D02*
X62700000Y-32590000D01*
X61300000Y-32790000D02*
X62700000Y-32790000D01*
X62700000Y-32190000D02*
X62700000Y-35590000D01*
X61300000Y-35590000D02*
X62700000Y-35590000D01*
X61300000Y-32190000D02*
X61300000Y-35590000D01*
X43000000Y-34490000D02*
X43000000Y-34790000D01*
X43000000Y-33890000D02*
X43000000Y-33590000D01*
X42650000Y-33890000D02*
X43400000Y-33890000D01*
X43400000Y-34490000D02*
X43000000Y-33890000D01*
X42650000Y-34490000D02*
X43400000Y-34490000D01*
X43000000Y-33890000D02*
X42650000Y-34490000D01*
X42300000Y-32190000D02*
X43700000Y-32190000D01*
X42300000Y-32390000D02*
X43700000Y-32390000D01*
X42300000Y-32590000D02*
X43700000Y-32590000D01*
X42300000Y-32790000D02*
X43700000Y-32790000D01*
X43700000Y-32190000D02*
X43700000Y-35590000D01*
X42300000Y-35590000D02*
X43700000Y-35590000D01*
X42300000Y-32190000D02*
X42300000Y-35590000D01*
X24000000Y-34490000D02*
X24000000Y-34790000D01*
X24000000Y-33890000D02*
X24000000Y-33590000D01*
X23650000Y-33890000D02*
X24400000Y-33890000D01*
X24400000Y-34490000D02*
X24000000Y-33890000D01*
X23650000Y-34490000D02*
X24400000Y-34490000D01*
X24000000Y-33890000D02*
X23650000Y-34490000D01*
X23300000Y-32190000D02*
X24700000Y-32190000D01*
X23300000Y-32390000D02*
X24700000Y-32390000D01*
X23300000Y-32590000D02*
X24700000Y-32590000D01*
X23300000Y-32790000D02*
X24700000Y-32790000D01*
X24700000Y-32190000D02*
X24700000Y-35590000D01*
X23300000Y-35590000D02*
X24700000Y-35590000D01*
X23300000Y-32190000D02*
X23300000Y-35590000D01*
X5000000Y-34490000D02*
X5000000Y-34790000D01*
X5000000Y-33890000D02*
X5000000Y-33590000D01*
X4650000Y-33890000D02*
X5400000Y-33890000D01*
X5400000Y-34490000D02*
X5000000Y-33890000D01*
X4650000Y-34490000D02*
X5400000Y-34490000D01*
X5000000Y-33890000D02*
X4650000Y-34490000D01*
X4300000Y-32190000D02*
X5700000Y-32190000D01*
X4300000Y-32390000D02*
X5700000Y-32390000D01*
X4300000Y-32590000D02*
X5700000Y-32590000D01*
X4300000Y-32790000D02*
X5700000Y-32790000D01*
X5700000Y-32190000D02*
X5700000Y-35590000D01*
X4300000Y-35590000D02*
X5700000Y-35590000D01*
X4300000Y-32190000D02*
X4300000Y-35590000D01*
X176000000Y-15490000D02*
X176000000Y-15790000D01*
X176000000Y-14890000D02*
X176000000Y-14590000D01*
X175650000Y-14890000D02*
X176400000Y-14890000D01*
X176400000Y-15490000D02*
X176000000Y-14890000D01*
X175650000Y-15490000D02*
X176400000Y-15490000D01*
X176000000Y-14890000D02*
X175650000Y-15490000D01*
X175300000Y-13190000D02*
X176700000Y-13190000D01*
X175300000Y-13390000D02*
X176700000Y-13390000D01*
X175300000Y-13590000D02*
X176700000Y-13590000D01*
X175300000Y-13790000D02*
X176700000Y-13790000D01*
X176700000Y-13190000D02*
X176700000Y-16590000D01*
X175300000Y-16590000D02*
X176700000Y-16590000D01*
X175300000Y-13190000D02*
X175300000Y-16590000D01*
X24000000Y3510000D02*
X24000000Y3210000D01*
X24000000Y4110000D02*
X24000000Y4410000D01*
X23650000Y4110000D02*
X24400000Y4110000D01*
X24400000Y3510000D02*
X24000000Y4110000D01*
X23650000Y3510000D02*
X24400000Y3510000D01*
X24000000Y4110000D02*
X23650000Y3510000D01*
X23300000Y5810000D02*
X24700000Y5810000D01*
X23300000Y5610000D02*
X24700000Y5610000D01*
X23300000Y5410000D02*
X24700000Y5410000D01*
X23300000Y5210000D02*
X24700000Y5210000D01*
X24700000Y5810000D02*
X24700000Y2410000D01*
X23300000Y2410000D02*
X24700000Y2410000D01*
X23300000Y5810000D02*
X23300000Y2410000D01*
X157000000Y-15490000D02*
X157000000Y-15790000D01*
X157000000Y-14890000D02*
X157000000Y-14590000D01*
X156650000Y-14890000D02*
X157400000Y-14890000D01*
X157400000Y-15490000D02*
X157000000Y-14890000D01*
X156650000Y-15490000D02*
X157400000Y-15490000D01*
X157000000Y-14890000D02*
X156650000Y-15490000D01*
X156300000Y-13190000D02*
X157700000Y-13190000D01*
X156300000Y-13390000D02*
X157700000Y-13390000D01*
X156300000Y-13590000D02*
X157700000Y-13590000D01*
X156300000Y-13790000D02*
X157700000Y-13790000D01*
X157700000Y-13190000D02*
X157700000Y-16590000D01*
X156300000Y-16590000D02*
X157700000Y-16590000D01*
X156300000Y-13190000D02*
X156300000Y-16590000D01*
X138000000Y-15490000D02*
X138000000Y-15790000D01*
X138000000Y-14890000D02*
X138000000Y-14590000D01*
X137650000Y-14890000D02*
X138400000Y-14890000D01*
X138400000Y-15490000D02*
X138000000Y-14890000D01*
X137650000Y-15490000D02*
X138400000Y-15490000D01*
X138000000Y-14890000D02*
X137650000Y-15490000D01*
X137300000Y-13190000D02*
X138700000Y-13190000D01*
X137300000Y-13390000D02*
X138700000Y-13390000D01*
X137300000Y-13590000D02*
X138700000Y-13590000D01*
X137300000Y-13790000D02*
X138700000Y-13790000D01*
X138700000Y-13190000D02*
X138700000Y-16590000D01*
X137300000Y-16590000D02*
X138700000Y-16590000D01*
X137300000Y-13190000D02*
X137300000Y-16590000D01*
X119000000Y-15490000D02*
X119000000Y-15790000D01*
X119000000Y-14890000D02*
X119000000Y-14590000D01*
X118650000Y-14890000D02*
X119400000Y-14890000D01*
X119400000Y-15490000D02*
X119000000Y-14890000D01*
X118650000Y-15490000D02*
X119400000Y-15490000D01*
X119000000Y-14890000D02*
X118650000Y-15490000D01*
X118300000Y-13190000D02*
X119700000Y-13190000D01*
X118300000Y-13390000D02*
X119700000Y-13390000D01*
X118300000Y-13590000D02*
X119700000Y-13590000D01*
X118300000Y-13790000D02*
X119700000Y-13790000D01*
X119700000Y-13190000D02*
X119700000Y-16590000D01*
X118300000Y-16590000D02*
X119700000Y-16590000D01*
X118300000Y-13190000D02*
X118300000Y-16590000D01*
X100000000Y-15490000D02*
X100000000Y-15790000D01*
X100000000Y-14890000D02*
X100000000Y-14590000D01*
X99650000Y-14890000D02*
X100400000Y-14890000D01*
X100400000Y-15490000D02*
X100000000Y-14890000D01*
X99650000Y-15490000D02*
X100400000Y-15490000D01*
X100000000Y-14890000D02*
X99650000Y-15490000D01*
X99300000Y-13190000D02*
X100700000Y-13190000D01*
X99300000Y-13390000D02*
X100700000Y-13390000D01*
X99300000Y-13590000D02*
X100700000Y-13590000D01*
X99300000Y-13790000D02*
X100700000Y-13790000D01*
X100700000Y-13190000D02*
X100700000Y-16590000D01*
X99300000Y-16590000D02*
X100700000Y-16590000D01*
X99300000Y-13190000D02*
X99300000Y-16590000D01*
X81000000Y-15490000D02*
X81000000Y-15790000D01*
X81000000Y-14890000D02*
X81000000Y-14590000D01*
X80650000Y-14890000D02*
X81400000Y-14890000D01*
X81400000Y-15490000D02*
X81000000Y-14890000D01*
X80650000Y-15490000D02*
X81400000Y-15490000D01*
X81000000Y-14890000D02*
X80650000Y-15490000D01*
X80300000Y-13190000D02*
X81700000Y-13190000D01*
X80300000Y-13390000D02*
X81700000Y-13390000D01*
X80300000Y-13590000D02*
X81700000Y-13590000D01*
X80300000Y-13790000D02*
X81700000Y-13790000D01*
X81700000Y-13190000D02*
X81700000Y-16590000D01*
X80300000Y-16590000D02*
X81700000Y-16590000D01*
X80300000Y-13190000D02*
X80300000Y-16590000D01*
X62000000Y-15490000D02*
X62000000Y-15790000D01*
X62000000Y-14890000D02*
X62000000Y-14590000D01*
X61650000Y-14890000D02*
X62400000Y-14890000D01*
X62400000Y-15490000D02*
X62000000Y-14890000D01*
X61650000Y-15490000D02*
X62400000Y-15490000D01*
X62000000Y-14890000D02*
X61650000Y-15490000D01*
X61300000Y-13190000D02*
X62700000Y-13190000D01*
X61300000Y-13390000D02*
X62700000Y-13390000D01*
X61300000Y-13590000D02*
X62700000Y-13590000D01*
X61300000Y-13790000D02*
X62700000Y-13790000D01*
X62700000Y-13190000D02*
X62700000Y-16590000D01*
X61300000Y-16590000D02*
X62700000Y-16590000D01*
X61300000Y-13190000D02*
X61300000Y-16590000D01*
X43000000Y-15490000D02*
X43000000Y-15790000D01*
X43000000Y-14890000D02*
X43000000Y-14590000D01*
X42650000Y-14890000D02*
X43400000Y-14890000D01*
X43400000Y-15490000D02*
X43000000Y-14890000D01*
X42650000Y-15490000D02*
X43400000Y-15490000D01*
X43000000Y-14890000D02*
X42650000Y-15490000D01*
X42300000Y-13190000D02*
X43700000Y-13190000D01*
X42300000Y-13390000D02*
X43700000Y-13390000D01*
X42300000Y-13590000D02*
X43700000Y-13590000D01*
X42300000Y-13790000D02*
X43700000Y-13790000D01*
X43700000Y-13190000D02*
X43700000Y-16590000D01*
X42300000Y-16590000D02*
X43700000Y-16590000D01*
X42300000Y-13190000D02*
X42300000Y-16590000D01*
X24000000Y-15490000D02*
X24000000Y-15790000D01*
X24000000Y-14890000D02*
X24000000Y-14590000D01*
X23650000Y-14890000D02*
X24400000Y-14890000D01*
X24400000Y-15490000D02*
X24000000Y-14890000D01*
X23650000Y-15490000D02*
X24400000Y-15490000D01*
X24000000Y-14890000D02*
X23650000Y-15490000D01*
X23300000Y-13190000D02*
X24700000Y-13190000D01*
X23300000Y-13390000D02*
X24700000Y-13390000D01*
X23300000Y-13590000D02*
X24700000Y-13590000D01*
X23300000Y-13790000D02*
X24700000Y-13790000D01*
X24700000Y-13190000D02*
X24700000Y-16590000D01*
X23300000Y-16590000D02*
X24700000Y-16590000D01*
X23300000Y-13190000D02*
X23300000Y-16590000D01*
X5000000Y-15490000D02*
X5000000Y-15790000D01*
X5000000Y-14890000D02*
X5000000Y-14590000D01*
X4650000Y-14890000D02*
X5400000Y-14890000D01*
X5400000Y-15490000D02*
X5000000Y-14890000D01*
X4650000Y-15490000D02*
X5400000Y-15490000D01*
X5000000Y-14890000D02*
X4650000Y-15490000D01*
X4300000Y-13190000D02*
X5700000Y-13190000D01*
X4300000Y-13390000D02*
X5700000Y-13390000D01*
X4300000Y-13590000D02*
X5700000Y-13590000D01*
X4300000Y-13790000D02*
X5700000Y-13790000D01*
X5700000Y-13190000D02*
X5700000Y-16590000D01*
X4300000Y-16590000D02*
X5700000Y-16590000D01*
X4300000Y-13190000D02*
X4300000Y-16590000D01*
X176000000Y3510000D02*
X176000000Y3210000D01*
X176000000Y4110000D02*
X176000000Y4410000D01*
X175650000Y4110000D02*
X176400000Y4110000D01*
X176400000Y3510000D02*
X176000000Y4110000D01*
X175650000Y3510000D02*
X176400000Y3510000D01*
X176000000Y4110000D02*
X175650000Y3510000D01*
X175300000Y5810000D02*
X176700000Y5810000D01*
X175300000Y5610000D02*
X176700000Y5610000D01*
X175300000Y5410000D02*
X176700000Y5410000D01*
X175300000Y5210000D02*
X176700000Y5210000D01*
X176700000Y5810000D02*
X176700000Y2410000D01*
X175300000Y2410000D02*
X176700000Y2410000D01*
X175300000Y5810000D02*
X175300000Y2410000D01*
X5000000Y3510000D02*
X5000000Y3210000D01*
X5000000Y4110000D02*
X5000000Y4410000D01*
X4650000Y4110000D02*
X5400000Y4110000D01*
X5400000Y3510000D02*
X5000000Y4110000D01*
X4650000Y3510000D02*
X5400000Y3510000D01*
X5000000Y4110000D02*
X4650000Y3510000D01*
X4300000Y5810000D02*
X5700000Y5810000D01*
X4300000Y5610000D02*
X5700000Y5610000D01*
X4300000Y5410000D02*
X5700000Y5410000D01*
X4300000Y5210000D02*
X5700000Y5210000D01*
X5700000Y5810000D02*
X5700000Y2410000D01*
X4300000Y2410000D02*
X5700000Y2410000D01*
X4300000Y5810000D02*
X4300000Y2410000D01*
D11*
X194803333Y-303809D02*
X194689047Y-341904D01*
X194498571Y-341904D01*
X194422380Y-303809D01*
X194384285Y-265714D01*
X194346190Y-189523D01*
X194346190Y-113333D01*
X194384285Y-37142D01*
X194422380Y952D01*
X194498571Y39047D01*
X194650952Y77142D01*
X194727142Y115238D01*
X194765238Y153333D01*
X194803333Y229523D01*
X194803333Y305714D01*
X194765238Y381904D01*
X194727142Y420000D01*
X194650952Y458095D01*
X194460476Y458095D01*
X194346190Y420000D01*
X194117619Y458095D02*
X193660476Y458095D01*
X193889047Y-341904D02*
X193889047Y458095D01*
X187848604Y5518095D02*
X187391461Y5518095D01*
X187620032Y4718095D02*
X187620032Y5518095D01*
X187200985Y5518095D02*
X186667651Y4718095D01*
X186667651Y5518095D02*
X187200985Y4718095D01*
X186210508Y5518095D02*
X186134318Y5518095D01*
X186058128Y5480000D01*
X186020032Y5441904D01*
X185981937Y5365714D01*
X185943842Y5213333D01*
X185943842Y5022857D01*
X185981937Y4870476D01*
X186020032Y4794285D01*
X186058128Y4756190D01*
X186134318Y4718095D01*
X186210508Y4718095D01*
X186286699Y4756190D01*
X186324794Y4794285D01*
X186362889Y4870476D01*
X186400985Y5022857D01*
X186400985Y5213333D01*
X186362889Y5365714D01*
X186324794Y5441904D01*
X186286699Y5480000D01*
X186210508Y5518095D01*
X185029556Y5556190D02*
X185715270Y4527619D01*
X184762889Y4718095D02*
X184762889Y5518095D01*
X184572413Y5518095D01*
X184458128Y5480000D01*
X184381937Y5403809D01*
X184343842Y5327619D01*
X184305747Y5175238D01*
X184305747Y5060952D01*
X184343842Y4908571D01*
X184381937Y4832380D01*
X184458128Y4756190D01*
X184572413Y4718095D01*
X184762889Y4718095D01*
X184039080Y5518095D02*
X183543842Y5518095D01*
X183810508Y5213333D01*
X183696223Y5213333D01*
X183620032Y5175238D01*
X183581937Y5137142D01*
X183543842Y5060952D01*
X183543842Y4870476D01*
X183581937Y4794285D01*
X183620032Y4756190D01*
X183696223Y4718095D01*
X183924794Y4718095D01*
X184000985Y4756190D01*
X184039080Y4794285D01*
X195014809Y-20262857D02*
X194900523Y-20300952D01*
X194862428Y-20339047D01*
X194824333Y-20415238D01*
X194824333Y-20529523D01*
X194862428Y-20605714D01*
X194900523Y-20643809D01*
X194976714Y-20681904D01*
X195281476Y-20681904D01*
X195281476Y-19881904D01*
X195014809Y-19881904D01*
X194938619Y-19920000D01*
X194900523Y-19958095D01*
X194862428Y-20034285D01*
X194862428Y-20110476D01*
X194900523Y-20186666D01*
X194938619Y-20224761D01*
X195014809Y-20262857D01*
X195281476Y-20262857D01*
X194519571Y-19958095D02*
X194481476Y-19920000D01*
X194405285Y-19881904D01*
X194214809Y-19881904D01*
X194138619Y-19920000D01*
X194100523Y-19958095D01*
X194062428Y-20034285D01*
X194062428Y-20110476D01*
X194100523Y-20224761D01*
X194557666Y-20681904D01*
X194062428Y-20681904D01*
X194957666Y-12642857D02*
X195224333Y-12642857D01*
X195224333Y-13061904D02*
X195224333Y-12261904D01*
X194843380Y-12261904D01*
X194614809Y-12261904D02*
X194081476Y-12261904D01*
X194424333Y-13061904D01*
X194957666Y-10102857D02*
X195224333Y-10102857D01*
X195224333Y-10521904D02*
X195224333Y-9721904D01*
X194843380Y-9721904D01*
X194195761Y-9721904D02*
X194348142Y-9721904D01*
X194424333Y-9760000D01*
X194462428Y-9798095D01*
X194538619Y-9912380D01*
X194576714Y-10064761D01*
X194576714Y-10369523D01*
X194538619Y-10445714D01*
X194500523Y-10483809D01*
X194424333Y-10521904D01*
X194271952Y-10521904D01*
X194195761Y-10483809D01*
X194157666Y-10445714D01*
X194119571Y-10369523D01*
X194119571Y-10179047D01*
X194157666Y-10102857D01*
X194195761Y-10064761D01*
X194271952Y-10026666D01*
X194424333Y-10026666D01*
X194500523Y-10064761D01*
X194538619Y-10102857D01*
X194576714Y-10179047D01*
X194957666Y-7562857D02*
X195224333Y-7562857D01*
X195224333Y-7981904D02*
X195224333Y-7181904D01*
X194843380Y-7181904D01*
X194157666Y-7181904D02*
X194538619Y-7181904D01*
X194576714Y-7562857D01*
X194538619Y-7524761D01*
X194462428Y-7486666D01*
X194271952Y-7486666D01*
X194195761Y-7524761D01*
X194157666Y-7562857D01*
X194119571Y-7639047D01*
X194119571Y-7829523D01*
X194157666Y-7905714D01*
X194195761Y-7943809D01*
X194271952Y-7981904D01*
X194462428Y-7981904D01*
X194538619Y-7943809D01*
X194576714Y-7905714D01*
X195243380Y4718095D02*
X195510047Y5099047D01*
X195700523Y4718095D02*
X195700523Y5518095D01*
X195395761Y5518095D01*
X195319571Y5480000D01*
X195281476Y5441904D01*
X195243380Y5365714D01*
X195243380Y5251428D01*
X195281476Y5175238D01*
X195319571Y5137142D01*
X195395761Y5099047D01*
X195700523Y5099047D01*
X194938619Y4946666D02*
X194557666Y4946666D01*
X195014809Y4718095D02*
X194748142Y5518095D01*
X194481476Y4718095D01*
X194291000Y5518095D02*
X194100523Y4718095D01*
X193948142Y5289523D01*
X193795761Y4718095D01*
X193605285Y5518095D01*
X195300523Y2940000D02*
X195376714Y2978095D01*
X195491000Y2978095D01*
X195605285Y2940000D01*
X195681476Y2863809D01*
X195719571Y2787619D01*
X195757666Y2635238D01*
X195757666Y2520952D01*
X195719571Y2368571D01*
X195681476Y2292380D01*
X195605285Y2216190D01*
X195491000Y2178095D01*
X195414809Y2178095D01*
X195300523Y2216190D01*
X195262428Y2254285D01*
X195262428Y2520952D01*
X195414809Y2520952D01*
X194919571Y2178095D02*
X194919571Y2978095D01*
X194462428Y2178095D01*
X194462428Y2978095D01*
X194081476Y2178095D02*
X194081476Y2978095D01*
X193891000Y2978095D01*
X193776714Y2940000D01*
X193700523Y2863809D01*
X193662428Y2787619D01*
X193624333Y2635238D01*
X193624333Y2520952D01*
X193662428Y2368571D01*
X193700523Y2292380D01*
X193776714Y2216190D01*
X193891000Y2178095D01*
X194081476Y2178095D01*
X195757666Y-2101904D02*
X195491000Y-2901904D01*
X195224333Y-2101904D01*
X194500523Y-2825714D02*
X194538619Y-2863809D01*
X194652904Y-2901904D01*
X194729095Y-2901904D01*
X194843380Y-2863809D01*
X194919571Y-2787619D01*
X194957666Y-2711428D01*
X194995761Y-2559047D01*
X194995761Y-2444761D01*
X194957666Y-2292380D01*
X194919571Y-2216190D01*
X194843380Y-2140000D01*
X194729095Y-2101904D01*
X194652904Y-2101904D01*
X194538619Y-2140000D01*
X194500523Y-2178095D01*
X193700523Y-2825714D02*
X193738619Y-2863809D01*
X193852904Y-2901904D01*
X193929095Y-2901904D01*
X194043380Y-2863809D01*
X194119571Y-2787619D01*
X194157666Y-2711428D01*
X194195761Y-2559047D01*
X194195761Y-2444761D01*
X194157666Y-2292380D01*
X194119571Y-2216190D01*
X194043380Y-2140000D01*
X193929095Y-2101904D01*
X193852904Y-2101904D01*
X193738619Y-2140000D01*
X193700523Y-2178095D01*
X194957666Y-5022857D02*
X195224333Y-5022857D01*
X195224333Y-5441904D02*
X195224333Y-4641904D01*
X194843380Y-4641904D01*
X194195761Y-4908571D02*
X194195761Y-5441904D01*
X194386238Y-4603809D02*
X194576714Y-5175238D01*
X194081476Y-5175238D01*
X195014809Y-15182857D02*
X194900523Y-15220952D01*
X194862428Y-15259047D01*
X194824333Y-15335238D01*
X194824333Y-15449523D01*
X194862428Y-15525714D01*
X194900523Y-15563809D01*
X194976714Y-15601904D01*
X195281476Y-15601904D01*
X195281476Y-14801904D01*
X195014809Y-14801904D01*
X194938619Y-14840000D01*
X194900523Y-14878095D01*
X194862428Y-14954285D01*
X194862428Y-15030476D01*
X194900523Y-15106666D01*
X194938619Y-15144761D01*
X195014809Y-15182857D01*
X195281476Y-15182857D01*
X194062428Y-15601904D02*
X194519571Y-15601904D01*
X194291000Y-15601904D02*
X194291000Y-14801904D01*
X194367190Y-14916190D01*
X194443380Y-14992380D01*
X194519571Y-15030476D01*
X195014809Y-17722857D02*
X194900523Y-17760952D01*
X194862428Y-17799047D01*
X194824333Y-17875238D01*
X194824333Y-17989523D01*
X194862428Y-18065714D01*
X194900523Y-18103809D01*
X194976714Y-18141904D01*
X195281476Y-18141904D01*
X195281476Y-17341904D01*
X195014809Y-17341904D01*
X194938619Y-17380000D01*
X194900523Y-17418095D01*
X194862428Y-17494285D01*
X194862428Y-17570476D01*
X194900523Y-17646666D01*
X194938619Y-17684761D01*
X195014809Y-17722857D01*
X195281476Y-17722857D01*
X194557666Y-17341904D02*
X194062428Y-17341904D01*
X194329095Y-17646666D01*
X194214809Y-17646666D01*
X194138619Y-17684761D01*
X194100523Y-17722857D01*
X194062428Y-17799047D01*
X194062428Y-17989523D01*
X194100523Y-18065714D01*
X194138619Y-18103809D01*
X194214809Y-18141904D01*
X194443380Y-18141904D01*
X194519571Y-18103809D01*
X194557666Y-18065714D01*
X195014809Y-22802857D02*
X194900523Y-22840952D01*
X194862428Y-22879047D01*
X194824333Y-22955238D01*
X194824333Y-23069523D01*
X194862428Y-23145714D01*
X194900523Y-23183809D01*
X194976714Y-23221904D01*
X195281476Y-23221904D01*
X195281476Y-22421904D01*
X195014809Y-22421904D01*
X194938619Y-22460000D01*
X194900523Y-22498095D01*
X194862428Y-22574285D01*
X194862428Y-22650476D01*
X194900523Y-22726666D01*
X194938619Y-22764761D01*
X195014809Y-22802857D01*
X195281476Y-22802857D01*
X194138619Y-22421904D02*
X194291000Y-22421904D01*
X194367190Y-22460000D01*
X194405285Y-22498095D01*
X194481476Y-22612380D01*
X194519571Y-22764761D01*
X194519571Y-23069523D01*
X194481476Y-23145714D01*
X194443380Y-23183809D01*
X194367190Y-23221904D01*
X194214809Y-23221904D01*
X194138619Y-23183809D01*
X194100523Y-23145714D01*
X194062428Y-23069523D01*
X194062428Y-22879047D01*
X194100523Y-22802857D01*
X194138619Y-22764761D01*
X194214809Y-22726666D01*
X194367190Y-22726666D01*
X194443380Y-22764761D01*
X194481476Y-22802857D01*
X194519571Y-22879047D01*
X184092809Y-22802857D02*
X183978523Y-22840952D01*
X183940428Y-22879047D01*
X183902333Y-22955238D01*
X183902333Y-23069523D01*
X183940428Y-23145714D01*
X183978523Y-23183809D01*
X184054714Y-23221904D01*
X184359476Y-23221904D01*
X184359476Y-22421904D01*
X184092809Y-22421904D01*
X184016619Y-22460000D01*
X183978523Y-22498095D01*
X183940428Y-22574285D01*
X183940428Y-22650476D01*
X183978523Y-22726666D01*
X184016619Y-22764761D01*
X184092809Y-22802857D01*
X184359476Y-22802857D01*
X183178523Y-22421904D02*
X183559476Y-22421904D01*
X183597571Y-22802857D01*
X183559476Y-22764761D01*
X183483285Y-22726666D01*
X183292809Y-22726666D01*
X183216619Y-22764761D01*
X183178523Y-22802857D01*
X183140428Y-22879047D01*
X183140428Y-23069523D01*
X183178523Y-23145714D01*
X183216619Y-23183809D01*
X183292809Y-23221904D01*
X183483285Y-23221904D01*
X183559476Y-23183809D01*
X183597571Y-23145714D01*
X184092809Y-20262857D02*
X183978523Y-20300952D01*
X183940428Y-20339047D01*
X183902333Y-20415238D01*
X183902333Y-20529523D01*
X183940428Y-20605714D01*
X183978523Y-20643809D01*
X184054714Y-20681904D01*
X184359476Y-20681904D01*
X184359476Y-19881904D01*
X184092809Y-19881904D01*
X184016619Y-19920000D01*
X183978523Y-19958095D01*
X183940428Y-20034285D01*
X183940428Y-20110476D01*
X183978523Y-20186666D01*
X184016619Y-20224761D01*
X184092809Y-20262857D01*
X184359476Y-20262857D01*
X183216619Y-20148571D02*
X183216619Y-20681904D01*
X183407095Y-19843809D02*
X183597571Y-20415238D01*
X183102333Y-20415238D01*
X184321380Y-17722857D02*
X184054714Y-17722857D01*
X183940428Y-18141904D02*
X184321380Y-18141904D01*
X184321380Y-17341904D01*
X183940428Y-17341904D01*
X183254714Y-17341904D02*
X183407095Y-17341904D01*
X183483285Y-17380000D01*
X183521380Y-17418095D01*
X183597571Y-17532380D01*
X183635666Y-17684761D01*
X183635666Y-17989523D01*
X183597571Y-18065714D01*
X183559476Y-18103809D01*
X183483285Y-18141904D01*
X183330904Y-18141904D01*
X183254714Y-18103809D01*
X183216619Y-18065714D01*
X183178523Y-17989523D01*
X183178523Y-17799047D01*
X183216619Y-17722857D01*
X183254714Y-17684761D01*
X183330904Y-17646666D01*
X183483285Y-17646666D01*
X183559476Y-17684761D01*
X183597571Y-17722857D01*
X183635666Y-17799047D01*
X184359476Y-15601904D02*
X184359476Y-14801904D01*
X184169000Y-14801904D01*
X184054714Y-14840000D01*
X183978523Y-14916190D01*
X183940428Y-14992380D01*
X183902333Y-15144761D01*
X183902333Y-15259047D01*
X183940428Y-15411428D01*
X183978523Y-15487619D01*
X184054714Y-15563809D01*
X184169000Y-15601904D01*
X184359476Y-15601904D01*
X183635666Y-14801904D02*
X183102333Y-14801904D01*
X183445190Y-15601904D01*
X183902333Y-12985714D02*
X183940428Y-13023809D01*
X184054714Y-13061904D01*
X184130904Y-13061904D01*
X184245190Y-13023809D01*
X184321380Y-12947619D01*
X184359476Y-12871428D01*
X184397571Y-12719047D01*
X184397571Y-12604761D01*
X184359476Y-12452380D01*
X184321380Y-12376190D01*
X184245190Y-12300000D01*
X184130904Y-12261904D01*
X184054714Y-12261904D01*
X183940428Y-12300000D01*
X183902333Y-12338095D01*
X183216619Y-12261904D02*
X183369000Y-12261904D01*
X183445190Y-12300000D01*
X183483285Y-12338095D01*
X183559476Y-12452380D01*
X183597571Y-12604761D01*
X183597571Y-12909523D01*
X183559476Y-12985714D01*
X183521380Y-13023809D01*
X183445190Y-13061904D01*
X183292809Y-13061904D01*
X183216619Y-13023809D01*
X183178523Y-12985714D01*
X183140428Y-12909523D01*
X183140428Y-12719047D01*
X183178523Y-12642857D01*
X183216619Y-12604761D01*
X183292809Y-12566666D01*
X183445190Y-12566666D01*
X183521380Y-12604761D01*
X183559476Y-12642857D01*
X183597571Y-12719047D01*
X184359476Y-10521904D02*
X184359476Y-9721904D01*
X184169000Y-9721904D01*
X184054714Y-9760000D01*
X183978523Y-9836190D01*
X183940428Y-9912380D01*
X183902333Y-10064761D01*
X183902333Y-10179047D01*
X183940428Y-10331428D01*
X183978523Y-10407619D01*
X184054714Y-10483809D01*
X184169000Y-10521904D01*
X184359476Y-10521904D01*
X183216619Y-9988571D02*
X183216619Y-10521904D01*
X183407095Y-9683809D02*
X183597571Y-10255238D01*
X183102333Y-10255238D01*
X184378523Y400000D02*
X184454714Y438095D01*
X184569000Y438095D01*
X184683285Y400000D01*
X184759476Y323809D01*
X184797571Y247619D01*
X184835666Y95238D01*
X184835666Y-19047D01*
X184797571Y-171428D01*
X184759476Y-247619D01*
X184683285Y-323809D01*
X184569000Y-361904D01*
X184492809Y-361904D01*
X184378523Y-323809D01*
X184340428Y-285714D01*
X184340428Y-19047D01*
X184492809Y-19047D01*
X183997571Y-361904D02*
X183997571Y438095D01*
X183540428Y-361904D01*
X183540428Y438095D01*
X183159476Y-361904D02*
X183159476Y438095D01*
X182969000Y438095D01*
X182854714Y400000D01*
X182778523Y323809D01*
X182740428Y247619D01*
X182702333Y95238D01*
X182702333Y-19047D01*
X182740428Y-171428D01*
X182778523Y-247619D01*
X182854714Y-323809D01*
X182969000Y-361904D01*
X183159476Y-361904D01*
X184378523Y-2140000D02*
X184454714Y-2101904D01*
X184569000Y-2101904D01*
X184683285Y-2140000D01*
X184759476Y-2216190D01*
X184797571Y-2292380D01*
X184835666Y-2444761D01*
X184835666Y-2559047D01*
X184797571Y-2711428D01*
X184759476Y-2787619D01*
X184683285Y-2863809D01*
X184569000Y-2901904D01*
X184492809Y-2901904D01*
X184378523Y-2863809D01*
X184340428Y-2825714D01*
X184340428Y-2559047D01*
X184492809Y-2559047D01*
X183997571Y-2901904D02*
X183997571Y-2101904D01*
X183540428Y-2901904D01*
X183540428Y-2101904D01*
X183159476Y-2901904D02*
X183159476Y-2101904D01*
X182969000Y-2101904D01*
X182854714Y-2140000D01*
X182778523Y-2216190D01*
X182740428Y-2292380D01*
X182702333Y-2444761D01*
X182702333Y-2559047D01*
X182740428Y-2711428D01*
X182778523Y-2787619D01*
X182854714Y-2863809D01*
X182969000Y-2901904D01*
X183159476Y-2901904D01*
X184359476Y-5441904D02*
X184359476Y-4641904D01*
X184169000Y-4641904D01*
X184054714Y-4680000D01*
X183978523Y-4756190D01*
X183940428Y-4832380D01*
X183902333Y-4984761D01*
X183902333Y-5099047D01*
X183940428Y-5251428D01*
X183978523Y-5327619D01*
X184054714Y-5403809D01*
X184169000Y-5441904D01*
X184359476Y-5441904D01*
X183140428Y-5441904D02*
X183597571Y-5441904D01*
X183369000Y-5441904D02*
X183369000Y-4641904D01*
X183445190Y-4756190D01*
X183521380Y-4832380D01*
X183597571Y-4870476D01*
X184359476Y-7981904D02*
X184359476Y-7181904D01*
X184169000Y-7181904D01*
X184054714Y-7220000D01*
X183978523Y-7296190D01*
X183940428Y-7372380D01*
X183902333Y-7524761D01*
X183902333Y-7639047D01*
X183940428Y-7791428D01*
X183978523Y-7867619D01*
X184054714Y-7943809D01*
X184169000Y-7981904D01*
X184359476Y-7981904D01*
X183407095Y-7181904D02*
X183330904Y-7181904D01*
X183254714Y-7220000D01*
X183216619Y-7258095D01*
X183178523Y-7334285D01*
X183140428Y-7486666D01*
X183140428Y-7677142D01*
X183178523Y-7829523D01*
X183216619Y-7905714D01*
X183254714Y-7943809D01*
X183330904Y-7981904D01*
X183407095Y-7981904D01*
X183483285Y-7943809D01*
X183521380Y-7905714D01*
X183559476Y-7829523D01*
X183597571Y-7677142D01*
X183597571Y-7486666D01*
X183559476Y-7334285D01*
X183521380Y-7258095D01*
X183483285Y-7220000D01*
X183407095Y-7181904D01*
X184359476Y2178095D02*
X184359476Y2978095D01*
X184169000Y2978095D01*
X184054714Y2940000D01*
X183978523Y2863809D01*
X183940428Y2787619D01*
X183902333Y2635238D01*
X183902333Y2520952D01*
X183940428Y2368571D01*
X183978523Y2292380D01*
X184054714Y2216190D01*
X184169000Y2178095D01*
X184359476Y2178095D01*
X183597571Y2901904D02*
X183559476Y2940000D01*
X183483285Y2978095D01*
X183292809Y2978095D01*
X183216619Y2940000D01*
X183178523Y2901904D01*
X183140428Y2825714D01*
X183140428Y2749523D01*
X183178523Y2635238D01*
X183635666Y2178095D01*
X183140428Y2178095D01*
X190563333Y-39564761D02*
X190420476Y-39612380D01*
X190182380Y-39612380D01*
X190087142Y-39564761D01*
X190039523Y-39517142D01*
X189991904Y-39421904D01*
X189991904Y-39326666D01*
X190039523Y-39231428D01*
X190087142Y-39183809D01*
X190182380Y-39136190D01*
X190372857Y-39088571D01*
X190468095Y-39040952D01*
X190515714Y-38993333D01*
X190563333Y-38898095D01*
X190563333Y-38802857D01*
X190515714Y-38707619D01*
X190468095Y-38660000D01*
X190372857Y-38612380D01*
X190134761Y-38612380D01*
X189991904Y-38660000D01*
X189658571Y-38612380D02*
X189420476Y-39612380D01*
X189230000Y-38898095D01*
X189039523Y-39612380D01*
X188801428Y-38612380D01*
X187896666Y-39612380D02*
X188468095Y-39612380D01*
X188182380Y-39612380D02*
X188182380Y-38612380D01*
X188277619Y-38755238D01*
X188372857Y-38850476D01*
X188468095Y-38898095D01*
X153119047Y6910119D02*
X153595238Y6910119D01*
X153595238Y7910119D01*
X152785714Y7433928D02*
X152452380Y7433928D01*
X152309523Y6910119D02*
X152785714Y6910119D01*
X152785714Y7910119D01*
X152309523Y7910119D01*
X151880952Y6910119D02*
X151880952Y7910119D01*
X151642857Y7910119D01*
X151500000Y7862500D01*
X151404761Y7767261D01*
X151357142Y7672023D01*
X151309523Y7481547D01*
X151309523Y7338690D01*
X151357142Y7148214D01*
X151404761Y7052976D01*
X151500000Y6957738D01*
X151642857Y6910119D01*
X151880952Y6910119D01*
X150833333Y6910119D02*
X150642857Y6910119D01*
X150547619Y6957738D01*
X150500000Y7005357D01*
X150404761Y7148214D01*
X150357142Y7338690D01*
X150357142Y7719642D01*
X150404761Y7814880D01*
X150452380Y7862500D01*
X150547619Y7910119D01*
X150738095Y7910119D01*
X150833333Y7862500D01*
X150880952Y7814880D01*
X150928571Y7719642D01*
X150928571Y7481547D01*
X150880952Y7386309D01*
X150833333Y7338690D01*
X150738095Y7291071D01*
X150547619Y7291071D01*
X150452380Y7338690D01*
X150404761Y7386309D01*
X150357142Y7481547D01*
X134119047Y6910119D02*
X134595238Y6910119D01*
X134595238Y7910119D01*
X133785714Y7433928D02*
X133452380Y7433928D01*
X133309523Y6910119D02*
X133785714Y6910119D01*
X133785714Y7910119D01*
X133309523Y7910119D01*
X132880952Y6910119D02*
X132880952Y7910119D01*
X132642857Y7910119D01*
X132500000Y7862500D01*
X132404761Y7767261D01*
X132357142Y7672023D01*
X132309523Y7481547D01*
X132309523Y7338690D01*
X132357142Y7148214D01*
X132404761Y7052976D01*
X132500000Y6957738D01*
X132642857Y6910119D01*
X132880952Y6910119D01*
X131738095Y7481547D02*
X131833333Y7529166D01*
X131880952Y7576785D01*
X131928571Y7672023D01*
X131928571Y7719642D01*
X131880952Y7814880D01*
X131833333Y7862500D01*
X131738095Y7910119D01*
X131547619Y7910119D01*
X131452380Y7862500D01*
X131404761Y7814880D01*
X131357142Y7719642D01*
X131357142Y7672023D01*
X131404761Y7576785D01*
X131452380Y7529166D01*
X131547619Y7481547D01*
X131738095Y7481547D01*
X131833333Y7433928D01*
X131880952Y7386309D01*
X131928571Y7291071D01*
X131928571Y7100595D01*
X131880952Y7005357D01*
X131833333Y6957738D01*
X131738095Y6910119D01*
X131547619Y6910119D01*
X131452380Y6957738D01*
X131404761Y7005357D01*
X131357142Y7100595D01*
X131357142Y7291071D01*
X131404761Y7386309D01*
X131452380Y7433928D01*
X131547619Y7481547D01*
X115119047Y6910119D02*
X115595238Y6910119D01*
X115595238Y7910119D01*
X114785714Y7433928D02*
X114452380Y7433928D01*
X114309523Y6910119D02*
X114785714Y6910119D01*
X114785714Y7910119D01*
X114309523Y7910119D01*
X113880952Y6910119D02*
X113880952Y7910119D01*
X113642857Y7910119D01*
X113500000Y7862500D01*
X113404761Y7767261D01*
X113357142Y7672023D01*
X113309523Y7481547D01*
X113309523Y7338690D01*
X113357142Y7148214D01*
X113404761Y7052976D01*
X113500000Y6957738D01*
X113642857Y6910119D01*
X113880952Y6910119D01*
X112976190Y7910119D02*
X112309523Y7910119D01*
X112738095Y6910119D01*
X96119047Y6910119D02*
X96595238Y6910119D01*
X96595238Y7910119D01*
X95785714Y7433928D02*
X95452380Y7433928D01*
X95309523Y6910119D02*
X95785714Y6910119D01*
X95785714Y7910119D01*
X95309523Y7910119D01*
X94880952Y6910119D02*
X94880952Y7910119D01*
X94642857Y7910119D01*
X94500000Y7862500D01*
X94404761Y7767261D01*
X94357142Y7672023D01*
X94309523Y7481547D01*
X94309523Y7338690D01*
X94357142Y7148214D01*
X94404761Y7052976D01*
X94500000Y6957738D01*
X94642857Y6910119D01*
X94880952Y6910119D01*
X93452380Y7910119D02*
X93642857Y7910119D01*
X93738095Y7862500D01*
X93785714Y7814880D01*
X93880952Y7672023D01*
X93928571Y7481547D01*
X93928571Y7100595D01*
X93880952Y7005357D01*
X93833333Y6957738D01*
X93738095Y6910119D01*
X93547619Y6910119D01*
X93452380Y6957738D01*
X93404761Y7005357D01*
X93357142Y7100595D01*
X93357142Y7338690D01*
X93404761Y7433928D01*
X93452380Y7481547D01*
X93547619Y7529166D01*
X93738095Y7529166D01*
X93833333Y7481547D01*
X93880952Y7433928D01*
X93928571Y7338690D01*
X77119047Y6910119D02*
X77595238Y6910119D01*
X77595238Y7910119D01*
X76785714Y7433928D02*
X76452380Y7433928D01*
X76309523Y6910119D02*
X76785714Y6910119D01*
X76785714Y7910119D01*
X76309523Y7910119D01*
X75880952Y6910119D02*
X75880952Y7910119D01*
X75642857Y7910119D01*
X75500000Y7862500D01*
X75404761Y7767261D01*
X75357142Y7672023D01*
X75309523Y7481547D01*
X75309523Y7338690D01*
X75357142Y7148214D01*
X75404761Y7052976D01*
X75500000Y6957738D01*
X75642857Y6910119D01*
X75880952Y6910119D01*
X74404761Y7910119D02*
X74880952Y7910119D01*
X74928571Y7433928D01*
X74880952Y7481547D01*
X74785714Y7529166D01*
X74547619Y7529166D01*
X74452380Y7481547D01*
X74404761Y7433928D01*
X74357142Y7338690D01*
X74357142Y7100595D01*
X74404761Y7005357D01*
X74452380Y6957738D01*
X74547619Y6910119D01*
X74785714Y6910119D01*
X74880952Y6957738D01*
X74928571Y7005357D01*
X58119047Y6910119D02*
X58595238Y6910119D01*
X58595238Y7910119D01*
X57785714Y7433928D02*
X57452380Y7433928D01*
X57309523Y6910119D02*
X57785714Y6910119D01*
X57785714Y7910119D01*
X57309523Y7910119D01*
X56880952Y6910119D02*
X56880952Y7910119D01*
X56642857Y7910119D01*
X56500000Y7862500D01*
X56404761Y7767261D01*
X56357142Y7672023D01*
X56309523Y7481547D01*
X56309523Y7338690D01*
X56357142Y7148214D01*
X56404761Y7052976D01*
X56500000Y6957738D01*
X56642857Y6910119D01*
X56880952Y6910119D01*
X55452380Y7576785D02*
X55452380Y6910119D01*
X55690476Y7957738D02*
X55928571Y7243452D01*
X55309523Y7243452D01*
X172595238Y-31089880D02*
X173071428Y-31089880D01*
X173071428Y-30089880D01*
X172261904Y-30566071D02*
X171928571Y-30566071D01*
X171785714Y-31089880D02*
X172261904Y-31089880D01*
X172261904Y-30089880D01*
X171785714Y-30089880D01*
X171357142Y-31089880D02*
X171357142Y-30089880D01*
X171119047Y-30089880D01*
X170976190Y-30137500D01*
X170880952Y-30232738D01*
X170833333Y-30327976D01*
X170785714Y-30518452D01*
X170785714Y-30661309D01*
X170833333Y-30851785D01*
X170880952Y-30947023D01*
X170976190Y-31042261D01*
X171119047Y-31089880D01*
X171357142Y-31089880D01*
X170452380Y-30089880D02*
X169833333Y-30089880D01*
X170166666Y-30470833D01*
X170023809Y-30470833D01*
X169928571Y-30518452D01*
X169880952Y-30566071D01*
X169833333Y-30661309D01*
X169833333Y-30899404D01*
X169880952Y-30994642D01*
X169928571Y-31042261D01*
X170023809Y-31089880D01*
X170309523Y-31089880D01*
X170404761Y-31042261D01*
X170452380Y-30994642D01*
X169214285Y-30089880D02*
X169119047Y-30089880D01*
X169023809Y-30137500D01*
X168976190Y-30185119D01*
X168928571Y-30280357D01*
X168880952Y-30470833D01*
X168880952Y-30708928D01*
X168928571Y-30899404D01*
X168976190Y-30994642D01*
X169023809Y-31042261D01*
X169119047Y-31089880D01*
X169214285Y-31089880D01*
X169309523Y-31042261D01*
X169357142Y-30994642D01*
X169404761Y-30899404D01*
X169452380Y-30708928D01*
X169452380Y-30470833D01*
X169404761Y-30280357D01*
X169357142Y-30185119D01*
X169309523Y-30137500D01*
X169214285Y-30089880D01*
X39119047Y6910119D02*
X39595238Y6910119D01*
X39595238Y7910119D01*
X38785714Y7433928D02*
X38452380Y7433928D01*
X38309523Y6910119D02*
X38785714Y6910119D01*
X38785714Y7910119D01*
X38309523Y7910119D01*
X37880952Y6910119D02*
X37880952Y7910119D01*
X37642857Y7910119D01*
X37500000Y7862500D01*
X37404761Y7767261D01*
X37357142Y7672023D01*
X37309523Y7481547D01*
X37309523Y7338690D01*
X37357142Y7148214D01*
X37404761Y7052976D01*
X37500000Y6957738D01*
X37642857Y6910119D01*
X37880952Y6910119D01*
X36976190Y7910119D02*
X36357142Y7910119D01*
X36690476Y7529166D01*
X36547619Y7529166D01*
X36452380Y7481547D01*
X36404761Y7433928D01*
X36357142Y7338690D01*
X36357142Y7100595D01*
X36404761Y7005357D01*
X36452380Y6957738D01*
X36547619Y6910119D01*
X36833333Y6910119D01*
X36928571Y6957738D01*
X36976190Y7005357D01*
X153595238Y-31089880D02*
X154071428Y-31089880D01*
X154071428Y-30089880D01*
X153261904Y-30566071D02*
X152928571Y-30566071D01*
X152785714Y-31089880D02*
X153261904Y-31089880D01*
X153261904Y-30089880D01*
X152785714Y-30089880D01*
X152357142Y-31089880D02*
X152357142Y-30089880D01*
X152119047Y-30089880D01*
X151976190Y-30137500D01*
X151880952Y-30232738D01*
X151833333Y-30327976D01*
X151785714Y-30518452D01*
X151785714Y-30661309D01*
X151833333Y-30851785D01*
X151880952Y-30947023D01*
X151976190Y-31042261D01*
X152119047Y-31089880D01*
X152357142Y-31089880D01*
X151404761Y-30185119D02*
X151357142Y-30137500D01*
X151261904Y-30089880D01*
X151023809Y-30089880D01*
X150928571Y-30137500D01*
X150880952Y-30185119D01*
X150833333Y-30280357D01*
X150833333Y-30375595D01*
X150880952Y-30518452D01*
X151452380Y-31089880D01*
X150833333Y-31089880D01*
X150357142Y-31089880D02*
X150166666Y-31089880D01*
X150071428Y-31042261D01*
X150023809Y-30994642D01*
X149928571Y-30851785D01*
X149880952Y-30661309D01*
X149880952Y-30280357D01*
X149928571Y-30185119D01*
X149976190Y-30137500D01*
X150071428Y-30089880D01*
X150261904Y-30089880D01*
X150357142Y-30137500D01*
X150404761Y-30185119D01*
X150452380Y-30280357D01*
X150452380Y-30518452D01*
X150404761Y-30613690D01*
X150357142Y-30661309D01*
X150261904Y-30708928D01*
X150071428Y-30708928D01*
X149976190Y-30661309D01*
X149928571Y-30613690D01*
X149880952Y-30518452D01*
X134595238Y-31089880D02*
X135071428Y-31089880D01*
X135071428Y-30089880D01*
X134261904Y-30566071D02*
X133928571Y-30566071D01*
X133785714Y-31089880D02*
X134261904Y-31089880D01*
X134261904Y-30089880D01*
X133785714Y-30089880D01*
X133357142Y-31089880D02*
X133357142Y-30089880D01*
X133119047Y-30089880D01*
X132976190Y-30137500D01*
X132880952Y-30232738D01*
X132833333Y-30327976D01*
X132785714Y-30518452D01*
X132785714Y-30661309D01*
X132833333Y-30851785D01*
X132880952Y-30947023D01*
X132976190Y-31042261D01*
X133119047Y-31089880D01*
X133357142Y-31089880D01*
X132404761Y-30185119D02*
X132357142Y-30137500D01*
X132261904Y-30089880D01*
X132023809Y-30089880D01*
X131928571Y-30137500D01*
X131880952Y-30185119D01*
X131833333Y-30280357D01*
X131833333Y-30375595D01*
X131880952Y-30518452D01*
X132452380Y-31089880D01*
X131833333Y-31089880D01*
X131261904Y-30518452D02*
X131357142Y-30470833D01*
X131404761Y-30423214D01*
X131452380Y-30327976D01*
X131452380Y-30280357D01*
X131404761Y-30185119D01*
X131357142Y-30137500D01*
X131261904Y-30089880D01*
X131071428Y-30089880D01*
X130976190Y-30137500D01*
X130928571Y-30185119D01*
X130880952Y-30280357D01*
X130880952Y-30327976D01*
X130928571Y-30423214D01*
X130976190Y-30470833D01*
X131071428Y-30518452D01*
X131261904Y-30518452D01*
X131357142Y-30566071D01*
X131404761Y-30613690D01*
X131452380Y-30708928D01*
X131452380Y-30899404D01*
X131404761Y-30994642D01*
X131357142Y-31042261D01*
X131261904Y-31089880D01*
X131071428Y-31089880D01*
X130976190Y-31042261D01*
X130928571Y-30994642D01*
X130880952Y-30899404D01*
X130880952Y-30708928D01*
X130928571Y-30613690D01*
X130976190Y-30566071D01*
X131071428Y-30518452D01*
X115595238Y-31089880D02*
X116071428Y-31089880D01*
X116071428Y-30089880D01*
X115261904Y-30566071D02*
X114928571Y-30566071D01*
X114785714Y-31089880D02*
X115261904Y-31089880D01*
X115261904Y-30089880D01*
X114785714Y-30089880D01*
X114357142Y-31089880D02*
X114357142Y-30089880D01*
X114119047Y-30089880D01*
X113976190Y-30137500D01*
X113880952Y-30232738D01*
X113833333Y-30327976D01*
X113785714Y-30518452D01*
X113785714Y-30661309D01*
X113833333Y-30851785D01*
X113880952Y-30947023D01*
X113976190Y-31042261D01*
X114119047Y-31089880D01*
X114357142Y-31089880D01*
X113404761Y-30185119D02*
X113357142Y-30137500D01*
X113261904Y-30089880D01*
X113023809Y-30089880D01*
X112928571Y-30137500D01*
X112880952Y-30185119D01*
X112833333Y-30280357D01*
X112833333Y-30375595D01*
X112880952Y-30518452D01*
X113452380Y-31089880D01*
X112833333Y-31089880D01*
X112500000Y-30089880D02*
X111833333Y-30089880D01*
X112261904Y-31089880D01*
X96595238Y-31089880D02*
X97071428Y-31089880D01*
X97071428Y-30089880D01*
X96261904Y-30566071D02*
X95928571Y-30566071D01*
X95785714Y-31089880D02*
X96261904Y-31089880D01*
X96261904Y-30089880D01*
X95785714Y-30089880D01*
X95357142Y-31089880D02*
X95357142Y-30089880D01*
X95119047Y-30089880D01*
X94976190Y-30137500D01*
X94880952Y-30232738D01*
X94833333Y-30327976D01*
X94785714Y-30518452D01*
X94785714Y-30661309D01*
X94833333Y-30851785D01*
X94880952Y-30947023D01*
X94976190Y-31042261D01*
X95119047Y-31089880D01*
X95357142Y-31089880D01*
X94404761Y-30185119D02*
X94357142Y-30137500D01*
X94261904Y-30089880D01*
X94023809Y-30089880D01*
X93928571Y-30137500D01*
X93880952Y-30185119D01*
X93833333Y-30280357D01*
X93833333Y-30375595D01*
X93880952Y-30518452D01*
X94452380Y-31089880D01*
X93833333Y-31089880D01*
X92976190Y-30089880D02*
X93166666Y-30089880D01*
X93261904Y-30137500D01*
X93309523Y-30185119D01*
X93404761Y-30327976D01*
X93452380Y-30518452D01*
X93452380Y-30899404D01*
X93404761Y-30994642D01*
X93357142Y-31042261D01*
X93261904Y-31089880D01*
X93071428Y-31089880D01*
X92976190Y-31042261D01*
X92928571Y-30994642D01*
X92880952Y-30899404D01*
X92880952Y-30661309D01*
X92928571Y-30566071D01*
X92976190Y-30518452D01*
X93071428Y-30470833D01*
X93261904Y-30470833D01*
X93357142Y-30518452D01*
X93404761Y-30566071D01*
X93452380Y-30661309D01*
X77595238Y-31089880D02*
X78071428Y-31089880D01*
X78071428Y-30089880D01*
X77261904Y-30566071D02*
X76928571Y-30566071D01*
X76785714Y-31089880D02*
X77261904Y-31089880D01*
X77261904Y-30089880D01*
X76785714Y-30089880D01*
X76357142Y-31089880D02*
X76357142Y-30089880D01*
X76119047Y-30089880D01*
X75976190Y-30137500D01*
X75880952Y-30232738D01*
X75833333Y-30327976D01*
X75785714Y-30518452D01*
X75785714Y-30661309D01*
X75833333Y-30851785D01*
X75880952Y-30947023D01*
X75976190Y-31042261D01*
X76119047Y-31089880D01*
X76357142Y-31089880D01*
X75404761Y-30185119D02*
X75357142Y-30137500D01*
X75261904Y-30089880D01*
X75023809Y-30089880D01*
X74928571Y-30137500D01*
X74880952Y-30185119D01*
X74833333Y-30280357D01*
X74833333Y-30375595D01*
X74880952Y-30518452D01*
X75452380Y-31089880D01*
X74833333Y-31089880D01*
X73928571Y-30089880D02*
X74404761Y-30089880D01*
X74452380Y-30566071D01*
X74404761Y-30518452D01*
X74309523Y-30470833D01*
X74071428Y-30470833D01*
X73976190Y-30518452D01*
X73928571Y-30566071D01*
X73880952Y-30661309D01*
X73880952Y-30899404D01*
X73928571Y-30994642D01*
X73976190Y-31042261D01*
X74071428Y-31089880D01*
X74309523Y-31089880D01*
X74404761Y-31042261D01*
X74452380Y-30994642D01*
X58595238Y-31089880D02*
X59071428Y-31089880D01*
X59071428Y-30089880D01*
X58261904Y-30566071D02*
X57928571Y-30566071D01*
X57785714Y-31089880D02*
X58261904Y-31089880D01*
X58261904Y-30089880D01*
X57785714Y-30089880D01*
X57357142Y-31089880D02*
X57357142Y-30089880D01*
X57119047Y-30089880D01*
X56976190Y-30137500D01*
X56880952Y-30232738D01*
X56833333Y-30327976D01*
X56785714Y-30518452D01*
X56785714Y-30661309D01*
X56833333Y-30851785D01*
X56880952Y-30947023D01*
X56976190Y-31042261D01*
X57119047Y-31089880D01*
X57357142Y-31089880D01*
X56404761Y-30185119D02*
X56357142Y-30137500D01*
X56261904Y-30089880D01*
X56023809Y-30089880D01*
X55928571Y-30137500D01*
X55880952Y-30185119D01*
X55833333Y-30280357D01*
X55833333Y-30375595D01*
X55880952Y-30518452D01*
X56452380Y-31089880D01*
X55833333Y-31089880D01*
X54976190Y-30423214D02*
X54976190Y-31089880D01*
X55214285Y-30042261D02*
X55452380Y-30756547D01*
X54833333Y-30756547D01*
X39595238Y-31089880D02*
X40071428Y-31089880D01*
X40071428Y-30089880D01*
X39261904Y-30566071D02*
X38928571Y-30566071D01*
X38785714Y-31089880D02*
X39261904Y-31089880D01*
X39261904Y-30089880D01*
X38785714Y-30089880D01*
X38357142Y-31089880D02*
X38357142Y-30089880D01*
X38119047Y-30089880D01*
X37976190Y-30137500D01*
X37880952Y-30232738D01*
X37833333Y-30327976D01*
X37785714Y-30518452D01*
X37785714Y-30661309D01*
X37833333Y-30851785D01*
X37880952Y-30947023D01*
X37976190Y-31042261D01*
X38119047Y-31089880D01*
X38357142Y-31089880D01*
X37404761Y-30185119D02*
X37357142Y-30137500D01*
X37261904Y-30089880D01*
X37023809Y-30089880D01*
X36928571Y-30137500D01*
X36880952Y-30185119D01*
X36833333Y-30280357D01*
X36833333Y-30375595D01*
X36880952Y-30518452D01*
X37452380Y-31089880D01*
X36833333Y-31089880D01*
X36500000Y-30089880D02*
X35880952Y-30089880D01*
X36214285Y-30470833D01*
X36071428Y-30470833D01*
X35976190Y-30518452D01*
X35928571Y-30566071D01*
X35880952Y-30661309D01*
X35880952Y-30899404D01*
X35928571Y-30994642D01*
X35976190Y-31042261D01*
X36071428Y-31089880D01*
X36357142Y-31089880D01*
X36452380Y-31042261D01*
X36500000Y-30994642D01*
X20595238Y-31089880D02*
X21071428Y-31089880D01*
X21071428Y-30089880D01*
X20261904Y-30566071D02*
X19928571Y-30566071D01*
X19785714Y-31089880D02*
X20261904Y-31089880D01*
X20261904Y-30089880D01*
X19785714Y-30089880D01*
X19357142Y-31089880D02*
X19357142Y-30089880D01*
X19119047Y-30089880D01*
X18976190Y-30137500D01*
X18880952Y-30232738D01*
X18833333Y-30327976D01*
X18785714Y-30518452D01*
X18785714Y-30661309D01*
X18833333Y-30851785D01*
X18880952Y-30947023D01*
X18976190Y-31042261D01*
X19119047Y-31089880D01*
X19357142Y-31089880D01*
X18404761Y-30185119D02*
X18357142Y-30137500D01*
X18261904Y-30089880D01*
X18023809Y-30089880D01*
X17928571Y-30137500D01*
X17880952Y-30185119D01*
X17833333Y-30280357D01*
X17833333Y-30375595D01*
X17880952Y-30518452D01*
X18452380Y-31089880D01*
X17833333Y-31089880D01*
X17452380Y-30185119D02*
X17404761Y-30137500D01*
X17309523Y-30089880D01*
X17071428Y-30089880D01*
X16976190Y-30137500D01*
X16928571Y-30185119D01*
X16880952Y-30280357D01*
X16880952Y-30375595D01*
X16928571Y-30518452D01*
X17500000Y-31089880D01*
X16880952Y-31089880D01*
X1595238Y-31089880D02*
X2071428Y-31089880D01*
X2071428Y-30089880D01*
X1261904Y-30566071D02*
X928571Y-30566071D01*
X785714Y-31089880D02*
X1261904Y-31089880D01*
X1261904Y-30089880D01*
X785714Y-30089880D01*
X357142Y-31089880D02*
X357142Y-30089880D01*
X119047Y-30089880D01*
X-23809Y-30137500D01*
X-119047Y-30232738D01*
X-166666Y-30327976D01*
X-214285Y-30518452D01*
X-214285Y-30661309D01*
X-166666Y-30851785D01*
X-119047Y-30947023D01*
X-23809Y-31042261D01*
X119047Y-31089880D01*
X357142Y-31089880D01*
X-595238Y-30185119D02*
X-642857Y-30137500D01*
X-738095Y-30089880D01*
X-976190Y-30089880D01*
X-1071428Y-30137500D01*
X-1119047Y-30185119D01*
X-1166666Y-30280357D01*
X-1166666Y-30375595D01*
X-1119047Y-30518452D01*
X-547619Y-31089880D01*
X-1166666Y-31089880D01*
X-2119047Y-31089880D02*
X-1547619Y-31089880D01*
X-1833333Y-31089880D02*
X-1833333Y-30089880D01*
X-1738095Y-30232738D01*
X-1642857Y-30327976D01*
X-1547619Y-30375595D01*
X172595238Y-12089880D02*
X173071428Y-12089880D01*
X173071428Y-11089880D01*
X172261904Y-11566071D02*
X171928571Y-11566071D01*
X171785714Y-12089880D02*
X172261904Y-12089880D01*
X172261904Y-11089880D01*
X171785714Y-11089880D01*
X171357142Y-12089880D02*
X171357142Y-11089880D01*
X171119047Y-11089880D01*
X170976190Y-11137500D01*
X170880952Y-11232738D01*
X170833333Y-11327976D01*
X170785714Y-11518452D01*
X170785714Y-11661309D01*
X170833333Y-11851785D01*
X170880952Y-11947023D01*
X170976190Y-12042261D01*
X171119047Y-12089880D01*
X171357142Y-12089880D01*
X170404761Y-11185119D02*
X170357142Y-11137500D01*
X170261904Y-11089880D01*
X170023809Y-11089880D01*
X169928571Y-11137500D01*
X169880952Y-11185119D01*
X169833333Y-11280357D01*
X169833333Y-11375595D01*
X169880952Y-11518452D01*
X170452380Y-12089880D01*
X169833333Y-12089880D01*
X169214285Y-11089880D02*
X169119047Y-11089880D01*
X169023809Y-11137500D01*
X168976190Y-11185119D01*
X168928571Y-11280357D01*
X168880952Y-11470833D01*
X168880952Y-11708928D01*
X168928571Y-11899404D01*
X168976190Y-11994642D01*
X169023809Y-12042261D01*
X169119047Y-12089880D01*
X169214285Y-12089880D01*
X169309523Y-12042261D01*
X169357142Y-11994642D01*
X169404761Y-11899404D01*
X169452380Y-11708928D01*
X169452380Y-11470833D01*
X169404761Y-11280357D01*
X169357142Y-11185119D01*
X169309523Y-11137500D01*
X169214285Y-11089880D01*
X20119047Y6910119D02*
X20595238Y6910119D01*
X20595238Y7910119D01*
X19785714Y7433928D02*
X19452380Y7433928D01*
X19309523Y6910119D02*
X19785714Y6910119D01*
X19785714Y7910119D01*
X19309523Y7910119D01*
X18880952Y6910119D02*
X18880952Y7910119D01*
X18642857Y7910119D01*
X18500000Y7862500D01*
X18404761Y7767261D01*
X18357142Y7672023D01*
X18309523Y7481547D01*
X18309523Y7338690D01*
X18357142Y7148214D01*
X18404761Y7052976D01*
X18500000Y6957738D01*
X18642857Y6910119D01*
X18880952Y6910119D01*
X17928571Y7814880D02*
X17880952Y7862500D01*
X17785714Y7910119D01*
X17547619Y7910119D01*
X17452380Y7862500D01*
X17404761Y7814880D01*
X17357142Y7719642D01*
X17357142Y7624404D01*
X17404761Y7481547D01*
X17976190Y6910119D01*
X17357142Y6910119D01*
X153595238Y-12089880D02*
X154071428Y-12089880D01*
X154071428Y-11089880D01*
X153261904Y-11566071D02*
X152928571Y-11566071D01*
X152785714Y-12089880D02*
X153261904Y-12089880D01*
X153261904Y-11089880D01*
X152785714Y-11089880D01*
X152357142Y-12089880D02*
X152357142Y-11089880D01*
X152119047Y-11089880D01*
X151976190Y-11137500D01*
X151880952Y-11232738D01*
X151833333Y-11327976D01*
X151785714Y-11518452D01*
X151785714Y-11661309D01*
X151833333Y-11851785D01*
X151880952Y-11947023D01*
X151976190Y-12042261D01*
X152119047Y-12089880D01*
X152357142Y-12089880D01*
X150833333Y-12089880D02*
X151404761Y-12089880D01*
X151119047Y-12089880D02*
X151119047Y-11089880D01*
X151214285Y-11232738D01*
X151309523Y-11327976D01*
X151404761Y-11375595D01*
X150357142Y-12089880D02*
X150166666Y-12089880D01*
X150071428Y-12042261D01*
X150023809Y-11994642D01*
X149928571Y-11851785D01*
X149880952Y-11661309D01*
X149880952Y-11280357D01*
X149928571Y-11185119D01*
X149976190Y-11137500D01*
X150071428Y-11089880D01*
X150261904Y-11089880D01*
X150357142Y-11137500D01*
X150404761Y-11185119D01*
X150452380Y-11280357D01*
X150452380Y-11518452D01*
X150404761Y-11613690D01*
X150357142Y-11661309D01*
X150261904Y-11708928D01*
X150071428Y-11708928D01*
X149976190Y-11661309D01*
X149928571Y-11613690D01*
X149880952Y-11518452D01*
X134595238Y-12089880D02*
X135071428Y-12089880D01*
X135071428Y-11089880D01*
X134261904Y-11566071D02*
X133928571Y-11566071D01*
X133785714Y-12089880D02*
X134261904Y-12089880D01*
X134261904Y-11089880D01*
X133785714Y-11089880D01*
X133357142Y-12089880D02*
X133357142Y-11089880D01*
X133119047Y-11089880D01*
X132976190Y-11137500D01*
X132880952Y-11232738D01*
X132833333Y-11327976D01*
X132785714Y-11518452D01*
X132785714Y-11661309D01*
X132833333Y-11851785D01*
X132880952Y-11947023D01*
X132976190Y-12042261D01*
X133119047Y-12089880D01*
X133357142Y-12089880D01*
X131833333Y-12089880D02*
X132404761Y-12089880D01*
X132119047Y-12089880D02*
X132119047Y-11089880D01*
X132214285Y-11232738D01*
X132309523Y-11327976D01*
X132404761Y-11375595D01*
X131261904Y-11518452D02*
X131357142Y-11470833D01*
X131404761Y-11423214D01*
X131452380Y-11327976D01*
X131452380Y-11280357D01*
X131404761Y-11185119D01*
X131357142Y-11137500D01*
X131261904Y-11089880D01*
X131071428Y-11089880D01*
X130976190Y-11137500D01*
X130928571Y-11185119D01*
X130880952Y-11280357D01*
X130880952Y-11327976D01*
X130928571Y-11423214D01*
X130976190Y-11470833D01*
X131071428Y-11518452D01*
X131261904Y-11518452D01*
X131357142Y-11566071D01*
X131404761Y-11613690D01*
X131452380Y-11708928D01*
X131452380Y-11899404D01*
X131404761Y-11994642D01*
X131357142Y-12042261D01*
X131261904Y-12089880D01*
X131071428Y-12089880D01*
X130976190Y-12042261D01*
X130928571Y-11994642D01*
X130880952Y-11899404D01*
X130880952Y-11708928D01*
X130928571Y-11613690D01*
X130976190Y-11566071D01*
X131071428Y-11518452D01*
X115595238Y-12089880D02*
X116071428Y-12089880D01*
X116071428Y-11089880D01*
X115261904Y-11566071D02*
X114928571Y-11566071D01*
X114785714Y-12089880D02*
X115261904Y-12089880D01*
X115261904Y-11089880D01*
X114785714Y-11089880D01*
X114357142Y-12089880D02*
X114357142Y-11089880D01*
X114119047Y-11089880D01*
X113976190Y-11137500D01*
X113880952Y-11232738D01*
X113833333Y-11327976D01*
X113785714Y-11518452D01*
X113785714Y-11661309D01*
X113833333Y-11851785D01*
X113880952Y-11947023D01*
X113976190Y-12042261D01*
X114119047Y-12089880D01*
X114357142Y-12089880D01*
X112833333Y-12089880D02*
X113404761Y-12089880D01*
X113119047Y-12089880D02*
X113119047Y-11089880D01*
X113214285Y-11232738D01*
X113309523Y-11327976D01*
X113404761Y-11375595D01*
X112500000Y-11089880D02*
X111833333Y-11089880D01*
X112261904Y-12089880D01*
X96595238Y-12089880D02*
X97071428Y-12089880D01*
X97071428Y-11089880D01*
X96261904Y-11566071D02*
X95928571Y-11566071D01*
X95785714Y-12089880D02*
X96261904Y-12089880D01*
X96261904Y-11089880D01*
X95785714Y-11089880D01*
X95357142Y-12089880D02*
X95357142Y-11089880D01*
X95119047Y-11089880D01*
X94976190Y-11137500D01*
X94880952Y-11232738D01*
X94833333Y-11327976D01*
X94785714Y-11518452D01*
X94785714Y-11661309D01*
X94833333Y-11851785D01*
X94880952Y-11947023D01*
X94976190Y-12042261D01*
X95119047Y-12089880D01*
X95357142Y-12089880D01*
X93833333Y-12089880D02*
X94404761Y-12089880D01*
X94119047Y-12089880D02*
X94119047Y-11089880D01*
X94214285Y-11232738D01*
X94309523Y-11327976D01*
X94404761Y-11375595D01*
X92976190Y-11089880D02*
X93166666Y-11089880D01*
X93261904Y-11137500D01*
X93309523Y-11185119D01*
X93404761Y-11327976D01*
X93452380Y-11518452D01*
X93452380Y-11899404D01*
X93404761Y-11994642D01*
X93357142Y-12042261D01*
X93261904Y-12089880D01*
X93071428Y-12089880D01*
X92976190Y-12042261D01*
X92928571Y-11994642D01*
X92880952Y-11899404D01*
X92880952Y-11661309D01*
X92928571Y-11566071D01*
X92976190Y-11518452D01*
X93071428Y-11470833D01*
X93261904Y-11470833D01*
X93357142Y-11518452D01*
X93404761Y-11566071D01*
X93452380Y-11661309D01*
X77595238Y-12089880D02*
X78071428Y-12089880D01*
X78071428Y-11089880D01*
X77261904Y-11566071D02*
X76928571Y-11566071D01*
X76785714Y-12089880D02*
X77261904Y-12089880D01*
X77261904Y-11089880D01*
X76785714Y-11089880D01*
X76357142Y-12089880D02*
X76357142Y-11089880D01*
X76119047Y-11089880D01*
X75976190Y-11137500D01*
X75880952Y-11232738D01*
X75833333Y-11327976D01*
X75785714Y-11518452D01*
X75785714Y-11661309D01*
X75833333Y-11851785D01*
X75880952Y-11947023D01*
X75976190Y-12042261D01*
X76119047Y-12089880D01*
X76357142Y-12089880D01*
X74833333Y-12089880D02*
X75404761Y-12089880D01*
X75119047Y-12089880D02*
X75119047Y-11089880D01*
X75214285Y-11232738D01*
X75309523Y-11327976D01*
X75404761Y-11375595D01*
X73928571Y-11089880D02*
X74404761Y-11089880D01*
X74452380Y-11566071D01*
X74404761Y-11518452D01*
X74309523Y-11470833D01*
X74071428Y-11470833D01*
X73976190Y-11518452D01*
X73928571Y-11566071D01*
X73880952Y-11661309D01*
X73880952Y-11899404D01*
X73928571Y-11994642D01*
X73976190Y-12042261D01*
X74071428Y-12089880D01*
X74309523Y-12089880D01*
X74404761Y-12042261D01*
X74452380Y-11994642D01*
X58595238Y-12089880D02*
X59071428Y-12089880D01*
X59071428Y-11089880D01*
X58261904Y-11566071D02*
X57928571Y-11566071D01*
X57785714Y-12089880D02*
X58261904Y-12089880D01*
X58261904Y-11089880D01*
X57785714Y-11089880D01*
X57357142Y-12089880D02*
X57357142Y-11089880D01*
X57119047Y-11089880D01*
X56976190Y-11137500D01*
X56880952Y-11232738D01*
X56833333Y-11327976D01*
X56785714Y-11518452D01*
X56785714Y-11661309D01*
X56833333Y-11851785D01*
X56880952Y-11947023D01*
X56976190Y-12042261D01*
X57119047Y-12089880D01*
X57357142Y-12089880D01*
X55833333Y-12089880D02*
X56404761Y-12089880D01*
X56119047Y-12089880D02*
X56119047Y-11089880D01*
X56214285Y-11232738D01*
X56309523Y-11327976D01*
X56404761Y-11375595D01*
X54976190Y-11423214D02*
X54976190Y-12089880D01*
X55214285Y-11042261D02*
X55452380Y-11756547D01*
X54833333Y-11756547D01*
X39595238Y-12089880D02*
X40071428Y-12089880D01*
X40071428Y-11089880D01*
X39261904Y-11566071D02*
X38928571Y-11566071D01*
X38785714Y-12089880D02*
X39261904Y-12089880D01*
X39261904Y-11089880D01*
X38785714Y-11089880D01*
X38357142Y-12089880D02*
X38357142Y-11089880D01*
X38119047Y-11089880D01*
X37976190Y-11137500D01*
X37880952Y-11232738D01*
X37833333Y-11327976D01*
X37785714Y-11518452D01*
X37785714Y-11661309D01*
X37833333Y-11851785D01*
X37880952Y-11947023D01*
X37976190Y-12042261D01*
X38119047Y-12089880D01*
X38357142Y-12089880D01*
X36833333Y-12089880D02*
X37404761Y-12089880D01*
X37119047Y-12089880D02*
X37119047Y-11089880D01*
X37214285Y-11232738D01*
X37309523Y-11327976D01*
X37404761Y-11375595D01*
X36500000Y-11089880D02*
X35880952Y-11089880D01*
X36214285Y-11470833D01*
X36071428Y-11470833D01*
X35976190Y-11518452D01*
X35928571Y-11566071D01*
X35880952Y-11661309D01*
X35880952Y-11899404D01*
X35928571Y-11994642D01*
X35976190Y-12042261D01*
X36071428Y-12089880D01*
X36357142Y-12089880D01*
X36452380Y-12042261D01*
X36500000Y-11994642D01*
X20595238Y-12089880D02*
X21071428Y-12089880D01*
X21071428Y-11089880D01*
X20261904Y-11566071D02*
X19928571Y-11566071D01*
X19785714Y-12089880D02*
X20261904Y-12089880D01*
X20261904Y-11089880D01*
X19785714Y-11089880D01*
X19357142Y-12089880D02*
X19357142Y-11089880D01*
X19119047Y-11089880D01*
X18976190Y-11137500D01*
X18880952Y-11232738D01*
X18833333Y-11327976D01*
X18785714Y-11518452D01*
X18785714Y-11661309D01*
X18833333Y-11851785D01*
X18880952Y-11947023D01*
X18976190Y-12042261D01*
X19119047Y-12089880D01*
X19357142Y-12089880D01*
X17833333Y-12089880D02*
X18404761Y-12089880D01*
X18119047Y-12089880D02*
X18119047Y-11089880D01*
X18214285Y-11232738D01*
X18309523Y-11327976D01*
X18404761Y-11375595D01*
X17452380Y-11185119D02*
X17404761Y-11137500D01*
X17309523Y-11089880D01*
X17071428Y-11089880D01*
X16976190Y-11137500D01*
X16928571Y-11185119D01*
X16880952Y-11280357D01*
X16880952Y-11375595D01*
X16928571Y-11518452D01*
X17500000Y-12089880D01*
X16880952Y-12089880D01*
X1595238Y-12089880D02*
X2071428Y-12089880D01*
X2071428Y-11089880D01*
X1261904Y-11566071D02*
X928571Y-11566071D01*
X785714Y-12089880D02*
X1261904Y-12089880D01*
X1261904Y-11089880D01*
X785714Y-11089880D01*
X357142Y-12089880D02*
X357142Y-11089880D01*
X119047Y-11089880D01*
X-23809Y-11137500D01*
X-119047Y-11232738D01*
X-166666Y-11327976D01*
X-214285Y-11518452D01*
X-214285Y-11661309D01*
X-166666Y-11851785D01*
X-119047Y-11947023D01*
X-23809Y-12042261D01*
X119047Y-12089880D01*
X357142Y-12089880D01*
X-1166666Y-12089880D02*
X-595238Y-12089880D01*
X-880952Y-12089880D02*
X-880952Y-11089880D01*
X-785714Y-11232738D01*
X-690476Y-11327976D01*
X-595238Y-11375595D01*
X-2119047Y-12089880D02*
X-1547619Y-12089880D01*
X-1833333Y-12089880D02*
X-1833333Y-11089880D01*
X-1738095Y-11232738D01*
X-1642857Y-11327976D01*
X-1547619Y-11375595D01*
X172595238Y6910119D02*
X173071428Y6910119D01*
X173071428Y7910119D01*
X172261904Y7433928D02*
X171928571Y7433928D01*
X171785714Y6910119D02*
X172261904Y6910119D01*
X172261904Y7910119D01*
X171785714Y7910119D01*
X171357142Y6910119D02*
X171357142Y7910119D01*
X171119047Y7910119D01*
X170976190Y7862500D01*
X170880952Y7767261D01*
X170833333Y7672023D01*
X170785714Y7481547D01*
X170785714Y7338690D01*
X170833333Y7148214D01*
X170880952Y7052976D01*
X170976190Y6957738D01*
X171119047Y6910119D01*
X171357142Y6910119D01*
X169833333Y6910119D02*
X170404761Y6910119D01*
X170119047Y6910119D02*
X170119047Y7910119D01*
X170214285Y7767261D01*
X170309523Y7672023D01*
X170404761Y7624404D01*
X169214285Y7910119D02*
X169119047Y7910119D01*
X169023809Y7862500D01*
X168976190Y7814880D01*
X168928571Y7719642D01*
X168880952Y7529166D01*
X168880952Y7291071D01*
X168928571Y7100595D01*
X168976190Y7005357D01*
X169023809Y6957738D01*
X169119047Y6910119D01*
X169214285Y6910119D01*
X169309523Y6957738D01*
X169357142Y7005357D01*
X169404761Y7100595D01*
X169452380Y7291071D01*
X169452380Y7529166D01*
X169404761Y7719642D01*
X169357142Y7814880D01*
X169309523Y7862500D01*
X169214285Y7910119D01*
X1119047Y6910119D02*
X1595238Y6910119D01*
X1595238Y7910119D01*
X785714Y7433928D02*
X452380Y7433928D01*
X309523Y6910119D02*
X785714Y6910119D01*
X785714Y7910119D01*
X309523Y7910119D01*
X-119047Y6910119D02*
X-119047Y7910119D01*
X-357142Y7910119D01*
X-500000Y7862500D01*
X-595238Y7767261D01*
X-642857Y7672023D01*
X-690476Y7481547D01*
X-690476Y7338690D01*
X-642857Y7148214D01*
X-595238Y7052976D01*
X-500000Y6957738D01*
X-357142Y6910119D01*
X-119047Y6910119D01*
X-1642857Y6910119D02*
X-1071428Y6910119D01*
X-1357142Y6910119D02*
X-1357142Y7910119D01*
X-1261904Y7767261D01*
X-1166666Y7672023D01*
X-1071428Y7624404D01*
X157311785Y-8752380D02*
X157311785Y-7752380D01*
X156740357Y-8752380D02*
X157168928Y-8180952D01*
X156740357Y-7752380D02*
X157311785Y-8323809D01*
X156264166Y-8752380D02*
X156073690Y-8752380D01*
X155978452Y-8704761D01*
X155930833Y-8657142D01*
X155835595Y-8514285D01*
X155787976Y-8323809D01*
X155787976Y-7942857D01*
X155835595Y-7847619D01*
X155883214Y-7800000D01*
X155978452Y-7752380D01*
X156168928Y-7752380D01*
X156264166Y-7800000D01*
X156311785Y-7847619D01*
X156359404Y-7942857D01*
X156359404Y-8180952D01*
X156311785Y-8276190D01*
X156264166Y-8323809D01*
X156168928Y-8371428D01*
X155978452Y-8371428D01*
X155883214Y-8323809D01*
X155835595Y-8276190D01*
X155787976Y-8180952D01*
X148273928Y-7852380D02*
X148083452Y-7852380D01*
X147988214Y-7900000D01*
X147892976Y-7995238D01*
X147845357Y-8185714D01*
X147845357Y-8519047D01*
X147892976Y-8709523D01*
X147988214Y-8804761D01*
X148083452Y-8852380D01*
X148273928Y-8852380D01*
X148369166Y-8804761D01*
X148464404Y-8709523D01*
X148512023Y-8519047D01*
X148512023Y-8185714D01*
X148464404Y-7995238D01*
X148369166Y-7900000D01*
X148273928Y-7852380D01*
X138311785Y-8752380D02*
X138311785Y-7752380D01*
X137740357Y-8752380D02*
X138168928Y-8180952D01*
X137740357Y-7752380D02*
X138311785Y-8323809D01*
X137168928Y-8180952D02*
X137264166Y-8133333D01*
X137311785Y-8085714D01*
X137359404Y-7990476D01*
X137359404Y-7942857D01*
X137311785Y-7847619D01*
X137264166Y-7800000D01*
X137168928Y-7752380D01*
X136978452Y-7752380D01*
X136883214Y-7800000D01*
X136835595Y-7847619D01*
X136787976Y-7942857D01*
X136787976Y-7990476D01*
X136835595Y-8085714D01*
X136883214Y-8133333D01*
X136978452Y-8180952D01*
X137168928Y-8180952D01*
X137264166Y-8228571D01*
X137311785Y-8276190D01*
X137359404Y-8371428D01*
X137359404Y-8561904D01*
X137311785Y-8657142D01*
X137264166Y-8704761D01*
X137168928Y-8752380D01*
X136978452Y-8752380D01*
X136883214Y-8704761D01*
X136835595Y-8657142D01*
X136787976Y-8561904D01*
X136787976Y-8371428D01*
X136835595Y-8276190D01*
X136883214Y-8228571D01*
X136978452Y-8180952D01*
X129464404Y-8852380D02*
X129464404Y-7852380D01*
X119311785Y-8752380D02*
X119311785Y-7752380D01*
X118740357Y-8752380D02*
X119168928Y-8180952D01*
X118740357Y-7752380D02*
X119311785Y-8323809D01*
X118407023Y-7752380D02*
X117740357Y-7752380D01*
X118168928Y-8752380D01*
X110464404Y-7852380D02*
X110464404Y-8661904D01*
X110416785Y-8757142D01*
X110369166Y-8804761D01*
X110273928Y-8852380D01*
X110083452Y-8852380D01*
X109988214Y-8804761D01*
X109940595Y-8757142D01*
X109892976Y-8661904D01*
X109892976Y-7852380D01*
X100311785Y-8752380D02*
X100311785Y-7752380D01*
X99740357Y-8752380D02*
X100168928Y-8180952D01*
X99740357Y-7752380D02*
X100311785Y-8323809D01*
X98883214Y-7752380D02*
X99073690Y-7752380D01*
X99168928Y-7800000D01*
X99216547Y-7847619D01*
X99311785Y-7990476D01*
X99359404Y-8180952D01*
X99359404Y-8561904D01*
X99311785Y-8657142D01*
X99264166Y-8704761D01*
X99168928Y-8752380D01*
X98978452Y-8752380D01*
X98883214Y-8704761D01*
X98835595Y-8657142D01*
X98787976Y-8561904D01*
X98787976Y-8323809D01*
X98835595Y-8228571D01*
X98883214Y-8180952D01*
X98978452Y-8133333D01*
X99168928Y-8133333D01*
X99264166Y-8180952D01*
X99311785Y-8228571D01*
X99359404Y-8323809D01*
X91273928Y-8376190D02*
X91273928Y-8852380D01*
X91607261Y-7852380D02*
X91273928Y-8376190D01*
X90940595Y-7852380D01*
X81311785Y-8752380D02*
X81311785Y-7752380D01*
X80740357Y-8752380D02*
X81168928Y-8180952D01*
X80740357Y-7752380D02*
X81311785Y-8323809D01*
X79835595Y-7752380D02*
X80311785Y-7752380D01*
X80359404Y-8228571D01*
X80311785Y-8180952D01*
X80216547Y-8133333D01*
X79978452Y-8133333D01*
X79883214Y-8180952D01*
X79835595Y-8228571D01*
X79787976Y-8323809D01*
X79787976Y-8561904D01*
X79835595Y-8657142D01*
X79883214Y-8704761D01*
X79978452Y-8752380D01*
X80216547Y-8752380D01*
X80311785Y-8704761D01*
X80359404Y-8657142D01*
X72607261Y-7852380D02*
X72035833Y-7852380D01*
X72321547Y-8852380D02*
X72321547Y-7852380D01*
X62311785Y-8752380D02*
X62311785Y-7752380D01*
X61740357Y-8752380D02*
X62168928Y-8180952D01*
X61740357Y-7752380D02*
X62311785Y-8323809D01*
X60883214Y-8085714D02*
X60883214Y-8752380D01*
X61121309Y-7704761D02*
X61359404Y-8419047D01*
X60740357Y-8419047D01*
X52892976Y-8852380D02*
X53226309Y-8376190D01*
X53464404Y-8852380D02*
X53464404Y-7852380D01*
X53083452Y-7852380D01*
X52988214Y-7900000D01*
X52940595Y-7947619D01*
X52892976Y-8042857D01*
X52892976Y-8185714D01*
X52940595Y-8280952D01*
X52988214Y-8328571D01*
X53083452Y-8376190D01*
X53464404Y-8376190D01*
X177264166Y-46752380D02*
X177264166Y-45752380D01*
X176692738Y-46752380D02*
X177121309Y-46180952D01*
X176692738Y-45752380D02*
X177264166Y-46323809D01*
X176359404Y-45752380D02*
X175740357Y-45752380D01*
X176073690Y-46133333D01*
X175930833Y-46133333D01*
X175835595Y-46180952D01*
X175787976Y-46228571D01*
X175740357Y-46323809D01*
X175740357Y-46561904D01*
X175787976Y-46657142D01*
X175835595Y-46704761D01*
X175930833Y-46752380D01*
X176216547Y-46752380D01*
X176311785Y-46704761D01*
X176359404Y-46657142D01*
X175121309Y-45752380D02*
X175026071Y-45752380D01*
X174930833Y-45800000D01*
X174883214Y-45847619D01*
X174835595Y-45942857D01*
X174787976Y-46133333D01*
X174787976Y-46371428D01*
X174835595Y-46561904D01*
X174883214Y-46657142D01*
X174930833Y-46704761D01*
X175026071Y-46752380D01*
X175121309Y-46752380D01*
X175216547Y-46704761D01*
X175264166Y-46657142D01*
X175311785Y-46561904D01*
X175359404Y-46371428D01*
X175359404Y-46133333D01*
X175311785Y-45942857D01*
X175264166Y-45847619D01*
X175216547Y-45800000D01*
X175121309Y-45752380D01*
X167464404Y-46328571D02*
X167131071Y-46328571D01*
X166988214Y-46852380D02*
X167464404Y-46852380D01*
X167464404Y-45852380D01*
X166988214Y-45852380D01*
X166559642Y-46185714D02*
X166559642Y-46852380D01*
X166559642Y-46280952D02*
X166512023Y-46233333D01*
X166416785Y-46185714D01*
X166273928Y-46185714D01*
X166178690Y-46233333D01*
X166131071Y-46328571D01*
X166131071Y-46852380D01*
X165797738Y-46185714D02*
X165416785Y-46185714D01*
X165654880Y-45852380D02*
X165654880Y-46709523D01*
X165607261Y-46804761D01*
X165512023Y-46852380D01*
X165416785Y-46852380D01*
X43311785Y-8752380D02*
X43311785Y-7752380D01*
X42740357Y-8752380D02*
X43168928Y-8180952D01*
X42740357Y-7752380D02*
X43311785Y-8323809D01*
X42407023Y-7752380D02*
X41787976Y-7752380D01*
X42121309Y-8133333D01*
X41978452Y-8133333D01*
X41883214Y-8180952D01*
X41835595Y-8228571D01*
X41787976Y-8323809D01*
X41787976Y-8561904D01*
X41835595Y-8657142D01*
X41883214Y-8704761D01*
X41978452Y-8752380D01*
X42264166Y-8752380D01*
X42359404Y-8704761D01*
X42407023Y-8657142D01*
X34464404Y-8328571D02*
X34131071Y-8328571D01*
X33988214Y-8852380D02*
X34464404Y-8852380D01*
X34464404Y-7852380D01*
X33988214Y-7852380D01*
X158264166Y-46752380D02*
X158264166Y-45752380D01*
X157692738Y-46752380D02*
X158121309Y-46180952D01*
X157692738Y-45752380D02*
X158264166Y-46323809D01*
X157311785Y-45847619D02*
X157264166Y-45800000D01*
X157168928Y-45752380D01*
X156930833Y-45752380D01*
X156835595Y-45800000D01*
X156787976Y-45847619D01*
X156740357Y-45942857D01*
X156740357Y-46038095D01*
X156787976Y-46180952D01*
X157359404Y-46752380D01*
X156740357Y-46752380D01*
X156264166Y-46752380D02*
X156073690Y-46752380D01*
X155978452Y-46704761D01*
X155930833Y-46657142D01*
X155835595Y-46514285D01*
X155787976Y-46323809D01*
X155787976Y-45942857D01*
X155835595Y-45847619D01*
X155883214Y-45800000D01*
X155978452Y-45752380D01*
X156168928Y-45752380D01*
X156264166Y-45800000D01*
X156311785Y-45847619D01*
X156359404Y-45942857D01*
X156359404Y-46180952D01*
X156311785Y-46276190D01*
X156264166Y-46323809D01*
X156168928Y-46371428D01*
X155978452Y-46371428D01*
X155883214Y-46323809D01*
X155835595Y-46276190D01*
X155787976Y-46180952D01*
X148464404Y-46852380D02*
X148464404Y-45852380D01*
X148131071Y-46566666D01*
X147797738Y-45852380D01*
X147797738Y-46852380D01*
X139264166Y-46752380D02*
X139264166Y-45752380D01*
X138692738Y-46752380D02*
X139121309Y-46180952D01*
X138692738Y-45752380D02*
X139264166Y-46323809D01*
X138311785Y-45847619D02*
X138264166Y-45800000D01*
X138168928Y-45752380D01*
X137930833Y-45752380D01*
X137835595Y-45800000D01*
X137787976Y-45847619D01*
X137740357Y-45942857D01*
X137740357Y-46038095D01*
X137787976Y-46180952D01*
X138359404Y-46752380D01*
X137740357Y-46752380D01*
X137168928Y-46180952D02*
X137264166Y-46133333D01*
X137311785Y-46085714D01*
X137359404Y-45990476D01*
X137359404Y-45942857D01*
X137311785Y-45847619D01*
X137264166Y-45800000D01*
X137168928Y-45752380D01*
X136978452Y-45752380D01*
X136883214Y-45800000D01*
X136835595Y-45847619D01*
X136787976Y-45942857D01*
X136787976Y-45990476D01*
X136835595Y-46085714D01*
X136883214Y-46133333D01*
X136978452Y-46180952D01*
X137168928Y-46180952D01*
X137264166Y-46228571D01*
X137311785Y-46276190D01*
X137359404Y-46371428D01*
X137359404Y-46561904D01*
X137311785Y-46657142D01*
X137264166Y-46704761D01*
X137168928Y-46752380D01*
X136978452Y-46752380D01*
X136883214Y-46704761D01*
X136835595Y-46657142D01*
X136787976Y-46561904D01*
X136787976Y-46371428D01*
X136835595Y-46276190D01*
X136883214Y-46228571D01*
X136978452Y-46180952D01*
X129464404Y-46852380D02*
X129464404Y-45852380D01*
X128892976Y-46852380D01*
X128892976Y-45852380D01*
X120264166Y-46752380D02*
X120264166Y-45752380D01*
X119692738Y-46752380D02*
X120121309Y-46180952D01*
X119692738Y-45752380D02*
X120264166Y-46323809D01*
X119311785Y-45847619D02*
X119264166Y-45800000D01*
X119168928Y-45752380D01*
X118930833Y-45752380D01*
X118835595Y-45800000D01*
X118787976Y-45847619D01*
X118740357Y-45942857D01*
X118740357Y-46038095D01*
X118787976Y-46180952D01*
X119359404Y-46752380D01*
X118740357Y-46752380D01*
X118407023Y-45752380D02*
X117740357Y-45752380D01*
X118168928Y-46752380D01*
X110131071Y-46328571D02*
X109988214Y-46376190D01*
X109940595Y-46423809D01*
X109892976Y-46519047D01*
X109892976Y-46661904D01*
X109940595Y-46757142D01*
X109988214Y-46804761D01*
X110083452Y-46852380D01*
X110464404Y-46852380D01*
X110464404Y-45852380D01*
X110131071Y-45852380D01*
X110035833Y-45900000D01*
X109988214Y-45947619D01*
X109940595Y-46042857D01*
X109940595Y-46138095D01*
X109988214Y-46233333D01*
X110035833Y-46280952D01*
X110131071Y-46328571D01*
X110464404Y-46328571D01*
X101264166Y-46752380D02*
X101264166Y-45752380D01*
X100692738Y-46752380D02*
X101121309Y-46180952D01*
X100692738Y-45752380D02*
X101264166Y-46323809D01*
X100311785Y-45847619D02*
X100264166Y-45800000D01*
X100168928Y-45752380D01*
X99930833Y-45752380D01*
X99835595Y-45800000D01*
X99787976Y-45847619D01*
X99740357Y-45942857D01*
X99740357Y-46038095D01*
X99787976Y-46180952D01*
X100359404Y-46752380D01*
X99740357Y-46752380D01*
X98883214Y-45752380D02*
X99073690Y-45752380D01*
X99168928Y-45800000D01*
X99216547Y-45847619D01*
X99311785Y-45990476D01*
X99359404Y-46180952D01*
X99359404Y-46561904D01*
X99311785Y-46657142D01*
X99264166Y-46704761D01*
X99168928Y-46752380D01*
X98978452Y-46752380D01*
X98883214Y-46704761D01*
X98835595Y-46657142D01*
X98787976Y-46561904D01*
X98787976Y-46323809D01*
X98835595Y-46228571D01*
X98883214Y-46180952D01*
X98978452Y-46133333D01*
X99168928Y-46133333D01*
X99264166Y-46180952D01*
X99311785Y-46228571D01*
X99359404Y-46323809D01*
X91512023Y-46804761D02*
X91369166Y-46852380D01*
X91131071Y-46852380D01*
X91035833Y-46804761D01*
X90988214Y-46757142D01*
X90940595Y-46661904D01*
X90940595Y-46566666D01*
X90988214Y-46471428D01*
X91035833Y-46423809D01*
X91131071Y-46376190D01*
X91321547Y-46328571D01*
X91416785Y-46280952D01*
X91464404Y-46233333D01*
X91512023Y-46138095D01*
X91512023Y-46042857D01*
X91464404Y-45947619D01*
X91416785Y-45900000D01*
X91321547Y-45852380D01*
X91083452Y-45852380D01*
X90940595Y-45900000D01*
X90512023Y-46185714D02*
X90512023Y-47185714D01*
X90512023Y-46233333D02*
X90416785Y-46185714D01*
X90226309Y-46185714D01*
X90131071Y-46233333D01*
X90083452Y-46280952D01*
X90035833Y-46376190D01*
X90035833Y-46661904D01*
X90083452Y-46757142D01*
X90131071Y-46804761D01*
X90226309Y-46852380D01*
X90416785Y-46852380D01*
X90512023Y-46804761D01*
X89178690Y-46804761D02*
X89273928Y-46852380D01*
X89464404Y-46852380D01*
X89559642Y-46804761D01*
X89607261Y-46757142D01*
X89654880Y-46661904D01*
X89654880Y-46376190D01*
X89607261Y-46280952D01*
X89559642Y-46233333D01*
X89464404Y-46185714D01*
X89273928Y-46185714D01*
X89178690Y-46233333D01*
X82264166Y-46752380D02*
X82264166Y-45752380D01*
X81692738Y-46752380D02*
X82121309Y-46180952D01*
X81692738Y-45752380D02*
X82264166Y-46323809D01*
X81311785Y-45847619D02*
X81264166Y-45800000D01*
X81168928Y-45752380D01*
X80930833Y-45752380D01*
X80835595Y-45800000D01*
X80787976Y-45847619D01*
X80740357Y-45942857D01*
X80740357Y-46038095D01*
X80787976Y-46180952D01*
X81359404Y-46752380D01*
X80740357Y-46752380D01*
X79835595Y-45752380D02*
X80311785Y-45752380D01*
X80359404Y-46228571D01*
X80311785Y-46180952D01*
X80216547Y-46133333D01*
X79978452Y-46133333D01*
X79883214Y-46180952D01*
X79835595Y-46228571D01*
X79787976Y-46323809D01*
X79787976Y-46561904D01*
X79835595Y-46657142D01*
X79883214Y-46704761D01*
X79978452Y-46752380D01*
X80216547Y-46752380D01*
X80311785Y-46704761D01*
X80359404Y-46657142D01*
X72131071Y-46328571D02*
X71988214Y-46376190D01*
X71940595Y-46423809D01*
X71892976Y-46519047D01*
X71892976Y-46661904D01*
X71940595Y-46757142D01*
X71988214Y-46804761D01*
X72083452Y-46852380D01*
X72464404Y-46852380D01*
X72464404Y-45852380D01*
X72131071Y-45852380D01*
X72035833Y-45900000D01*
X71988214Y-45947619D01*
X71940595Y-46042857D01*
X71940595Y-46138095D01*
X71988214Y-46233333D01*
X72035833Y-46280952D01*
X72131071Y-46328571D01*
X72464404Y-46328571D01*
X71512023Y-46804761D02*
X71416785Y-46852380D01*
X71226309Y-46852380D01*
X71131071Y-46804761D01*
X71083452Y-46709523D01*
X71083452Y-46661904D01*
X71131071Y-46566666D01*
X71226309Y-46519047D01*
X71369166Y-46519047D01*
X71464404Y-46471428D01*
X71512023Y-46376190D01*
X71512023Y-46328571D01*
X71464404Y-46233333D01*
X71369166Y-46185714D01*
X71226309Y-46185714D01*
X71131071Y-46233333D01*
X63264166Y-46752380D02*
X63264166Y-45752380D01*
X62692738Y-46752380D02*
X63121309Y-46180952D01*
X62692738Y-45752380D02*
X63264166Y-46323809D01*
X62311785Y-45847619D02*
X62264166Y-45800000D01*
X62168928Y-45752380D01*
X61930833Y-45752380D01*
X61835595Y-45800000D01*
X61787976Y-45847619D01*
X61740357Y-45942857D01*
X61740357Y-46038095D01*
X61787976Y-46180952D01*
X62359404Y-46752380D01*
X61740357Y-46752380D01*
X60883214Y-46085714D02*
X60883214Y-46752380D01*
X61121309Y-45704761D02*
X61359404Y-46419047D01*
X60740357Y-46419047D01*
X53607261Y-45852380D02*
X53273928Y-46852380D01*
X52940595Y-45852380D01*
X44264166Y-46752380D02*
X44264166Y-45752380D01*
X43692738Y-46752380D02*
X44121309Y-46180952D01*
X43692738Y-45752380D02*
X44264166Y-46323809D01*
X43311785Y-45847619D02*
X43264166Y-45800000D01*
X43168928Y-45752380D01*
X42930833Y-45752380D01*
X42835595Y-45800000D01*
X42787976Y-45847619D01*
X42740357Y-45942857D01*
X42740357Y-46038095D01*
X42787976Y-46180952D01*
X43359404Y-46752380D01*
X42740357Y-46752380D01*
X42407023Y-45752380D02*
X41787976Y-45752380D01*
X42121309Y-46133333D01*
X41978452Y-46133333D01*
X41883214Y-46180952D01*
X41835595Y-46228571D01*
X41787976Y-46323809D01*
X41787976Y-46561904D01*
X41835595Y-46657142D01*
X41883214Y-46704761D01*
X41978452Y-46752380D01*
X42264166Y-46752380D01*
X42359404Y-46704761D01*
X42407023Y-46657142D01*
X33892976Y-46757142D02*
X33940595Y-46804761D01*
X34083452Y-46852380D01*
X34178690Y-46852380D01*
X34321547Y-46804761D01*
X34416785Y-46709523D01*
X34464404Y-46614285D01*
X34512023Y-46423809D01*
X34512023Y-46280952D01*
X34464404Y-46090476D01*
X34416785Y-45995238D01*
X34321547Y-45900000D01*
X34178690Y-45852380D01*
X34083452Y-45852380D01*
X33940595Y-45900000D01*
X33892976Y-45947619D01*
X25264166Y-46752380D02*
X25264166Y-45752380D01*
X24692738Y-46752380D02*
X25121309Y-46180952D01*
X24692738Y-45752380D02*
X25264166Y-46323809D01*
X24311785Y-45847619D02*
X24264166Y-45800000D01*
X24168928Y-45752380D01*
X23930833Y-45752380D01*
X23835595Y-45800000D01*
X23787976Y-45847619D01*
X23740357Y-45942857D01*
X23740357Y-46038095D01*
X23787976Y-46180952D01*
X24359404Y-46752380D01*
X23740357Y-46752380D01*
X23359404Y-45847619D02*
X23311785Y-45800000D01*
X23216547Y-45752380D01*
X22978452Y-45752380D01*
X22883214Y-45800000D01*
X22835595Y-45847619D01*
X22787976Y-45942857D01*
X22787976Y-46038095D01*
X22835595Y-46180952D01*
X23407023Y-46752380D01*
X22787976Y-46752380D01*
X15559642Y-45852380D02*
X14892976Y-46852380D01*
X14892976Y-45852380D02*
X15559642Y-46852380D01*
X6264166Y-46752380D02*
X6264166Y-45752380D01*
X5692738Y-46752380D02*
X6121309Y-46180952D01*
X5692738Y-45752380D02*
X6264166Y-46323809D01*
X5311785Y-45847619D02*
X5264166Y-45800000D01*
X5168928Y-45752380D01*
X4930833Y-45752380D01*
X4835595Y-45800000D01*
X4787976Y-45847619D01*
X4740357Y-45942857D01*
X4740357Y-46038095D01*
X4787976Y-46180952D01*
X5359404Y-46752380D01*
X4740357Y-46752380D01*
X3787976Y-46752380D02*
X4359404Y-46752380D01*
X4073690Y-46752380D02*
X4073690Y-45752380D01*
X4168928Y-45895238D01*
X4264166Y-45990476D01*
X4359404Y-46038095D01*
X-3440357Y-45852380D02*
X-4107023Y-45852380D01*
X-3440357Y-46852380D01*
X-4107023Y-46852380D01*
X177264166Y-27752380D02*
X177264166Y-26752380D01*
X176692738Y-27752380D02*
X177121309Y-27180952D01*
X176692738Y-26752380D02*
X177264166Y-27323809D01*
X176311785Y-26847619D02*
X176264166Y-26800000D01*
X176168928Y-26752380D01*
X175930833Y-26752380D01*
X175835595Y-26800000D01*
X175787976Y-26847619D01*
X175740357Y-26942857D01*
X175740357Y-27038095D01*
X175787976Y-27180952D01*
X176359404Y-27752380D01*
X175740357Y-27752380D01*
X175121309Y-26752380D02*
X175026071Y-26752380D01*
X174930833Y-26800000D01*
X174883214Y-26847619D01*
X174835595Y-26942857D01*
X174787976Y-27133333D01*
X174787976Y-27371428D01*
X174835595Y-27561904D01*
X174883214Y-27657142D01*
X174930833Y-27704761D01*
X175026071Y-27752380D01*
X175121309Y-27752380D01*
X175216547Y-27704761D01*
X175264166Y-27657142D01*
X175311785Y-27561904D01*
X175359404Y-27371428D01*
X175359404Y-27133333D01*
X175311785Y-26942857D01*
X175264166Y-26847619D01*
X175216547Y-26800000D01*
X175121309Y-26752380D01*
X167464404Y-27328571D02*
X167131071Y-27328571D01*
X166988214Y-27852380D02*
X167464404Y-27852380D01*
X167464404Y-26852380D01*
X166988214Y-26852380D01*
X166607261Y-27804761D02*
X166512023Y-27852380D01*
X166321547Y-27852380D01*
X166226309Y-27804761D01*
X166178690Y-27709523D01*
X166178690Y-27661904D01*
X166226309Y-27566666D01*
X166321547Y-27519047D01*
X166464404Y-27519047D01*
X166559642Y-27471428D01*
X166607261Y-27376190D01*
X166607261Y-27328571D01*
X166559642Y-27233333D01*
X166464404Y-27185714D01*
X166321547Y-27185714D01*
X166226309Y-27233333D01*
X165321547Y-27804761D02*
X165416785Y-27852380D01*
X165607261Y-27852380D01*
X165702500Y-27804761D01*
X165750119Y-27757142D01*
X165797738Y-27661904D01*
X165797738Y-27376190D01*
X165750119Y-27280952D01*
X165702500Y-27233333D01*
X165607261Y-27185714D01*
X165416785Y-27185714D01*
X165321547Y-27233333D01*
X24311785Y-8752380D02*
X24311785Y-7752380D01*
X23740357Y-8752380D02*
X24168928Y-8180952D01*
X23740357Y-7752380D02*
X24311785Y-8323809D01*
X23359404Y-7847619D02*
X23311785Y-7800000D01*
X23216547Y-7752380D01*
X22978452Y-7752380D01*
X22883214Y-7800000D01*
X22835595Y-7847619D01*
X22787976Y-7942857D01*
X22787976Y-8038095D01*
X22835595Y-8180952D01*
X23407023Y-8752380D01*
X22787976Y-8752380D01*
X15559642Y-7852380D02*
X15321547Y-8852380D01*
X15131071Y-8138095D01*
X14940595Y-8852380D01*
X14702500Y-7852380D01*
X158264166Y-27752380D02*
X158264166Y-26752380D01*
X157692738Y-27752380D02*
X158121309Y-27180952D01*
X157692738Y-26752380D02*
X158264166Y-27323809D01*
X156740357Y-27752380D02*
X157311785Y-27752380D01*
X157026071Y-27752380D02*
X157026071Y-26752380D01*
X157121309Y-26895238D01*
X157216547Y-26990476D01*
X157311785Y-27038095D01*
X156264166Y-27752380D02*
X156073690Y-27752380D01*
X155978452Y-27704761D01*
X155930833Y-27657142D01*
X155835595Y-27514285D01*
X155787976Y-27323809D01*
X155787976Y-26942857D01*
X155835595Y-26847619D01*
X155883214Y-26800000D01*
X155978452Y-26752380D01*
X156168928Y-26752380D01*
X156264166Y-26800000D01*
X156311785Y-26847619D01*
X156359404Y-26942857D01*
X156359404Y-27180952D01*
X156311785Y-27276190D01*
X156264166Y-27323809D01*
X156168928Y-27371428D01*
X155978452Y-27371428D01*
X155883214Y-27323809D01*
X155835595Y-27276190D01*
X155787976Y-27180952D01*
X147988214Y-27852380D02*
X148464404Y-27852380D01*
X148464404Y-26852380D01*
X139264166Y-27752380D02*
X139264166Y-26752380D01*
X138692738Y-27752380D02*
X139121309Y-27180952D01*
X138692738Y-26752380D02*
X139264166Y-27323809D01*
X137740357Y-27752380D02*
X138311785Y-27752380D01*
X138026071Y-27752380D02*
X138026071Y-26752380D01*
X138121309Y-26895238D01*
X138216547Y-26990476D01*
X138311785Y-27038095D01*
X137168928Y-27180952D02*
X137264166Y-27133333D01*
X137311785Y-27085714D01*
X137359404Y-26990476D01*
X137359404Y-26942857D01*
X137311785Y-26847619D01*
X137264166Y-26800000D01*
X137168928Y-26752380D01*
X136978452Y-26752380D01*
X136883214Y-26800000D01*
X136835595Y-26847619D01*
X136787976Y-26942857D01*
X136787976Y-26990476D01*
X136835595Y-27085714D01*
X136883214Y-27133333D01*
X136978452Y-27180952D01*
X137168928Y-27180952D01*
X137264166Y-27228571D01*
X137311785Y-27276190D01*
X137359404Y-27371428D01*
X137359404Y-27561904D01*
X137311785Y-27657142D01*
X137264166Y-27704761D01*
X137168928Y-27752380D01*
X136978452Y-27752380D01*
X136883214Y-27704761D01*
X136835595Y-27657142D01*
X136787976Y-27561904D01*
X136787976Y-27371428D01*
X136835595Y-27276190D01*
X136883214Y-27228571D01*
X136978452Y-27180952D01*
X129464404Y-27852380D02*
X129464404Y-26852380D01*
X128892976Y-27852380D02*
X129321547Y-27280952D01*
X128892976Y-26852380D02*
X129464404Y-27423809D01*
X120264166Y-27752380D02*
X120264166Y-26752380D01*
X119692738Y-27752380D02*
X120121309Y-27180952D01*
X119692738Y-26752380D02*
X120264166Y-27323809D01*
X118740357Y-27752380D02*
X119311785Y-27752380D01*
X119026071Y-27752380D02*
X119026071Y-26752380D01*
X119121309Y-26895238D01*
X119216547Y-26990476D01*
X119311785Y-27038095D01*
X118407023Y-26752380D02*
X117740357Y-26752380D01*
X118168928Y-27752380D01*
X110178690Y-26852380D02*
X110178690Y-27566666D01*
X110226309Y-27709523D01*
X110321547Y-27804761D01*
X110464404Y-27852380D01*
X110559642Y-27852380D01*
X101264166Y-27752380D02*
X101264166Y-26752380D01*
X100692738Y-27752380D02*
X101121309Y-27180952D01*
X100692738Y-26752380D02*
X101264166Y-27323809D01*
X99740357Y-27752380D02*
X100311785Y-27752380D01*
X100026071Y-27752380D02*
X100026071Y-26752380D01*
X100121309Y-26895238D01*
X100216547Y-26990476D01*
X100311785Y-27038095D01*
X98883214Y-26752380D02*
X99073690Y-26752380D01*
X99168928Y-26800000D01*
X99216547Y-26847619D01*
X99311785Y-26990476D01*
X99359404Y-27180952D01*
X99359404Y-27561904D01*
X99311785Y-27657142D01*
X99264166Y-27704761D01*
X99168928Y-27752380D01*
X98978452Y-27752380D01*
X98883214Y-27704761D01*
X98835595Y-27657142D01*
X98787976Y-27561904D01*
X98787976Y-27323809D01*
X98835595Y-27228571D01*
X98883214Y-27180952D01*
X98978452Y-27133333D01*
X99168928Y-27133333D01*
X99264166Y-27180952D01*
X99311785Y-27228571D01*
X99359404Y-27323809D01*
X91464404Y-27852380D02*
X91464404Y-26852380D01*
X91464404Y-27328571D02*
X90892976Y-27328571D01*
X90892976Y-27852380D02*
X90892976Y-26852380D01*
X82264166Y-27752380D02*
X82264166Y-26752380D01*
X81692738Y-27752380D02*
X82121309Y-27180952D01*
X81692738Y-26752380D02*
X82264166Y-27323809D01*
X80740357Y-27752380D02*
X81311785Y-27752380D01*
X81026071Y-27752380D02*
X81026071Y-26752380D01*
X81121309Y-26895238D01*
X81216547Y-26990476D01*
X81311785Y-27038095D01*
X79835595Y-26752380D02*
X80311785Y-26752380D01*
X80359404Y-27228571D01*
X80311785Y-27180952D01*
X80216547Y-27133333D01*
X79978452Y-27133333D01*
X79883214Y-27180952D01*
X79835595Y-27228571D01*
X79787976Y-27323809D01*
X79787976Y-27561904D01*
X79835595Y-27657142D01*
X79883214Y-27704761D01*
X79978452Y-27752380D01*
X80216547Y-27752380D01*
X80311785Y-27704761D01*
X80359404Y-27657142D01*
X71940595Y-26900000D02*
X72035833Y-26852380D01*
X72178690Y-26852380D01*
X72321547Y-26900000D01*
X72416785Y-26995238D01*
X72464404Y-27090476D01*
X72512023Y-27280952D01*
X72512023Y-27423809D01*
X72464404Y-27614285D01*
X72416785Y-27709523D01*
X72321547Y-27804761D01*
X72178690Y-27852380D01*
X72083452Y-27852380D01*
X71940595Y-27804761D01*
X71892976Y-27757142D01*
X71892976Y-27423809D01*
X72083452Y-27423809D01*
X63264166Y-27752380D02*
X63264166Y-26752380D01*
X62692738Y-27752380D02*
X63121309Y-27180952D01*
X62692738Y-26752380D02*
X63264166Y-27323809D01*
X61740357Y-27752380D02*
X62311785Y-27752380D01*
X62026071Y-27752380D02*
X62026071Y-26752380D01*
X62121309Y-26895238D01*
X62216547Y-26990476D01*
X62311785Y-27038095D01*
X60883214Y-27085714D02*
X60883214Y-27752380D01*
X61121309Y-26704761D02*
X61359404Y-27419047D01*
X60740357Y-27419047D01*
X53131071Y-27328571D02*
X53464404Y-27328571D01*
X53464404Y-27852380D02*
X53464404Y-26852380D01*
X52988214Y-26852380D01*
X44264166Y-27752380D02*
X44264166Y-26752380D01*
X43692738Y-27752380D02*
X44121309Y-27180952D01*
X43692738Y-26752380D02*
X44264166Y-27323809D01*
X42740357Y-27752380D02*
X43311785Y-27752380D01*
X43026071Y-27752380D02*
X43026071Y-26752380D01*
X43121309Y-26895238D01*
X43216547Y-26990476D01*
X43311785Y-27038095D01*
X42407023Y-26752380D02*
X41787976Y-26752380D01*
X42121309Y-27133333D01*
X41978452Y-27133333D01*
X41883214Y-27180952D01*
X41835595Y-27228571D01*
X41787976Y-27323809D01*
X41787976Y-27561904D01*
X41835595Y-27657142D01*
X41883214Y-27704761D01*
X41978452Y-27752380D01*
X42264166Y-27752380D01*
X42359404Y-27704761D01*
X42407023Y-27657142D01*
X34464404Y-27852380D02*
X34464404Y-26852380D01*
X34226309Y-26852380D01*
X34083452Y-26900000D01*
X33988214Y-26995238D01*
X33940595Y-27090476D01*
X33892976Y-27280952D01*
X33892976Y-27423809D01*
X33940595Y-27614285D01*
X33988214Y-27709523D01*
X34083452Y-27804761D01*
X34226309Y-27852380D01*
X34464404Y-27852380D01*
X25264166Y-27752380D02*
X25264166Y-26752380D01*
X24692738Y-27752380D02*
X25121309Y-27180952D01*
X24692738Y-26752380D02*
X25264166Y-27323809D01*
X23740357Y-27752380D02*
X24311785Y-27752380D01*
X24026071Y-27752380D02*
X24026071Y-26752380D01*
X24121309Y-26895238D01*
X24216547Y-26990476D01*
X24311785Y-27038095D01*
X23359404Y-26847619D02*
X23311785Y-26800000D01*
X23216547Y-26752380D01*
X22978452Y-26752380D01*
X22883214Y-26800000D01*
X22835595Y-26847619D01*
X22787976Y-26942857D01*
X22787976Y-27038095D01*
X22835595Y-27180952D01*
X23407023Y-27752380D01*
X22787976Y-27752380D01*
X15512023Y-27804761D02*
X15369166Y-27852380D01*
X15131071Y-27852380D01*
X15035833Y-27804761D01*
X14988214Y-27757142D01*
X14940595Y-27661904D01*
X14940595Y-27566666D01*
X14988214Y-27471428D01*
X15035833Y-27423809D01*
X15131071Y-27376190D01*
X15321547Y-27328571D01*
X15416785Y-27280952D01*
X15464404Y-27233333D01*
X15512023Y-27138095D01*
X15512023Y-27042857D01*
X15464404Y-26947619D01*
X15416785Y-26900000D01*
X15321547Y-26852380D01*
X15083452Y-26852380D01*
X14940595Y-26900000D01*
X6264166Y-27752380D02*
X6264166Y-26752380D01*
X5692738Y-27752380D02*
X6121309Y-27180952D01*
X5692738Y-26752380D02*
X6264166Y-27323809D01*
X4740357Y-27752380D02*
X5311785Y-27752380D01*
X5026071Y-27752380D02*
X5026071Y-26752380D01*
X5121309Y-26895238D01*
X5216547Y-26990476D01*
X5311785Y-27038095D01*
X3787976Y-27752380D02*
X4359404Y-27752380D01*
X4073690Y-27752380D02*
X4073690Y-26752380D01*
X4168928Y-26895238D01*
X4264166Y-26990476D01*
X4359404Y-27038095D01*
X-3487976Y-27566666D02*
X-3964166Y-27566666D01*
X-3392738Y-27852380D02*
X-3726071Y-26852380D01*
X-4059404Y-27852380D01*
X177264166Y-8752380D02*
X177264166Y-7752380D01*
X176692738Y-8752380D02*
X177121309Y-8180952D01*
X176692738Y-7752380D02*
X177264166Y-8323809D01*
X175740357Y-8752380D02*
X176311785Y-8752380D01*
X176026071Y-8752380D02*
X176026071Y-7752380D01*
X176121309Y-7895238D01*
X176216547Y-7990476D01*
X176311785Y-8038095D01*
X175121309Y-7752380D02*
X175026071Y-7752380D01*
X174930833Y-7800000D01*
X174883214Y-7847619D01*
X174835595Y-7942857D01*
X174787976Y-8133333D01*
X174787976Y-8371428D01*
X174835595Y-8561904D01*
X174883214Y-8657142D01*
X174930833Y-8704761D01*
X175026071Y-8752380D01*
X175121309Y-8752380D01*
X175216547Y-8704761D01*
X175264166Y-8657142D01*
X175311785Y-8561904D01*
X175359404Y-8371428D01*
X175359404Y-8133333D01*
X175311785Y-7942857D01*
X175264166Y-7847619D01*
X175216547Y-7800000D01*
X175121309Y-7752380D01*
X167464404Y-8852380D02*
X167464404Y-7852380D01*
X167083452Y-7852380D01*
X166988214Y-7900000D01*
X166940595Y-7947619D01*
X166892976Y-8042857D01*
X166892976Y-8185714D01*
X166940595Y-8280952D01*
X166988214Y-8328571D01*
X167083452Y-8376190D01*
X167464404Y-8376190D01*
X5311785Y-8752380D02*
X5311785Y-7752380D01*
X4740357Y-8752380D02*
X5168928Y-8180952D01*
X4740357Y-7752380D02*
X5311785Y-8323809D01*
X3787976Y-8752380D02*
X4359404Y-8752380D01*
X4073690Y-8752380D02*
X4073690Y-7752380D01*
X4168928Y-7895238D01*
X4264166Y-7990476D01*
X4359404Y-8038095D01*
X-4202261Y-8947619D02*
X-4107023Y-8900000D01*
X-4011785Y-8804761D01*
X-3868928Y-8661904D01*
X-3773690Y-8614285D01*
X-3678452Y-8614285D01*
X-3726071Y-8852380D02*
X-3630833Y-8804761D01*
X-3535595Y-8709523D01*
X-3487976Y-8519047D01*
X-3487976Y-8185714D01*
X-3535595Y-7995238D01*
X-3630833Y-7900000D01*
X-3726071Y-7852380D01*
X-3916547Y-7852380D01*
X-4011785Y-7900000D01*
X-4107023Y-7995238D01*
X-4154642Y-8185714D01*
X-4154642Y-8519047D01*
X-4107023Y-8709523D01*
X-4011785Y-8804761D01*
X-3916547Y-8852380D01*
X-3726071Y-8852380D01*
X158716666Y4326666D02*
X158016666Y4326666D01*
X158016666Y4160000D01*
X158050000Y4060000D01*
X158116666Y3993333D01*
X158183333Y3960000D01*
X158316666Y3926666D01*
X158416666Y3926666D01*
X158550000Y3960000D01*
X158616666Y3993333D01*
X158683333Y4060000D01*
X158716666Y4160000D01*
X158716666Y4326666D01*
X158716666Y3593333D02*
X158716666Y3460000D01*
X158683333Y3393333D01*
X158650000Y3360000D01*
X158550000Y3293333D01*
X158416666Y3260000D01*
X158150000Y3260000D01*
X158083333Y3293333D01*
X158050000Y3326666D01*
X158016666Y3393333D01*
X158016666Y3526666D01*
X158050000Y3593333D01*
X158083333Y3626666D01*
X158150000Y3660000D01*
X158316666Y3660000D01*
X158383333Y3626666D01*
X158416666Y3593333D01*
X158450000Y3526666D01*
X158450000Y3393333D01*
X158416666Y3326666D01*
X158383333Y3293333D01*
X158316666Y3260000D01*
X139716666Y4326666D02*
X139016666Y4326666D01*
X139016666Y4160000D01*
X139050000Y4060000D01*
X139116666Y3993333D01*
X139183333Y3960000D01*
X139316666Y3926666D01*
X139416666Y3926666D01*
X139550000Y3960000D01*
X139616666Y3993333D01*
X139683333Y4060000D01*
X139716666Y4160000D01*
X139716666Y4326666D01*
X139316666Y3526666D02*
X139283333Y3593333D01*
X139250000Y3626666D01*
X139183333Y3660000D01*
X139150000Y3660000D01*
X139083333Y3626666D01*
X139050000Y3593333D01*
X139016666Y3526666D01*
X139016666Y3393333D01*
X139050000Y3326666D01*
X139083333Y3293333D01*
X139150000Y3260000D01*
X139183333Y3260000D01*
X139250000Y3293333D01*
X139283333Y3326666D01*
X139316666Y3393333D01*
X139316666Y3526666D01*
X139350000Y3593333D01*
X139383333Y3626666D01*
X139450000Y3660000D01*
X139583333Y3660000D01*
X139650000Y3626666D01*
X139683333Y3593333D01*
X139716666Y3526666D01*
X139716666Y3393333D01*
X139683333Y3326666D01*
X139650000Y3293333D01*
X139583333Y3260000D01*
X139450000Y3260000D01*
X139383333Y3293333D01*
X139350000Y3326666D01*
X139316666Y3393333D01*
X120716666Y4326666D02*
X120016666Y4326666D01*
X120016666Y4160000D01*
X120050000Y4060000D01*
X120116666Y3993333D01*
X120183333Y3960000D01*
X120316666Y3926666D01*
X120416666Y3926666D01*
X120550000Y3960000D01*
X120616666Y3993333D01*
X120683333Y4060000D01*
X120716666Y4160000D01*
X120716666Y4326666D01*
X120016666Y3693333D02*
X120016666Y3226666D01*
X120716666Y3526666D01*
X101716666Y4326666D02*
X101016666Y4326666D01*
X101016666Y4160000D01*
X101050000Y4060000D01*
X101116666Y3993333D01*
X101183333Y3960000D01*
X101316666Y3926666D01*
X101416666Y3926666D01*
X101550000Y3960000D01*
X101616666Y3993333D01*
X101683333Y4060000D01*
X101716666Y4160000D01*
X101716666Y4326666D01*
X101016666Y3326666D02*
X101016666Y3460000D01*
X101050000Y3526666D01*
X101083333Y3560000D01*
X101183333Y3626666D01*
X101316666Y3660000D01*
X101583333Y3660000D01*
X101650000Y3626666D01*
X101683333Y3593333D01*
X101716666Y3526666D01*
X101716666Y3393333D01*
X101683333Y3326666D01*
X101650000Y3293333D01*
X101583333Y3260000D01*
X101416666Y3260000D01*
X101350000Y3293333D01*
X101316666Y3326666D01*
X101283333Y3393333D01*
X101283333Y3526666D01*
X101316666Y3593333D01*
X101350000Y3626666D01*
X101416666Y3660000D01*
X82716666Y4326666D02*
X82016666Y4326666D01*
X82016666Y4160000D01*
X82050000Y4060000D01*
X82116666Y3993333D01*
X82183333Y3960000D01*
X82316666Y3926666D01*
X82416666Y3926666D01*
X82550000Y3960000D01*
X82616666Y3993333D01*
X82683333Y4060000D01*
X82716666Y4160000D01*
X82716666Y4326666D01*
X82016666Y3293333D02*
X82016666Y3626666D01*
X82350000Y3660000D01*
X82316666Y3626666D01*
X82283333Y3560000D01*
X82283333Y3393333D01*
X82316666Y3326666D01*
X82350000Y3293333D01*
X82416666Y3260000D01*
X82583333Y3260000D01*
X82650000Y3293333D01*
X82683333Y3326666D01*
X82716666Y3393333D01*
X82716666Y3560000D01*
X82683333Y3626666D01*
X82650000Y3660000D01*
X63716666Y4326666D02*
X63016666Y4326666D01*
X63016666Y4160000D01*
X63050000Y4060000D01*
X63116666Y3993333D01*
X63183333Y3960000D01*
X63316666Y3926666D01*
X63416666Y3926666D01*
X63550000Y3960000D01*
X63616666Y3993333D01*
X63683333Y4060000D01*
X63716666Y4160000D01*
X63716666Y4326666D01*
X63250000Y3326666D02*
X63716666Y3326666D01*
X62983333Y3493333D02*
X63483333Y3660000D01*
X63483333Y3226666D01*
X177716666Y-33340000D02*
X177016666Y-33340000D01*
X177016666Y-33506666D01*
X177050000Y-33606666D01*
X177116666Y-33673333D01*
X177183333Y-33706666D01*
X177316666Y-33740000D01*
X177416666Y-33740000D01*
X177550000Y-33706666D01*
X177616666Y-33673333D01*
X177683333Y-33606666D01*
X177716666Y-33506666D01*
X177716666Y-33340000D01*
X177016666Y-33973333D02*
X177016666Y-34406666D01*
X177283333Y-34173333D01*
X177283333Y-34273333D01*
X177316666Y-34340000D01*
X177350000Y-34373333D01*
X177416666Y-34406666D01*
X177583333Y-34406666D01*
X177650000Y-34373333D01*
X177683333Y-34340000D01*
X177716666Y-34273333D01*
X177716666Y-34073333D01*
X177683333Y-34006666D01*
X177650000Y-33973333D01*
X177016666Y-34840000D02*
X177016666Y-34906666D01*
X177050000Y-34973333D01*
X177083333Y-35006666D01*
X177150000Y-35040000D01*
X177283333Y-35073333D01*
X177450000Y-35073333D01*
X177583333Y-35040000D01*
X177650000Y-35006666D01*
X177683333Y-34973333D01*
X177716666Y-34906666D01*
X177716666Y-34840000D01*
X177683333Y-34773333D01*
X177650000Y-34740000D01*
X177583333Y-34706666D01*
X177450000Y-34673333D01*
X177283333Y-34673333D01*
X177150000Y-34706666D01*
X177083333Y-34740000D01*
X177050000Y-34773333D01*
X177016666Y-34840000D01*
X44716666Y4326666D02*
X44016666Y4326666D01*
X44016666Y4160000D01*
X44050000Y4060000D01*
X44116666Y3993333D01*
X44183333Y3960000D01*
X44316666Y3926666D01*
X44416666Y3926666D01*
X44550000Y3960000D01*
X44616666Y3993333D01*
X44683333Y4060000D01*
X44716666Y4160000D01*
X44716666Y4326666D01*
X44016666Y3693333D02*
X44016666Y3260000D01*
X44283333Y3493333D01*
X44283333Y3393333D01*
X44316666Y3326666D01*
X44350000Y3293333D01*
X44416666Y3260000D01*
X44583333Y3260000D01*
X44650000Y3293333D01*
X44683333Y3326666D01*
X44716666Y3393333D01*
X44716666Y3593333D01*
X44683333Y3660000D01*
X44650000Y3693333D01*
X158716666Y-33340000D02*
X158016666Y-33340000D01*
X158016666Y-33506666D01*
X158050000Y-33606666D01*
X158116666Y-33673333D01*
X158183333Y-33706666D01*
X158316666Y-33740000D01*
X158416666Y-33740000D01*
X158550000Y-33706666D01*
X158616666Y-33673333D01*
X158683333Y-33606666D01*
X158716666Y-33506666D01*
X158716666Y-33340000D01*
X158083333Y-34006666D02*
X158050000Y-34040000D01*
X158016666Y-34106666D01*
X158016666Y-34273333D01*
X158050000Y-34340000D01*
X158083333Y-34373333D01*
X158150000Y-34406666D01*
X158216666Y-34406666D01*
X158316666Y-34373333D01*
X158716666Y-33973333D01*
X158716666Y-34406666D01*
X158716666Y-34740000D02*
X158716666Y-34873333D01*
X158683333Y-34940000D01*
X158650000Y-34973333D01*
X158550000Y-35040000D01*
X158416666Y-35073333D01*
X158150000Y-35073333D01*
X158083333Y-35040000D01*
X158050000Y-35006666D01*
X158016666Y-34940000D01*
X158016666Y-34806666D01*
X158050000Y-34740000D01*
X158083333Y-34706666D01*
X158150000Y-34673333D01*
X158316666Y-34673333D01*
X158383333Y-34706666D01*
X158416666Y-34740000D01*
X158450000Y-34806666D01*
X158450000Y-34940000D01*
X158416666Y-35006666D01*
X158383333Y-35040000D01*
X158316666Y-35073333D01*
X139716666Y-33340000D02*
X139016666Y-33340000D01*
X139016666Y-33506666D01*
X139050000Y-33606666D01*
X139116666Y-33673333D01*
X139183333Y-33706666D01*
X139316666Y-33740000D01*
X139416666Y-33740000D01*
X139550000Y-33706666D01*
X139616666Y-33673333D01*
X139683333Y-33606666D01*
X139716666Y-33506666D01*
X139716666Y-33340000D01*
X139083333Y-34006666D02*
X139050000Y-34040000D01*
X139016666Y-34106666D01*
X139016666Y-34273333D01*
X139050000Y-34340000D01*
X139083333Y-34373333D01*
X139150000Y-34406666D01*
X139216666Y-34406666D01*
X139316666Y-34373333D01*
X139716666Y-33973333D01*
X139716666Y-34406666D01*
X139316666Y-34806666D02*
X139283333Y-34740000D01*
X139250000Y-34706666D01*
X139183333Y-34673333D01*
X139150000Y-34673333D01*
X139083333Y-34706666D01*
X139050000Y-34740000D01*
X139016666Y-34806666D01*
X139016666Y-34940000D01*
X139050000Y-35006666D01*
X139083333Y-35040000D01*
X139150000Y-35073333D01*
X139183333Y-35073333D01*
X139250000Y-35040000D01*
X139283333Y-35006666D01*
X139316666Y-34940000D01*
X139316666Y-34806666D01*
X139350000Y-34740000D01*
X139383333Y-34706666D01*
X139450000Y-34673333D01*
X139583333Y-34673333D01*
X139650000Y-34706666D01*
X139683333Y-34740000D01*
X139716666Y-34806666D01*
X139716666Y-34940000D01*
X139683333Y-35006666D01*
X139650000Y-35040000D01*
X139583333Y-35073333D01*
X139450000Y-35073333D01*
X139383333Y-35040000D01*
X139350000Y-35006666D01*
X139316666Y-34940000D01*
X120716666Y-33340000D02*
X120016666Y-33340000D01*
X120016666Y-33506666D01*
X120050000Y-33606666D01*
X120116666Y-33673333D01*
X120183333Y-33706666D01*
X120316666Y-33740000D01*
X120416666Y-33740000D01*
X120550000Y-33706666D01*
X120616666Y-33673333D01*
X120683333Y-33606666D01*
X120716666Y-33506666D01*
X120716666Y-33340000D01*
X120083333Y-34006666D02*
X120050000Y-34040000D01*
X120016666Y-34106666D01*
X120016666Y-34273333D01*
X120050000Y-34340000D01*
X120083333Y-34373333D01*
X120150000Y-34406666D01*
X120216666Y-34406666D01*
X120316666Y-34373333D01*
X120716666Y-33973333D01*
X120716666Y-34406666D01*
X120016666Y-34640000D02*
X120016666Y-35106666D01*
X120716666Y-34806666D01*
X101716666Y-33340000D02*
X101016666Y-33340000D01*
X101016666Y-33506666D01*
X101050000Y-33606666D01*
X101116666Y-33673333D01*
X101183333Y-33706666D01*
X101316666Y-33740000D01*
X101416666Y-33740000D01*
X101550000Y-33706666D01*
X101616666Y-33673333D01*
X101683333Y-33606666D01*
X101716666Y-33506666D01*
X101716666Y-33340000D01*
X101083333Y-34006666D02*
X101050000Y-34040000D01*
X101016666Y-34106666D01*
X101016666Y-34273333D01*
X101050000Y-34340000D01*
X101083333Y-34373333D01*
X101150000Y-34406666D01*
X101216666Y-34406666D01*
X101316666Y-34373333D01*
X101716666Y-33973333D01*
X101716666Y-34406666D01*
X101016666Y-35006666D02*
X101016666Y-34873333D01*
X101050000Y-34806666D01*
X101083333Y-34773333D01*
X101183333Y-34706666D01*
X101316666Y-34673333D01*
X101583333Y-34673333D01*
X101650000Y-34706666D01*
X101683333Y-34740000D01*
X101716666Y-34806666D01*
X101716666Y-34940000D01*
X101683333Y-35006666D01*
X101650000Y-35040000D01*
X101583333Y-35073333D01*
X101416666Y-35073333D01*
X101350000Y-35040000D01*
X101316666Y-35006666D01*
X101283333Y-34940000D01*
X101283333Y-34806666D01*
X101316666Y-34740000D01*
X101350000Y-34706666D01*
X101416666Y-34673333D01*
X82716666Y-33340000D02*
X82016666Y-33340000D01*
X82016666Y-33506666D01*
X82050000Y-33606666D01*
X82116666Y-33673333D01*
X82183333Y-33706666D01*
X82316666Y-33740000D01*
X82416666Y-33740000D01*
X82550000Y-33706666D01*
X82616666Y-33673333D01*
X82683333Y-33606666D01*
X82716666Y-33506666D01*
X82716666Y-33340000D01*
X82083333Y-34006666D02*
X82050000Y-34040000D01*
X82016666Y-34106666D01*
X82016666Y-34273333D01*
X82050000Y-34340000D01*
X82083333Y-34373333D01*
X82150000Y-34406666D01*
X82216666Y-34406666D01*
X82316666Y-34373333D01*
X82716666Y-33973333D01*
X82716666Y-34406666D01*
X82016666Y-35040000D02*
X82016666Y-34706666D01*
X82350000Y-34673333D01*
X82316666Y-34706666D01*
X82283333Y-34773333D01*
X82283333Y-34940000D01*
X82316666Y-35006666D01*
X82350000Y-35040000D01*
X82416666Y-35073333D01*
X82583333Y-35073333D01*
X82650000Y-35040000D01*
X82683333Y-35006666D01*
X82716666Y-34940000D01*
X82716666Y-34773333D01*
X82683333Y-34706666D01*
X82650000Y-34673333D01*
X63716666Y-33340000D02*
X63016666Y-33340000D01*
X63016666Y-33506666D01*
X63050000Y-33606666D01*
X63116666Y-33673333D01*
X63183333Y-33706666D01*
X63316666Y-33740000D01*
X63416666Y-33740000D01*
X63550000Y-33706666D01*
X63616666Y-33673333D01*
X63683333Y-33606666D01*
X63716666Y-33506666D01*
X63716666Y-33340000D01*
X63083333Y-34006666D02*
X63050000Y-34040000D01*
X63016666Y-34106666D01*
X63016666Y-34273333D01*
X63050000Y-34340000D01*
X63083333Y-34373333D01*
X63150000Y-34406666D01*
X63216666Y-34406666D01*
X63316666Y-34373333D01*
X63716666Y-33973333D01*
X63716666Y-34406666D01*
X63250000Y-35006666D02*
X63716666Y-35006666D01*
X62983333Y-34840000D02*
X63483333Y-34673333D01*
X63483333Y-35106666D01*
X44716666Y-33340000D02*
X44016666Y-33340000D01*
X44016666Y-33506666D01*
X44050000Y-33606666D01*
X44116666Y-33673333D01*
X44183333Y-33706666D01*
X44316666Y-33740000D01*
X44416666Y-33740000D01*
X44550000Y-33706666D01*
X44616666Y-33673333D01*
X44683333Y-33606666D01*
X44716666Y-33506666D01*
X44716666Y-33340000D01*
X44083333Y-34006666D02*
X44050000Y-34040000D01*
X44016666Y-34106666D01*
X44016666Y-34273333D01*
X44050000Y-34340000D01*
X44083333Y-34373333D01*
X44150000Y-34406666D01*
X44216666Y-34406666D01*
X44316666Y-34373333D01*
X44716666Y-33973333D01*
X44716666Y-34406666D01*
X44016666Y-34640000D02*
X44016666Y-35073333D01*
X44283333Y-34840000D01*
X44283333Y-34940000D01*
X44316666Y-35006666D01*
X44350000Y-35040000D01*
X44416666Y-35073333D01*
X44583333Y-35073333D01*
X44650000Y-35040000D01*
X44683333Y-35006666D01*
X44716666Y-34940000D01*
X44716666Y-34740000D01*
X44683333Y-34673333D01*
X44650000Y-34640000D01*
X25716666Y-33340000D02*
X25016666Y-33340000D01*
X25016666Y-33506666D01*
X25050000Y-33606666D01*
X25116666Y-33673333D01*
X25183333Y-33706666D01*
X25316666Y-33740000D01*
X25416666Y-33740000D01*
X25550000Y-33706666D01*
X25616666Y-33673333D01*
X25683333Y-33606666D01*
X25716666Y-33506666D01*
X25716666Y-33340000D01*
X25083333Y-34006666D02*
X25050000Y-34040000D01*
X25016666Y-34106666D01*
X25016666Y-34273333D01*
X25050000Y-34340000D01*
X25083333Y-34373333D01*
X25150000Y-34406666D01*
X25216666Y-34406666D01*
X25316666Y-34373333D01*
X25716666Y-33973333D01*
X25716666Y-34406666D01*
X25083333Y-34673333D02*
X25050000Y-34706666D01*
X25016666Y-34773333D01*
X25016666Y-34940000D01*
X25050000Y-35006666D01*
X25083333Y-35040000D01*
X25150000Y-35073333D01*
X25216666Y-35073333D01*
X25316666Y-35040000D01*
X25716666Y-34640000D01*
X25716666Y-35073333D01*
X6716666Y-33340000D02*
X6016666Y-33340000D01*
X6016666Y-33506666D01*
X6050000Y-33606666D01*
X6116666Y-33673333D01*
X6183333Y-33706666D01*
X6316666Y-33740000D01*
X6416666Y-33740000D01*
X6550000Y-33706666D01*
X6616666Y-33673333D01*
X6683333Y-33606666D01*
X6716666Y-33506666D01*
X6716666Y-33340000D01*
X6083333Y-34006666D02*
X6050000Y-34040000D01*
X6016666Y-34106666D01*
X6016666Y-34273333D01*
X6050000Y-34340000D01*
X6083333Y-34373333D01*
X6150000Y-34406666D01*
X6216666Y-34406666D01*
X6316666Y-34373333D01*
X6716666Y-33973333D01*
X6716666Y-34406666D01*
X6716666Y-35073333D02*
X6716666Y-34673333D01*
X6716666Y-34873333D02*
X6016666Y-34873333D01*
X6116666Y-34806666D01*
X6183333Y-34740000D01*
X6216666Y-34673333D01*
X177716666Y-14340000D02*
X177016666Y-14340000D01*
X177016666Y-14506666D01*
X177050000Y-14606666D01*
X177116666Y-14673333D01*
X177183333Y-14706666D01*
X177316666Y-14740000D01*
X177416666Y-14740000D01*
X177550000Y-14706666D01*
X177616666Y-14673333D01*
X177683333Y-14606666D01*
X177716666Y-14506666D01*
X177716666Y-14340000D01*
X177083333Y-15006666D02*
X177050000Y-15040000D01*
X177016666Y-15106666D01*
X177016666Y-15273333D01*
X177050000Y-15340000D01*
X177083333Y-15373333D01*
X177150000Y-15406666D01*
X177216666Y-15406666D01*
X177316666Y-15373333D01*
X177716666Y-14973333D01*
X177716666Y-15406666D01*
X177016666Y-15840000D02*
X177016666Y-15906666D01*
X177050000Y-15973333D01*
X177083333Y-16006666D01*
X177150000Y-16040000D01*
X177283333Y-16073333D01*
X177450000Y-16073333D01*
X177583333Y-16040000D01*
X177650000Y-16006666D01*
X177683333Y-15973333D01*
X177716666Y-15906666D01*
X177716666Y-15840000D01*
X177683333Y-15773333D01*
X177650000Y-15740000D01*
X177583333Y-15706666D01*
X177450000Y-15673333D01*
X177283333Y-15673333D01*
X177150000Y-15706666D01*
X177083333Y-15740000D01*
X177050000Y-15773333D01*
X177016666Y-15840000D01*
X25716666Y4326666D02*
X25016666Y4326666D01*
X25016666Y4160000D01*
X25050000Y4060000D01*
X25116666Y3993333D01*
X25183333Y3960000D01*
X25316666Y3926666D01*
X25416666Y3926666D01*
X25550000Y3960000D01*
X25616666Y3993333D01*
X25683333Y4060000D01*
X25716666Y4160000D01*
X25716666Y4326666D01*
X25083333Y3660000D02*
X25050000Y3626666D01*
X25016666Y3560000D01*
X25016666Y3393333D01*
X25050000Y3326666D01*
X25083333Y3293333D01*
X25150000Y3260000D01*
X25216666Y3260000D01*
X25316666Y3293333D01*
X25716666Y3693333D01*
X25716666Y3260000D01*
X158716666Y-14340000D02*
X158016666Y-14340000D01*
X158016666Y-14506666D01*
X158050000Y-14606666D01*
X158116666Y-14673333D01*
X158183333Y-14706666D01*
X158316666Y-14740000D01*
X158416666Y-14740000D01*
X158550000Y-14706666D01*
X158616666Y-14673333D01*
X158683333Y-14606666D01*
X158716666Y-14506666D01*
X158716666Y-14340000D01*
X158716666Y-15406666D02*
X158716666Y-15006666D01*
X158716666Y-15206666D02*
X158016666Y-15206666D01*
X158116666Y-15140000D01*
X158183333Y-15073333D01*
X158216666Y-15006666D01*
X158716666Y-15740000D02*
X158716666Y-15873333D01*
X158683333Y-15940000D01*
X158650000Y-15973333D01*
X158550000Y-16040000D01*
X158416666Y-16073333D01*
X158150000Y-16073333D01*
X158083333Y-16040000D01*
X158050000Y-16006666D01*
X158016666Y-15940000D01*
X158016666Y-15806666D01*
X158050000Y-15740000D01*
X158083333Y-15706666D01*
X158150000Y-15673333D01*
X158316666Y-15673333D01*
X158383333Y-15706666D01*
X158416666Y-15740000D01*
X158450000Y-15806666D01*
X158450000Y-15940000D01*
X158416666Y-16006666D01*
X158383333Y-16040000D01*
X158316666Y-16073333D01*
X139716666Y-14340000D02*
X139016666Y-14340000D01*
X139016666Y-14506666D01*
X139050000Y-14606666D01*
X139116666Y-14673333D01*
X139183333Y-14706666D01*
X139316666Y-14740000D01*
X139416666Y-14740000D01*
X139550000Y-14706666D01*
X139616666Y-14673333D01*
X139683333Y-14606666D01*
X139716666Y-14506666D01*
X139716666Y-14340000D01*
X139716666Y-15406666D02*
X139716666Y-15006666D01*
X139716666Y-15206666D02*
X139016666Y-15206666D01*
X139116666Y-15140000D01*
X139183333Y-15073333D01*
X139216666Y-15006666D01*
X139316666Y-15806666D02*
X139283333Y-15740000D01*
X139250000Y-15706666D01*
X139183333Y-15673333D01*
X139150000Y-15673333D01*
X139083333Y-15706666D01*
X139050000Y-15740000D01*
X139016666Y-15806666D01*
X139016666Y-15940000D01*
X139050000Y-16006666D01*
X139083333Y-16040000D01*
X139150000Y-16073333D01*
X139183333Y-16073333D01*
X139250000Y-16040000D01*
X139283333Y-16006666D01*
X139316666Y-15940000D01*
X139316666Y-15806666D01*
X139350000Y-15740000D01*
X139383333Y-15706666D01*
X139450000Y-15673333D01*
X139583333Y-15673333D01*
X139650000Y-15706666D01*
X139683333Y-15740000D01*
X139716666Y-15806666D01*
X139716666Y-15940000D01*
X139683333Y-16006666D01*
X139650000Y-16040000D01*
X139583333Y-16073333D01*
X139450000Y-16073333D01*
X139383333Y-16040000D01*
X139350000Y-16006666D01*
X139316666Y-15940000D01*
X120716666Y-14340000D02*
X120016666Y-14340000D01*
X120016666Y-14506666D01*
X120050000Y-14606666D01*
X120116666Y-14673333D01*
X120183333Y-14706666D01*
X120316666Y-14740000D01*
X120416666Y-14740000D01*
X120550000Y-14706666D01*
X120616666Y-14673333D01*
X120683333Y-14606666D01*
X120716666Y-14506666D01*
X120716666Y-14340000D01*
X120716666Y-15406666D02*
X120716666Y-15006666D01*
X120716666Y-15206666D02*
X120016666Y-15206666D01*
X120116666Y-15140000D01*
X120183333Y-15073333D01*
X120216666Y-15006666D01*
X120016666Y-15640000D02*
X120016666Y-16106666D01*
X120716666Y-15806666D01*
X101716666Y-14340000D02*
X101016666Y-14340000D01*
X101016666Y-14506666D01*
X101050000Y-14606666D01*
X101116666Y-14673333D01*
X101183333Y-14706666D01*
X101316666Y-14740000D01*
X101416666Y-14740000D01*
X101550000Y-14706666D01*
X101616666Y-14673333D01*
X101683333Y-14606666D01*
X101716666Y-14506666D01*
X101716666Y-14340000D01*
X101716666Y-15406666D02*
X101716666Y-15006666D01*
X101716666Y-15206666D02*
X101016666Y-15206666D01*
X101116666Y-15140000D01*
X101183333Y-15073333D01*
X101216666Y-15006666D01*
X101016666Y-16006666D02*
X101016666Y-15873333D01*
X101050000Y-15806666D01*
X101083333Y-15773333D01*
X101183333Y-15706666D01*
X101316666Y-15673333D01*
X101583333Y-15673333D01*
X101650000Y-15706666D01*
X101683333Y-15740000D01*
X101716666Y-15806666D01*
X101716666Y-15940000D01*
X101683333Y-16006666D01*
X101650000Y-16040000D01*
X101583333Y-16073333D01*
X101416666Y-16073333D01*
X101350000Y-16040000D01*
X101316666Y-16006666D01*
X101283333Y-15940000D01*
X101283333Y-15806666D01*
X101316666Y-15740000D01*
X101350000Y-15706666D01*
X101416666Y-15673333D01*
X82716666Y-14340000D02*
X82016666Y-14340000D01*
X82016666Y-14506666D01*
X82050000Y-14606666D01*
X82116666Y-14673333D01*
X82183333Y-14706666D01*
X82316666Y-14740000D01*
X82416666Y-14740000D01*
X82550000Y-14706666D01*
X82616666Y-14673333D01*
X82683333Y-14606666D01*
X82716666Y-14506666D01*
X82716666Y-14340000D01*
X82716666Y-15406666D02*
X82716666Y-15006666D01*
X82716666Y-15206666D02*
X82016666Y-15206666D01*
X82116666Y-15140000D01*
X82183333Y-15073333D01*
X82216666Y-15006666D01*
X82016666Y-16040000D02*
X82016666Y-15706666D01*
X82350000Y-15673333D01*
X82316666Y-15706666D01*
X82283333Y-15773333D01*
X82283333Y-15940000D01*
X82316666Y-16006666D01*
X82350000Y-16040000D01*
X82416666Y-16073333D01*
X82583333Y-16073333D01*
X82650000Y-16040000D01*
X82683333Y-16006666D01*
X82716666Y-15940000D01*
X82716666Y-15773333D01*
X82683333Y-15706666D01*
X82650000Y-15673333D01*
X63716666Y-14340000D02*
X63016666Y-14340000D01*
X63016666Y-14506666D01*
X63050000Y-14606666D01*
X63116666Y-14673333D01*
X63183333Y-14706666D01*
X63316666Y-14740000D01*
X63416666Y-14740000D01*
X63550000Y-14706666D01*
X63616666Y-14673333D01*
X63683333Y-14606666D01*
X63716666Y-14506666D01*
X63716666Y-14340000D01*
X63716666Y-15406666D02*
X63716666Y-15006666D01*
X63716666Y-15206666D02*
X63016666Y-15206666D01*
X63116666Y-15140000D01*
X63183333Y-15073333D01*
X63216666Y-15006666D01*
X63250000Y-16006666D02*
X63716666Y-16006666D01*
X62983333Y-15840000D02*
X63483333Y-15673333D01*
X63483333Y-16106666D01*
X44716666Y-14340000D02*
X44016666Y-14340000D01*
X44016666Y-14506666D01*
X44050000Y-14606666D01*
X44116666Y-14673333D01*
X44183333Y-14706666D01*
X44316666Y-14740000D01*
X44416666Y-14740000D01*
X44550000Y-14706666D01*
X44616666Y-14673333D01*
X44683333Y-14606666D01*
X44716666Y-14506666D01*
X44716666Y-14340000D01*
X44716666Y-15406666D02*
X44716666Y-15006666D01*
X44716666Y-15206666D02*
X44016666Y-15206666D01*
X44116666Y-15140000D01*
X44183333Y-15073333D01*
X44216666Y-15006666D01*
X44016666Y-15640000D02*
X44016666Y-16073333D01*
X44283333Y-15840000D01*
X44283333Y-15940000D01*
X44316666Y-16006666D01*
X44350000Y-16040000D01*
X44416666Y-16073333D01*
X44583333Y-16073333D01*
X44650000Y-16040000D01*
X44683333Y-16006666D01*
X44716666Y-15940000D01*
X44716666Y-15740000D01*
X44683333Y-15673333D01*
X44650000Y-15640000D01*
X25716666Y-14340000D02*
X25016666Y-14340000D01*
X25016666Y-14506666D01*
X25050000Y-14606666D01*
X25116666Y-14673333D01*
X25183333Y-14706666D01*
X25316666Y-14740000D01*
X25416666Y-14740000D01*
X25550000Y-14706666D01*
X25616666Y-14673333D01*
X25683333Y-14606666D01*
X25716666Y-14506666D01*
X25716666Y-14340000D01*
X25716666Y-15406666D02*
X25716666Y-15006666D01*
X25716666Y-15206666D02*
X25016666Y-15206666D01*
X25116666Y-15140000D01*
X25183333Y-15073333D01*
X25216666Y-15006666D01*
X25083333Y-15673333D02*
X25050000Y-15706666D01*
X25016666Y-15773333D01*
X25016666Y-15940000D01*
X25050000Y-16006666D01*
X25083333Y-16040000D01*
X25150000Y-16073333D01*
X25216666Y-16073333D01*
X25316666Y-16040000D01*
X25716666Y-15640000D01*
X25716666Y-16073333D01*
X6716666Y-14340000D02*
X6016666Y-14340000D01*
X6016666Y-14506666D01*
X6050000Y-14606666D01*
X6116666Y-14673333D01*
X6183333Y-14706666D01*
X6316666Y-14740000D01*
X6416666Y-14740000D01*
X6550000Y-14706666D01*
X6616666Y-14673333D01*
X6683333Y-14606666D01*
X6716666Y-14506666D01*
X6716666Y-14340000D01*
X6716666Y-15406666D02*
X6716666Y-15006666D01*
X6716666Y-15206666D02*
X6016666Y-15206666D01*
X6116666Y-15140000D01*
X6183333Y-15073333D01*
X6216666Y-15006666D01*
X6716666Y-16073333D02*
X6716666Y-15673333D01*
X6716666Y-15873333D02*
X6016666Y-15873333D01*
X6116666Y-15806666D01*
X6183333Y-15740000D01*
X6216666Y-15673333D01*
X177716666Y4660000D02*
X177016666Y4660000D01*
X177016666Y4493333D01*
X177050000Y4393333D01*
X177116666Y4326666D01*
X177183333Y4293333D01*
X177316666Y4260000D01*
X177416666Y4260000D01*
X177550000Y4293333D01*
X177616666Y4326666D01*
X177683333Y4393333D01*
X177716666Y4493333D01*
X177716666Y4660000D01*
X177716666Y3593333D02*
X177716666Y3993333D01*
X177716666Y3793333D02*
X177016666Y3793333D01*
X177116666Y3860000D01*
X177183333Y3926666D01*
X177216666Y3993333D01*
X177016666Y3160000D02*
X177016666Y3093333D01*
X177050000Y3026666D01*
X177083333Y2993333D01*
X177150000Y2960000D01*
X177283333Y2926666D01*
X177450000Y2926666D01*
X177583333Y2960000D01*
X177650000Y2993333D01*
X177683333Y3026666D01*
X177716666Y3093333D01*
X177716666Y3160000D01*
X177683333Y3226666D01*
X177650000Y3260000D01*
X177583333Y3293333D01*
X177450000Y3326666D01*
X177283333Y3326666D01*
X177150000Y3293333D01*
X177083333Y3260000D01*
X177050000Y3226666D01*
X177016666Y3160000D01*
X6716666Y4326666D02*
X6016666Y4326666D01*
X6016666Y4160000D01*
X6050000Y4060000D01*
X6116666Y3993333D01*
X6183333Y3960000D01*
X6316666Y3926666D01*
X6416666Y3926666D01*
X6550000Y3960000D01*
X6616666Y3993333D01*
X6683333Y4060000D01*
X6716666Y4160000D01*
X6716666Y4326666D01*
X6716666Y3260000D02*
X6716666Y3660000D01*
X6716666Y3460000D02*
X6016666Y3460000D01*
X6116666Y3526666D01*
X6183333Y3593333D01*
X6216666Y3660000D01*
M02*
