M48
; DRILL file {KiCad 5.1.5-52549c5~84~ubuntu19.10.1} date Mon 17 Feb 2020 10:45:28 PM PST
; FORMAT={-:-/ absolute / metric / decimal}
; #@! TF.CreationDate,2020-02-17T22:45:28-08:00
; #@! TF.GenerationSoftware,Kicad,Pcbnew,5.1.5-52549c5~84~ubuntu19.10.1
; #@! TF.FileFunction,Plated,1,2,PTH
FMAT,2
METRIC
T1C0.400
T2C1.092
%
G90
G05
T1
X-6.09Y-7.526
X0.09Y-23.349
X2.5Y-11.279
X2.589Y-35.106
X6.866Y3.384
X7.556Y4.811
X9.48Y-5.972
X9.692Y-26.52
X10.799Y-23.68
X11.84Y-7.526
X13.474Y4.513
X14.333Y-15.496
X25.482Y-14.796
X26.279Y-33.476
X44.253Y-33.237
X44.256Y4.763
X45.752Y-14.231
X57.575Y-5.604
X62.223Y-13.239
X63.123Y-32.109
X77.81Y-6.176
X82.536Y-14.737
X82.536Y-33.232
X94.991Y-5.534
X95.692Y-11.179
X96.135Y-9.421
X99.986Y-13.239
X101.949Y-33.463
X105.816Y-5.534
X113.482Y-45.31
X114.052Y-24.446
X116.85Y-31.134
X122.019Y-14.658
X124.757Y-24.446
X126.421Y-31.134
X139.258Y-33.247
X139.439Y4.296
X143.09Y2.198
X148.016Y-9.009
X149.249Y-12.224
X150.683Y-11.878
X153.258Y-22.201
X155.574Y2.966
X155.819Y-12.618
X160.526Y-33.298
X160.674Y-18.331
X160.91Y-26.288
X164.522Y-12.636
X165.416Y-17.477
X166.831Y-11.878
X166.984Y-13.794
X167.036Y-15.908
X173.748Y-25.195
X175.003Y5.842
X193.466Y-18.042
X195.032Y-20.007
T2
X181.61Y5.08
X181.61Y2.54
X181.61Y0.0
X181.61Y-2.54
X181.61Y-5.08
X181.61Y-7.62
X181.61Y-10.16
X181.61Y-12.7
X181.61Y-15.24
X181.61Y-17.78
X181.61Y-20.32
X181.61Y-22.86
X196.85Y5.08
X196.85Y2.54
X196.85Y0.0
X196.85Y-2.54
X196.85Y-5.08
X196.85Y-7.62
X196.85Y-10.16
X196.85Y-12.7
X196.85Y-15.24
X196.85Y-17.78
X196.85Y-20.32
X196.85Y-22.86
T0
M30
